<svg viewBox="0 0 1496 400" xmlns="http://www.w3.org/2000/svg"><g><g><g><g><g><line x1="50" y1="377" x2="45" y2="377" style="visibility: inherit;" fill="rgb(0, 0, 0)" stroke="rgb(204, 204, 204)" stroke-width="1px"></line><line x1="50" y1="335.1111111111111" x2="45" y2="335.1111111111111" style="visibility: inherit;" fill="rgb(0, 0, 0)" stroke="rgb(204, 204, 204)" stroke-width="1px"></line><line x1="50" y1="293.2222222222222" x2="45" y2="293.2222222222222" style="visibility: inherit;" fill="rgb(0, 0, 0)" stroke="rgb(204, 204, 204)" stroke-width="1px"></line><line x1="50" y1="251.3333333333333" x2="45" y2="251.3333333333333" style="visibility: inherit;" fill="rgb(0, 0, 0)" stroke="rgb(204, 204, 204)" stroke-width="1px"></line><line x1="50" y1="209.44444444444437" x2="45" y2="209.44444444444437" style="visibility: inherit;" fill="rgb(0, 0, 0)" stroke="rgb(204, 204, 204)" stroke-width="1px"></line><line x1="50" y1="167.55555555555543" x2="45" y2="167.55555555555543" style="visibility: inherit;" fill="rgb(0, 0, 0)" stroke="rgb(204, 204, 204)" stroke-width="1px"></line><line x1="50" y1="125.66666666666677" x2="45" y2="125.66666666666677" style="visibility: inherit;" fill="rgb(0, 0, 0)" stroke="rgb(204, 204, 204)" stroke-width="1px"></line><line x1="50" y1="83.77777777777781" x2="45" y2="83.77777777777781" style="visibility: inherit;" fill="rgb(0, 0, 0)" stroke="rgb(204, 204, 204)" stroke-width="1px"></line><line x1="50" y1="41.88888888888891" x2="45" y2="41.88888888888891" style="visibility: inherit;" fill="rgb(0, 0, 0)" stroke="rgb(204, 204, 204)" stroke-width="1px"></line><line x1="50" y1="0" x2="45" y2="0" style="visibility: inherit;" fill="rgb(0, 0, 0)" stroke="rgb(204, 204, 204)" stroke-width="1px"></line></g><g transform="translate(40, 0)"><text x="0" y="377" dx="0em" dy="0.3em" style="text-anchor: end; visibility: hidden; font-family: Roboto, sans-serif; font-size: 12px; font-weight: 200;" fill="rgb(255, 255, 255)" stroke="none" stroke-width="1px">0.82</text><text x="0" y="335.1111111111111" dx="0em" dy="0.3em" style="text-anchor: end; visibility: inherit; font-family: Roboto, sans-serif; font-size: 12px; font-weight: 200;" fill="rgb(255, 255, 255)" stroke="none" stroke-width="1px">0.84</text><text x="0" y="293.2222222222222" dx="0em" dy="0.3em" style="text-anchor: end; visibility: inherit; font-family: Roboto, sans-serif; font-size: 12px; font-weight: 200;" fill="rgb(255, 255, 255)" stroke="none" stroke-width="1px">0.86</text><text x="0" y="251.3333333333333" dx="0em" dy="0.3em" style="text-anchor: end; visibility: inherit; font-family: Roboto, sans-serif; font-size: 12px; font-weight: 200;" fill="rgb(255, 255, 255)" stroke="none" stroke-width="1px">0.88</text><text x="0" y="209.44444444444437" dx="0em" dy="0.3em" style="text-anchor: end; visibility: inherit; font-family: Roboto, sans-serif; font-size: 12px; font-weight: 200;" fill="rgb(255, 255, 255)" stroke="none" stroke-width="1px">0.9</text><text x="0" y="167.55555555555543" dx="0em" dy="0.3em" style="text-anchor: end; visibility: inherit; font-family: Roboto, sans-serif; font-size: 12px; font-weight: 200;" fill="rgb(255, 255, 255)" stroke="none" stroke-width="1px">0.92</text><text x="0" y="125.66666666666677" dx="0em" dy="0.3em" style="text-anchor: end; visibility: inherit; font-family: Roboto, sans-serif; font-size: 12px; font-weight: 200;" fill="rgb(255, 255, 255)" stroke="none" stroke-width="1px">0.94</text><text x="0" y="83.77777777777781" dx="0em" dy="0.3em" style="text-anchor: end; visibility: inherit; font-family: Roboto, sans-serif; font-size: 12px; font-weight: 200;" fill="rgb(255, 255, 255)" stroke="none" stroke-width="1px">0.96</text><text x="0" y="41.88888888888891" dx="0em" dy="0.3em" style="text-anchor: end; visibility: inherit; font-family: Roboto, sans-serif; font-size: 12px; font-weight: 200;" fill="rgb(255, 255, 255)" stroke="none" stroke-width="1px">0.98</text><text x="0" y="0" dx="0em" dy="0.3em" style="text-anchor: end; visibility: hidden; font-family: Roboto, sans-serif; font-size: 12px; font-weight: 200;" fill="rgb(255, 255, 255)" stroke="none" stroke-width="1px">1</text></g><line x1="50" y1="0" x2="50" y2="377" fill="rgb(0, 0, 0)" stroke="rgb(204, 204, 204)" stroke-width="1px"></line></g></g><g transform="translate(50, 0)" clip-path="url(#clip_0)"><clipPath id="clip_0"><rect width="1446" height="377"></rect></clipPath><g><g><g><line x1="0" y1="0" x2="0" y2="377" fill="rgb(0, 0, 0)" stroke="rgb(189, 189, 189)" stroke-width="1px" opacity="0.25"></line><line x1="120.5" y1="0" x2="120.5" y2="377" fill="rgb(0, 0, 0)" stroke="rgb(189, 189, 189)" stroke-width="1px" opacity="0.25"></line><line x1="241" y1="0" x2="241" y2="377" fill="rgb(0, 0, 0)" stroke="rgb(189, 189, 189)" stroke-width="1px" opacity="0.25"></line><line x1="361.5" y1="0" x2="361.5" y2="377" fill="rgb(0, 0, 0)" stroke="rgb(189, 189, 189)" stroke-width="1px" opacity="0.25"></line><line x1="482" y1="0" x2="482" y2="377" fill="rgb(0, 0, 0)" stroke="rgb(189, 189, 189)" stroke-width="1px" opacity="0.25"></line><line x1="602.5" y1="0" x2="602.5" y2="377" fill="rgb(0, 0, 0)" stroke="rgb(189, 189, 189)" stroke-width="1px" opacity="0.25"></line><line x1="723" y1="0" x2="723" y2="377" fill="rgb(0, 0, 0)" stroke="rgb(189, 189, 189)" stroke-width="1px" opacity="0.25"></line><line x1="843.5" y1="0" x2="843.5" y2="377" fill="rgb(0, 0, 0)" stroke="rgb(189, 189, 189)" stroke-width="1px" opacity="0.25"></line><line x1="964" y1="0" x2="964" y2="377" fill="rgb(0, 0, 0)" stroke="rgb(189, 189, 189)" stroke-width="1px" opacity="0.25"></line><line x1="1084.5" y1="0" x2="1084.5" y2="377" fill="rgb(0, 0, 0)" stroke="rgb(189, 189, 189)" stroke-width="1px" opacity="0.25"></line><line x1="1205" y1="0" x2="1205" y2="377" fill="rgb(0, 0, 0)" stroke="rgb(189, 189, 189)" stroke-width="1px" opacity="0.25"></line><line x1="1325.5" y1="0" x2="1325.5" y2="377" fill="rgb(0, 0, 0)" stroke="rgb(189, 189, 189)" stroke-width="1px" opacity="0.25"></line><line x1="1446" y1="0" x2="1446" y2="377" fill="rgb(0, 0, 0)" stroke="rgb(189, 189, 189)" stroke-width="1px" opacity="0.25"></line></g><g><line x1="0" y1="377" x2="1446" y2="377" fill="rgb(0, 0, 0)" stroke="rgb(189, 189, 189)" stroke-width="1px" opacity="0.25"></line><line x1="0" y1="335.1111111111111" x2="1446" y2="335.1111111111111" fill="rgb(0, 0, 0)" stroke="rgb(189, 189, 189)" stroke-width="1px" opacity="0.25"></line><line x1="0" y1="293.2222222222222" x2="1446" y2="293.2222222222222" fill="rgb(0, 0, 0)" stroke="rgb(189, 189, 189)" stroke-width="1px" opacity="0.25"></line><line x1="0" y1="251.3333333333333" x2="1446" y2="251.3333333333333" fill="rgb(0, 0, 0)" stroke="rgb(189, 189, 189)" stroke-width="1px" opacity="0.25"></line><line x1="0" y1="209.44444444444437" x2="1446" y2="209.44444444444437" fill="rgb(0, 0, 0)" stroke="rgb(189, 189, 189)" stroke-width="1px" opacity="0.25"></line><line x1="0" y1="167.55555555555543" x2="1446" y2="167.55555555555543" fill="rgb(0, 0, 0)" stroke="rgb(189, 189, 189)" stroke-width="1px" opacity="0.25"></line><line x1="0" y1="125.66666666666677" x2="1446" y2="125.66666666666677" fill="rgb(0, 0, 0)" stroke="rgb(189, 189, 189)" stroke-width="1px" opacity="0.25"></line><line x1="0" y1="83.77777777777781" x2="1446" y2="83.77777777777781" fill="rgb(0, 0, 0)" stroke="rgb(189, 189, 189)" stroke-width="1px" opacity="0.25"></line><line x1="0" y1="41.88888888888891" x2="1446" y2="41.88888888888891" fill="rgb(0, 0, 0)" stroke="rgb(189, 189, 189)" stroke-width="1px" opacity="0.25"></line><line x1="0" y1="0" x2="1446" y2="0" fill="rgb(0, 0, 0)" stroke="rgb(189, 189, 189)" stroke-width="1px" opacity="0.25"></line></g></g></g><g><g><line x1="0" y1="2094.444444444444" x2="1446" y2="2094.444444444444" fill="rgb(0, 0, 0)" stroke="rgb(153, 153, 153)" stroke-width="1.5px"></line></g></g><g><g><line x1="120.5" y1="0" x2="120.5" y2="377" fill="rgb(0, 0, 0)" stroke="rgb(153, 153, 153)" stroke-width="1.5px"></line></g></g><g><g><g><g><g><path stroke="rgb(238, 51, 119)" stroke-width="2px" d="M120.5,211.36438747247055L144.6,188.45634518398174L168.7,173.69642389469422L192.8,157.47923725254202L216.9,138.6849758947944L241,126.192572839342L265.09999999999997,121.37929761820118L289.2,115.95180156478135L313.3,109.51004860384151L337.4,108.00468420354318L361.5,102.1324213985796L385.6,96.6636408295885L409.7,92.27153442687553L433.8,90.05913177832412L457.9,88.73280029888934L482,86.95973833100598L506.09999999999997,85.19795565724871L530.1999999999999,87.28303472730421L554.3000000000001,88.04524857221375L578.4,86.33821581937778L602.5,86.36125534070555L626.6,82.95410604558394L650.7,80.7004142518369L674.8,80.60489197635827L698.9,79.77961948038688L723,79.98260615767776L747.1,80.03458811630763L771.2,79.50724894148357L795.3000000000001,79.60970432631284L819.4,79.18250914219135L843.5,78.4374738090618L867.6,77.43192465501751L891.7,76.40968673022127L915.8,77.5417377301709L939.9,77.8020598385973L964,77.81863358996986L988.1,77.75876808556215L1012.1999999999999,76.4661733231832L1036.3,75.6906164688277L1060.3999999999999,76.55176756908799L1084.5,77.20807773799861L1108.6000000000001,76.76409684688385L1132.7,75.59013156567886L1156.8,75.30461092538239L1180.9,74.99367903184277L1205,77.18085129711922L1229.1,76.04961350018519L1253.2,76.55773652269434L1277.3,75.3965056167989L1301.4,76.16587179265724" style="fill: none;" fill="none"></path></g><g><path stroke="rgb(51, 187, 238)" stroke-width="2px" d="M120.5,321.3227407799826L144.6,234.43599955903156L168.7,193.9685745777187L192.8,168.49532406898885L216.9,149.48412088901478L241,134.6027083060937L265.09999999999997,123.59917068416674L289.2,113.38090007417493L313.3,105.66825581316033L337.4,99.10646790995082L361.5,93.4781636719357L385.6,88.64497493195513L409.7,84.2663314852935L433.8,80.315282813263L457.9,77.00366118234196L482,74.07493742963956L506.09999999999997,71.77708988778213L530.1999999999999,69.43857378174991L554.3000000000001,67.42466864175016L578.4,64.90734843620729L602.5,62.821047139096336L626.6,61.3772913318385L650.7,59.96999517003351L674.8,58.724191626512805L698.9,56.510554455237774L723,55.11256630650508L747.1,53.488389431667656L771.2,52.2869775608504L795.3000000000001,50.13493054117523L819.4,48.861130311650605L843.5,48.37613934541384L867.6,47.28223269311912L891.7,45.89283636276905L915.8,45.513011960952205L939.9,44.813876506848125L964,43.626437997124775L988.1,42.82668773750371L1012.1999999999999,41.94540652621978L1036.3,40.875587233770986L1060.3999999999999,39.55297564752407L1084.5,38.81179098069021L1108.6000000000001,38.07036375567334L1132.7,36.840072777237225L1156.8,35.75284941689492L1180.9,34.646702059834226L1205,33.983013645671306L1229.1,33.68951522923842L1253.2,32.71055406499083L1277.3,32.10574989550748L1301.4,31.84758202585758" style="fill: none;" fill="none"></path></g><g><path stroke="rgb(0, 119, 187)" stroke-width="2px" d="M168.7,422.94952528817294L192.8,360.20399060806403L216.9,315.63341495033706L241,286.8970799329087L265.09999999999997,265.79760776269046L289.2,249.90102594666837L313.3,237.64410726885288L337.4,228.0516036501914L361.5,220.72178709276997L385.6,215.1514985105895L409.7,209.7199141939688L433.8,205.27771083392832L457.9,202.5447751734336L482,199.3694885051168L506.09999999999997,195.6493791688878L530.1999999999999,192.1609634541813L554.3000000000001,189.85864881540618L578.4,187.01119149900063L602.5,185.09334988104314L626.6,182.47654781969695L650.7,180.06866508273814L674.8,178.06546692690767L698.9,176.44464445369695L723,174.91362499321312L747.1,173.7157756838165L771.2,171.88001025090668L795.3000000000001,170.08040397307508L819.4,169.0704504008675L843.5,167.4172820057444L867.6,166.00647261208843L891.7,164.32222001602852L915.8,163.2418587531758L939.9,161.96530427682026L964,160.92013258341356L988.1,159.45521264191567L1012.1999999999999,157.8083034429359L1036.3,156.12201044356422L1060.3999999999999,155.73857237483796L1084.5,154.39145358710854L1108.6000000000001,153.4435628057157L1132.7,152.31630036404786L1156.8,151.29089412574734L1180.9,150.25674191925293L1205,148.93810311303943L1229.1,148.49601853827127L1253.2,148.02133852934776L1277.3,146.68928433274985L1301.4,146.09948107887257" style="fill: none;" fill="none"></path></g><g><path stroke="rgb(255, 112, 67)" stroke-width="2px" d="M216.9,400.4241877822527L241,348.70755133310286L265.09999999999997,313.0354496371332L289.2,287.1696309145711L313.3,268.65161382926976L337.4,253.90312254927903L361.5,243.02678218495876L385.6,234.5322183775686L409.7,227.55985133136883L433.8,221.32111099250608L457.9,216.0268745749778L482,211.38540786678357L506.09999999999997,207.46669052582408L530.1999999999999,203.7718354989274L554.3000000000001,200.59514512723257L578.4,197.4499615016846L602.5,194.51570569483798L626.6,192.68538273364203L650.7,190.15599323056537L674.8,187.99255411882433L698.9,186.11854013119137L723,183.9468871708077L747.1,181.8934171666775L771.2,179.78866410432366L795.3000000000001,178.19419166943615L819.4,176.06807009629992L843.5,174.30372910559174L867.6,172.42478507488573L891.7,171.08798947809757L915.8,169.37828545301687L939.9,167.77650761550535L964,166.43143734042144L988.1,165.0135348592129L1012.1999999999999,163.84864947883435L1036.3,162.7133323824235L1060.3999999999999,161.05475562378868L1084.5,159.6232736351441L1108.6000000000001,158.27566622418317L1132.7,157.10057559807225L1156.8,155.64504139185718L1180.9,154.6146239524982L1205,153.38546323220976L1229.1,152.01967900785615L1253.2,150.88601464172004L1277.3,149.8916721259475L1301.4,148.78887099181887" style="fill: none;" fill="none"></path></g></g></g></g><g opacity="0.2"><g><g><g><path stroke="rgb(238, 51, 119)" stroke-width="2px" d="M120.5,211.36438747247055L144.6,174.71151981088846L168.7,159.52689945697782L192.8,138.40782576137116L216.9,114.14718826611835L241,108.9110821485519L265.09999999999997,114.496237039566L289.2,108.03846021493274L313.3,100.00971423255068L337.4,105.76939351028864L361.5,93.37728818257648L385.6,88.49023083845772L409.7,85.69771581225923L433.8,86.74486213260225L457.9,86.74486213260225L482,84.30139587985144L506.09999999999997,82.55602717399593L530.1999999999999,90.41012393103705L554.3000000000001,89.18845322397017L578.4,83.77782271967993L602.5,86.39581335915456L626.6,77.84349421660103L650.7,77.31992105642952L674.8,80.46160969469281L698.9,78.54171660211348L723,80.28708530796895L747.1,80.11256092124513L771.2,78.71624098883734L795.3000000000001,79.76338730918036L819.4,78.54171660211348L843.5,77.31992105642952L867.6,75.92360112402173L891.7,74.87632996506159L915.8,79.23981414900885L939.9,78.19254299004871L964,77.84349421660103L988.1,77.6689698298772L1012.1999999999999,74.52728119161391L1036.3,74.52728119161391L1060.3999999999999,77.84349421660103L1084.5,78.19254299004871L1108.6000000000001,76.09812551074556L1132.7,73.82918364471857L1156.8,74.87632996506159L1180.9,74.52728119161391L1205,80.46160969469281L1229.1,74.35275680489008L1253.2,77.31992105642952L1277.3,73.65465925799475L1301.4,77.31992105642952" style="fill: none;" fill="none"></path></g><g><path stroke="rgb(51, 187, 238)" stroke-width="2px" d="M120.5,321.3227407799826L144.6,182.3039548264609L168.7,155.11984659565815L192.8,138.5387814707226L216.9,124.66309401724068L241,114.01635739538399L265.09999999999997,107.86393582820888L289.2,98.48256342940859L313.3,94.29360363218518L337.4,89.36297761069403L361.5,85.0867556201087L385.6,81.4214938216739L409.7,77.71266334586672L433.8,74.3964503208796L457.9,72.0401214228736L482,69.68391736348468L506.09999999999997,68.3312909470664L530.1999999999999,65.93139337168799L554.3000000000001,64.40411772992873L578.4,61.13159822093115L602.5,59.69170961115094L626.6,59.21170512835182L650.7,57.85907871193354L674.8,56.85550106896295L698.9,53.19011443191102L723,53.015590045187196L747.1,51.05212827523548L771.2,50.48486159907446L795.3000000000001,46.90686199400159L819.4,46.95043067137397L843.5,47.64865305688643L867.6,45.641372932328125L891.7,43.80874203311072L915.8,44.94327538543275L939.9,43.76517335573829L964,41.845280263159L988.1,41.62706236044563L1012.1999999999999,40.62348471747504L1036.3,39.27085830105676L1060.3999999999999,37.56905827257367L1084.5,37.70001398192511L1108.6000000000001,36.95822291904023L1132.7,34.994636310471435L1156.8,34.122014376852235L1180.9,32.98748102453021L1205,32.98748102453021L1229.1,33.249267604615966L1253.2,31.242112318674696L1277.3,31.19854364130231L1301.4,31.460330221388066" style="fill: none;" fill="none"></path></g><g><path stroke="rgb(0, 119, 187)" stroke-width="2px" d="M144.6,420.6342326270208L168.7,330.92220624287916L192.8,286.415241824256L216.9,257.4420713716082L241,247.1443835231992L265.09999999999997,235.62502496772336L289.2,226.72365705172214L313.3,219.56753300295932L337.4,213.80785372522135L361.5,209.7935431533389L385.6,206.82637890179947L409.7,201.590272784233L433.8,198.62310853269358L457.9,198.44858414596976L482,194.60879796081113L506.09999999999997,190.07078939014005L530.1999999999999,186.9292255904939L554.3000000000001,186.4055275917053L578.4,182.74026579327048L602.5,182.21669263309897L626.6,178.5514308346642L650.7,176.45688851674393L674.8,175.06069342295325L698.9,174.0134222639931L723,172.6171023315853L747.1,171.91900478468997L771.2,169.12636491987436L795.3000000000001,167.3809962140189L819.4,167.5555206007427L843.5,164.93752996126807L867.6,163.89025880230793L891.7,161.7958413230048L915.8,161.62131693628095L939.9,160.05047261714932L964,159.35237507025397L988.1,157.2578327523337L1012.1999999999999,155.3379396597544L1036.3,153.59257095389893L1060.3999999999999,155.16341527303055L1084.5,152.37077540821494L1108.6000000000001,152.02172663476728L1132.7,150.62540670235947L1156.8,149.7527847687403L1180.9,148.70551360978016L1205,146.9601449039247L1229.1,147.83289167616098L1253.2,147.30931851598947L1277.3,144.6912030378977L1301.4,145.21477619806922" style="fill: none;" fill="none"></path></g><g><path stroke="rgb(255, 112, 67)" stroke-width="2px" d="M168.7,401.8279191520478L192.8,334.71842375066535L216.9,299.6800939242044L241,277.1648251348071L265.09999999999997,262.0237734582688L289.2,249.45701890521573L313.3,241.3411355680889L337.4,232.00333184666098L361.5,226.81091924508408L385.6,221.83659970760337L409.7,217.1240667502085L433.8,211.97522282600394L457.9,208.09174312485584L482,204.42648132642105L506.09999999999997,201.590272784233L530.1999999999999,198.23049108187354L554.3000000000001,195.83059350649512L578.4,192.73247354560422L602.5,190.11448290612955L626.6,189.93995851940574L650.7,186.36195891433286L674.8,184.7474210792117L698.9,183.3075324694315L723,180.68941699133975L747.1,178.81321741474994L771.2,176.63153774208487L795.3000000000001,175.8024844858381L819.4,172.87888891167105L843.5,171.65721820460422L867.6,169.60636940267347L891.7,169.08279624250196L915.8,166.81372953785785L939.9,165.37384092807767L964,164.41383196247943L988.1,162.88668115933731L1012.1999999999999,162.10132141908005L1036.3,161.0103567441304L1060.3999999999999,158.56689049137958L1084.5,157.47605065504706L1108.6000000000001,156.2542551093631L1132.7,155.3379396597544L1156.8,153.46174008316459L1180.9,153.06899779372742L1205,151.54172215196817L1229.1,149.97100267145365L1253.2,149.18551809257926L1277.3,148.400158352322L1301.4,147.13466929064853" style="fill: none;" fill="none"></path></g></g></g></g></g></g><g transform="translate(50, 377)" clip-path="url(#clip_1)"><clipPath id="clip_1"><rect width="1446" height="23"></rect></clipPath><g><g><line x1="0" y1="0" x2="0" y2="5" style="visibility: inherit;" fill="rgb(0, 0, 0)" stroke="rgb(204, 204, 204)" stroke-width="1px"></line><line x1="120.5" y1="0" x2="120.5" y2="5" style="visibility: inherit;" fill="rgb(0, 0, 0)" stroke="rgb(204, 204, 204)" stroke-width="1px"></line><line x1="241" y1="0" x2="241" y2="5" style="visibility: inherit;" fill="rgb(0, 0, 0)" stroke="rgb(204, 204, 204)" stroke-width="1px"></line><line x1="361.5" y1="0" x2="361.5" y2="5" style="visibility: inherit;" fill="rgb(0, 0, 0)" stroke="rgb(204, 204, 204)" stroke-width="1px"></line><line x1="482" y1="0" x2="482" y2="5" style="visibility: inherit;" fill="rgb(0, 0, 0)" stroke="rgb(204, 204, 204)" stroke-width="1px"></line><line x1="602.5" y1="0" x2="602.5" y2="5" style="visibility: inherit;" fill="rgb(0, 0, 0)" stroke="rgb(204, 204, 204)" stroke-width="1px"></line><line x1="723" y1="0" x2="723" y2="5" style="visibility: inherit;" fill="rgb(0, 0, 0)" stroke="rgb(204, 204, 204)" stroke-width="1px"></line><line x1="843.5" y1="0" x2="843.5" y2="5" style="visibility: inherit;" fill="rgb(0, 0, 0)" stroke="rgb(204, 204, 204)" stroke-width="1px"></line><line x1="964" y1="0" x2="964" y2="5" style="visibility: inherit;" fill="rgb(0, 0, 0)" stroke="rgb(204, 204, 204)" stroke-width="1px"></line><line x1="1084.5" y1="0" x2="1084.5" y2="5" style="visibility: inherit;" fill="rgb(0, 0, 0)" stroke="rgb(204, 204, 204)" stroke-width="1px"></line><line x1="1205" y1="0" x2="1205" y2="5" style="visibility: inherit;" fill="rgb(0, 0, 0)" stroke="rgb(204, 204, 204)" stroke-width="1px"></line><line x1="1325.5" y1="0" x2="1325.5" y2="5" style="visibility: inherit;" fill="rgb(0, 0, 0)" stroke="rgb(204, 204, 204)" stroke-width="1px"></line><line x1="1446" y1="0" x2="1446" y2="5" style="visibility: inherit;" fill="rgb(0, 0, 0)" stroke="rgb(204, 204, 204)" stroke-width="1px"></line></g><g transform="translate(0, 8)"><text x="0" y="0" dx="0em" dy="0.95em" style="text-anchor: middle; visibility: hidden; font-family: Roboto, sans-serif; font-size: 12px; font-weight: 200;" fill="rgb(255, 255, 255)" stroke="none" stroke-width="1px">-5</text><text x="120.5" y="0" dx="0em" dy="0.95em" style="text-anchor: middle; visibility: inherit; font-family: Roboto, sans-serif; font-size: 12px; font-weight: 200;" fill="rgb(255, 255, 255)" stroke="none" stroke-width="1px">0</text><text x="241" y="0" dx="0em" dy="0.95em" style="text-anchor: middle; visibility: inherit; font-family: Roboto, sans-serif; font-size: 12px; font-weight: 200;" fill="rgb(255, 255, 255)" stroke="none" stroke-width="1px">5</text><text x="361.5" y="0" dx="0em" dy="0.95em" style="text-anchor: middle; visibility: inherit; font-family: Roboto, sans-serif; font-size: 12px; font-weight: 200;" fill="rgb(255, 255, 255)" stroke="none" stroke-width="1px">10</text><text x="482" y="0" dx="0em" dy="0.95em" style="text-anchor: middle; visibility: inherit; font-family: Roboto, sans-serif; font-size: 12px; font-weight: 200;" fill="rgb(255, 255, 255)" stroke="none" stroke-width="1px">15</text><text x="602.5" y="0" dx="0em" dy="0.95em" style="text-anchor: middle; visibility: inherit; font-family: Roboto, sans-serif; font-size: 12px; font-weight: 200;" fill="rgb(255, 255, 255)" stroke="none" stroke-width="1px">20</text><text x="723" y="0" dx="0em" dy="0.95em" style="text-anchor: middle; visibility: inherit; font-family: Roboto, sans-serif; font-size: 12px; font-weight: 200;" fill="rgb(255, 255, 255)" stroke="none" stroke-width="1px">25</text><text x="843.5" y="0" dx="0em" dy="0.95em" style="text-anchor: middle; visibility: inherit; font-family: Roboto, sans-serif; font-size: 12px; font-weight: 200;" fill="rgb(255, 255, 255)" stroke="none" stroke-width="1px">30</text><text x="964" y="0" dx="0em" dy="0.95em" style="text-anchor: middle; visibility: inherit; font-family: Roboto, sans-serif; font-size: 12px; font-weight: 200;" fill="rgb(255, 255, 255)" stroke="none" stroke-width="1px">35</text><text x="1084.5" y="0" dx="0em" dy="0.95em" style="text-anchor: middle; visibility: inherit; font-family: Roboto, sans-serif; font-size: 12px; font-weight: 200;" fill="rgb(255, 255, 255)" stroke="none" stroke-width="1px">40</text><text x="1205" y="0" dx="0em" dy="0.95em" style="text-anchor: middle; visibility: inherit; font-family: Roboto, sans-serif; font-size: 12px; font-weight: 200;" fill="rgb(255, 255, 255)" stroke="none" stroke-width="1px">45</text><text x="1325.5" y="0" dx="0em" dy="0.95em" style="text-anchor: middle; visibility: inherit; font-family: Roboto, sans-serif; font-size: 12px; font-weight: 200;" fill="rgb(255, 255, 255)" stroke="none" stroke-width="1px">50</text><text x="1446" y="0" dx="0em" dy="0.95em" style="text-anchor: middle; visibility: hidden; font-family: Roboto, sans-serif; font-size: 12px; font-weight: 200;" fill="rgb(255, 255, 255)" stroke="none" stroke-width="1px">55</text></g><line x1="0" y1="0" x2="1446" y2="0" fill="rgb(0, 0, 0)" stroke="rgb(204, 204, 204)" stroke-width="1px"></line></g></g></g></g></svg>