<svg viewBox="0 0 1496 400" xmlns="http://www.w3.org/2000/svg"><g><g><g><g><g><line x1="50" y1="377" x2="45" y2="377" style="visibility: inherit;" fill="rgb(0, 0, 0)" stroke="rgb(204, 204, 204)" stroke-width="1px"></line><line x1="50" y1="329.87499999999994" x2="45" y2="329.87499999999994" style="visibility: inherit;" fill="rgb(0, 0, 0)" stroke="rgb(204, 204, 204)" stroke-width="1px"></line><line x1="50" y1="282.7500000000004" x2="45" y2="282.7500000000004" style="visibility: inherit;" fill="rgb(0, 0, 0)" stroke="rgb(204, 204, 204)" stroke-width="1px"></line><line x1="50" y1="235.62500000000034" x2="45" y2="235.62500000000034" style="visibility: inherit;" fill="rgb(0, 0, 0)" stroke="rgb(204, 204, 204)" stroke-width="1px"></line><line x1="50" y1="188.50000000000026" x2="45" y2="188.50000000000026" style="visibility: inherit;" fill="rgb(0, 0, 0)" stroke="rgb(204, 204, 204)" stroke-width="1px"></line><line x1="50" y1="141.3750000000002" x2="45" y2="141.3750000000002" style="visibility: inherit;" fill="rgb(0, 0, 0)" stroke="rgb(204, 204, 204)" stroke-width="1px"></line><line x1="50" y1="94.25000000000013" x2="45" y2="94.25000000000013" style="visibility: inherit;" fill="rgb(0, 0, 0)" stroke="rgb(204, 204, 204)" stroke-width="1px"></line><line x1="50" y1="47.125000000000085" x2="45" y2="47.125000000000085" style="visibility: inherit;" fill="rgb(0, 0, 0)" stroke="rgb(204, 204, 204)" stroke-width="1px"></line><line x1="50" y1="0" x2="45" y2="0" style="visibility: inherit;" fill="rgb(0, 0, 0)" stroke="rgb(204, 204, 204)" stroke-width="1px"></line></g><g transform="translate(40, 0)"><text x="0" y="377" dx="0em" dy="0.3em" style="text-anchor: end; visibility: hidden; font-family: Roboto, sans-serif; font-size: 12px; font-weight: 200;" fill="rgb(255, 255, 255)" stroke="none" stroke-width="1px">0.92</text><text x="0" y="329.87499999999994" dx="0em" dy="0.3em" style="text-anchor: end; visibility: inherit; font-family: Roboto, sans-serif; font-size: 12px; font-weight: 200;" fill="rgb(255, 255, 255)" stroke="none" stroke-width="1px">0.93</text><text x="0" y="282.7500000000004" dx="0em" dy="0.3em" style="text-anchor: end; visibility: inherit; font-family: Roboto, sans-serif; font-size: 12px; font-weight: 200;" fill="rgb(255, 255, 255)" stroke="none" stroke-width="1px">0.94</text><text x="0" y="235.62500000000034" dx="0em" dy="0.3em" style="text-anchor: end; visibility: inherit; font-family: Roboto, sans-serif; font-size: 12px; font-weight: 200;" fill="rgb(255, 255, 255)" stroke="none" stroke-width="1px">0.95</text><text x="0" y="188.50000000000026" dx="0em" dy="0.3em" style="text-anchor: end; visibility: inherit; font-family: Roboto, sans-serif; font-size: 12px; font-weight: 200;" fill="rgb(255, 255, 255)" stroke="none" stroke-width="1px">0.96</text><text x="0" y="141.3750000000002" dx="0em" dy="0.3em" style="text-anchor: end; visibility: inherit; font-family: Roboto, sans-serif; font-size: 12px; font-weight: 200;" fill="rgb(255, 255, 255)" stroke="none" stroke-width="1px">0.97</text><text x="0" y="94.25000000000013" dx="0em" dy="0.3em" style="text-anchor: end; visibility: inherit; font-family: Roboto, sans-serif; font-size: 12px; font-weight: 200;" fill="rgb(255, 255, 255)" stroke="none" stroke-width="1px">0.98</text><text x="0" y="47.125000000000085" dx="0em" dy="0.3em" style="text-anchor: end; visibility: inherit; font-family: Roboto, sans-serif; font-size: 12px; font-weight: 200;" fill="rgb(255, 255, 255)" stroke="none" stroke-width="1px">0.99</text><text x="0" y="0" dx="0em" dy="0.3em" style="text-anchor: end; visibility: hidden; font-family: Roboto, sans-serif; font-size: 12px; font-weight: 200;" fill="rgb(255, 255, 255)" stroke="none" stroke-width="1px">1</text></g><line x1="50" y1="0" x2="50" y2="377" fill="rgb(0, 0, 0)" stroke="rgb(204, 204, 204)" stroke-width="1px"></line></g></g><g transform="translate(50, 0)" clip-path="url(#clip_0)"><clipPath id="clip_0"><rect width="1446" height="377"></rect></clipPath><g><g><g><line x1="0" y1="0" x2="0" y2="377" fill="rgb(0, 0, 0)" stroke="rgb(189, 189, 189)" stroke-width="1px" opacity="0.25"></line><line x1="120.5" y1="0" x2="120.5" y2="377" fill="rgb(0, 0, 0)" stroke="rgb(189, 189, 189)" stroke-width="1px" opacity="0.25"></line><line x1="241" y1="0" x2="241" y2="377" fill="rgb(0, 0, 0)" stroke="rgb(189, 189, 189)" stroke-width="1px" opacity="0.25"></line><line x1="361.5" y1="0" x2="361.5" y2="377" fill="rgb(0, 0, 0)" stroke="rgb(189, 189, 189)" stroke-width="1px" opacity="0.25"></line><line x1="482" y1="0" x2="482" y2="377" fill="rgb(0, 0, 0)" stroke="rgb(189, 189, 189)" stroke-width="1px" opacity="0.25"></line><line x1="602.5" y1="0" x2="602.5" y2="377" fill="rgb(0, 0, 0)" stroke="rgb(189, 189, 189)" stroke-width="1px" opacity="0.25"></line><line x1="723" y1="0" x2="723" y2="377" fill="rgb(0, 0, 0)" stroke="rgb(189, 189, 189)" stroke-width="1px" opacity="0.25"></line><line x1="843.5" y1="0" x2="843.5" y2="377" fill="rgb(0, 0, 0)" stroke="rgb(189, 189, 189)" stroke-width="1px" opacity="0.25"></line><line x1="964" y1="0" x2="964" y2="377" fill="rgb(0, 0, 0)" stroke="rgb(189, 189, 189)" stroke-width="1px" opacity="0.25"></line><line x1="1084.5" y1="0" x2="1084.5" y2="377" fill="rgb(0, 0, 0)" stroke="rgb(189, 189, 189)" stroke-width="1px" opacity="0.25"></line><line x1="1205" y1="0" x2="1205" y2="377" fill="rgb(0, 0, 0)" stroke="rgb(189, 189, 189)" stroke-width="1px" opacity="0.25"></line><line x1="1325.5" y1="0" x2="1325.5" y2="377" fill="rgb(0, 0, 0)" stroke="rgb(189, 189, 189)" stroke-width="1px" opacity="0.25"></line><line x1="1446" y1="0" x2="1446" y2="377" fill="rgb(0, 0, 0)" stroke="rgb(189, 189, 189)" stroke-width="1px" opacity="0.25"></line></g><g><line x1="0" y1="377" x2="1446" y2="377" fill="rgb(0, 0, 0)" stroke="rgb(189, 189, 189)" stroke-width="1px" opacity="0.25"></line><line x1="0" y1="329.87499999999994" x2="1446" y2="329.87499999999994" fill="rgb(0, 0, 0)" stroke="rgb(189, 189, 189)" stroke-width="1px" opacity="0.25"></line><line x1="0" y1="282.7500000000004" x2="1446" y2="282.7500000000004" fill="rgb(0, 0, 0)" stroke="rgb(189, 189, 189)" stroke-width="1px" opacity="0.25"></line><line x1="0" y1="235.62500000000034" x2="1446" y2="235.62500000000034" fill="rgb(0, 0, 0)" stroke="rgb(189, 189, 189)" stroke-width="1px" opacity="0.25"></line><line x1="0" y1="188.50000000000026" x2="1446" y2="188.50000000000026" fill="rgb(0, 0, 0)" stroke="rgb(189, 189, 189)" stroke-width="1px" opacity="0.25"></line><line x1="0" y1="141.3750000000002" x2="1446" y2="141.3750000000002" fill="rgb(0, 0, 0)" stroke="rgb(189, 189, 189)" stroke-width="1px" opacity="0.25"></line><line x1="0" y1="94.25000000000013" x2="1446" y2="94.25000000000013" fill="rgb(0, 0, 0)" stroke="rgb(189, 189, 189)" stroke-width="1px" opacity="0.25"></line><line x1="0" y1="47.125000000000085" x2="1446" y2="47.125000000000085" fill="rgb(0, 0, 0)" stroke="rgb(189, 189, 189)" stroke-width="1px" opacity="0.25"></line><line x1="0" y1="0" x2="1446" y2="0" fill="rgb(0, 0, 0)" stroke="rgb(189, 189, 189)" stroke-width="1px" opacity="0.25"></line></g></g></g><g><g><line x1="0" y1="4712.500000000003" x2="1446" y2="4712.500000000003" fill="rgb(0, 0, 0)" stroke="rgb(153, 153, 153)" stroke-width="1.5px"></line></g></g><g><g><line x1="120.5" y1="0" x2="120.5" y2="377" fill="rgb(0, 0, 0)" stroke="rgb(153, 153, 153)" stroke-width="1.5px"></line></g></g><g><g><g><g><g><path stroke="rgb(51, 187, 238)" stroke-width="2px" d="M120.5,503.84478867053963L144.6,364.18782770633663L168.7,334.0585529348072L192.8,300.9142609997925L216.9,345.6672700208609L241,309.5472308978139L265.09999999999997,285.75266473133286L289.2,292.0401523125984L313.3,282.2563138874103L337.4,300.7875382852638L361.5,274.78528196975475L385.6,250.58595566344582L409.7,239.87511125706482L433.8,276.21767671540374L457.9,272.8598482779438L482,258.5901936035047L506.09999999999997,335.6558622681325L530.1999999999999,309.6213103332428L554.3000000000001,278.92132194608683L578.4,255.78985841872137L602.5,245.52448034886115L626.6,241.87880659139125L650.7,231.83721184403078L674.8,232.5668809398075L698.9,242.42969799171485L723,238.13700210815574L747.1,233.9905558214565L771.2,236.05811712072082L795.3000000000001,240.1261739039416L819.4,239.11108632916398L843.5,250.5974743703162L867.6,273.9830979802976L891.7,251.88522466392286L915.8,265.64489957399354L939.9,266.0465449563598L964,270.6858838364346L988.1,254.14817679213135L1012.1999999999999,255.692703719431L1036.3,254.10604398820556L1060.3999999999999,240.7444654010362L1084.5,238.69670170993044L1108.6000000000001,239.8242350729784L1132.7,236.1024034794837L1156.8,231.19896905198246L1180.9,232.96940390232484L1205,228.69076915930842L1229.1,228.63696419209714L1253.2,232.84596087352196L1277.3,245.4246376862777L1301.4,241.50480508268615" style="fill: none;" fill="none"></path></g><g><path stroke="rgb(204, 51, 17)" stroke-width="2px" d="M168.7,460.0578704658816L192.8,374.198013711173L216.9,321.75993259109475L241,291.0572279896888L265.09999999999997,269.5790062659201L289.2,251.451677046913L313.3,236.32899564183134L337.4,226.28677529164963L361.5,220.18215703411923L385.6,213.81802047886097L409.7,204.85718887744676L433.8,199.01660061223913L457.9,196.6545417774413L482,199.9126199169854L506.09999999999997,191.57613749241253L530.1999999999999,187.87129496556972L554.3000000000001,183.88129463084175L578.4,183.13687815681118L602.5,177.50642062440664L626.6,174.44237318662016L650.7,171.54367033480526L674.8,167.52668452538185L698.9,165.46997428694516L723,161.32989118048226L747.1,158.88517004107058L771.2,158.08583897054925L795.3000000000001,157.5670288183064L819.4,154.62461860563434L843.5,153.9586766765492L867.6,150.14262790147177L891.7,147.22459865382928L915.8,145.23817326559453L939.9,144.085642234145L964,141.86250358652364L988.1,139.38979260482708L1012.1999999999999,135.90333014837714L1036.3,135.3822845215624L1060.3999999999999,134.08790129220444L1084.5,132.9578032949201L1108.6000000000001,128.98100887695094L1132.7,129.02977213240592L1156.8,128.15581020683922L1180.9,128.3382568179019L1205,128.84040465467996L1229.1,128.3955454260765L1253.2,127.02912625254052L1277.3,125.22751889572643L1301.4,123.7537622567663" style="fill: none;" fill="none"></path></g><g><path stroke="rgb(255, 112, 67)" stroke-width="2px" d="M120.5,378.96360158920305L144.6,334.0475059114398L168.7,284.83370469541035L192.8,261.858517076711L216.9,240.77164215565057L241,226.0896372536815L265.09999999999997,219.8323207987174L289.2,203.41061953560558L313.3,196.11621342260062L337.4,196.52806638528807L361.5,187.47191332527092L385.6,178.91077754626923L409.7,171.2693757285749L433.8,178.00987607355702L457.9,178.12181100836824L482,168.91840389326083L506.09999999999997,164.6549222806499L530.1999999999999,167.7527967922174L554.3000000000001,165.84113892767638L578.4,167.0506088481042L602.5,171.70337205845948L626.6,175.43752110980498L650.7,168.095840451965L674.8,173.74419560461754L698.9,165.1947907359906L723,165.72021256616608L747.1,165.24999219171906L771.2,158.21331294189918L795.3000000000001,161.53132621598115L819.4,156.9246607022903L843.5,160.4439902203885L867.6,171.6664354731011L891.7,165.99031872641868L915.8,159.28591313877521L939.9,163.11742922049385L964,162.74589097344116L988.1,161.58042397876417L1012.1999999999999,159.1532399968367L1036.3,161.93820928455344L1060.3999999999999,159.99631133368862L1084.5,166.6853317474806L1108.6000000000001,163.78701650095428L1132.7,157.17845989866407L1156.8,156.35498960959552L1180.9,156.48919522851725L1205,159.5543103225358L1229.1,156.8379558208961L1253.2,157.72151899836672L1277.3,160.13663263623553L1301.4,157.03027726114053" style="fill: none;" fill="none"></path></g><g><path stroke="rgb(187, 187, 187)" stroke-width="2px" d="M144.6,464.8562138900163L168.7,363.4295706846276L192.8,300.49987229080364L216.9,255.41431015508653L241,221.9835953815979L265.09999999999997,198.46758470416142L289.2,177.91655451778945L313.3,163.03213029427044L337.4,149.81251505915674L361.5,139.84313943114012L385.6,130.93290710642196L409.7,123.3972015660241L433.8,116.681237859916L457.9,111.39775038942867L482,105.24381430811759L506.09999999999997,99.70648754615453L530.1999999999999,95.67779585343456L554.3000000000001,91.4541805093399L578.4,87.78130658615628L602.5,84.39949036645997L626.6,81.03531898314326L650.7,77.17106599403859L674.8,74.65613668861316L698.9,72.5188971536129L723,68.91957360316603L747.1,66.83851945677299L771.2,64.72587973247788L795.3000000000001,62.790684525629366L819.4,59.94098786563091L843.5,57.36716208918331L867.6,54.762574930702876L891.7,51.58977904649241L915.8,50.15731747058654L939.9,48.55169260786077L964,46.29241794572213L988.1,45.408069010423375L1012.1999999999999,42.9531597498373L1036.3,41.16607030251735L1060.3999999999999,40.3687487235088L1084.5,39.6939596641862L1108.6000000000001,36.383030479077384L1132.7,35.14262089986925L1156.8,34.08423125641726L1180.9,31.87836563502968L1205,30.633382236375002L1229.1,30.08278830968093L1253.2,27.90666803189835L1277.3,26.247527804761912L1301.4,25.448439780938095" style="fill: none;" fill="none"></path></g></g></g></g><g opacity="0.2"><g><g><g><path stroke="rgb(51, 187, 238)" stroke-width="2px" d="M120.5,503.8447886705401L144.6,280.3936511278154L168.7,305.13444915413874L192.8,261.93657368421566L216.9,404.0967985987665L241,259.58021357655537L265.09999999999997,251.72605440020573L289.2,301.2073695659639L313.3,267.82705262303364L337.4,328.304246813059L361.5,236.01773604750645L385.6,214.41865786910066L409.7,223.84381741285333L433.8,330.6603260338308L457.9,267.82705262303364L482,237.19577565789234L506.09999999999997,451.2217536568644L530.1999999999999,270.57609260082256L554.3000000000001,232.8760161995889L578.4,221.0947774350644L602.5,230.12697622179994L626.6,236.41041591763508L650.7,216.77501797676095L674.8,233.66137593984615L698.9,257.2238534688951L723,231.697976589203L747.1,227.77089700102815L771.2,239.159455895424L795.3000000000001,246.22825533151638L819.4,237.58845552802097L843.5,267.82705262303364L867.6,309.06152874231356L891.7,218.7384173274041L915.8,286.2844109535219L939.9,266.64901301264774L964,277.644892036915L988.1,229.34161648154267L1012.1999999999999,258.00949409604084L1036.3,251.72605440020573L1060.3999999999999,220.70209756493577L1084.5,235.62505617737781L1108.6000000000001,241.5155351161958L1132.7,230.5196560919286L1156.8,223.84381741285333L1180.9,235.62505617737781L1205,222.2728170454503L1229.1,228.5562567412854L1253.2,239.159455895424L1277.3,264.29265290498745L1301.4,235.62505617737781" style="fill: none;" fill="none"></path></g><g><path stroke="rgb(204, 51, 17)" stroke-width="2px" d="M120.5,1028.0123054981236L144.6,368.16406250000017L168.7,310.7305586338045L192.8,273.22682216763513L216.9,253.29677388072025L241,248.58433455228817L265.09999999999997,238.86480554938328L289.2,225.02185702323922L313.3,214.02597799897202L337.4,211.3752484321595L361.5,211.08059808611878L385.6,204.30644899606713L409.7,191.44520014524468L433.8,190.2671605348588L457.9,193.11423003673562L482,204.79743927717217L506.09999999999997,179.07494157552728L530.1999999999999,182.31497183442124L554.3000000000001,177.89690196514138L578.4,182.02032148838052L602.5,169.06104311347016L626.6,169.84640285372743L650.7,167.1956732869149L674.8,161.50125339627274L698.9,162.38492354750642L723,155.11978417634973L747.1,155.21809458732614L771.2,156.88684359192857L795.3000000000001,156.78881406784066L819.4,150.21100491285333L843.5,152.95976400375375L867.6,144.41855549812325L891.7,142.84755513072022L915.8,142.25853532552728L939.9,142.3568457365037L964,138.52779567241677L988.1,135.68072617053994L1012.1999999999999,130.67363649606713L1036.3,134.60071608424195L1060.3999999999999,132.14632645249375L1084.5,131.26265630126008L1108.6000000000001,123.01581725478177L1132.7,129.1029170155526L1156.8,126.84486731886872L1180.9,128.61192673444756L1205,129.59362640976914L1229.1,127.72825658321389L1253.2,124.97949749231343L1277.3,122.52510786056523L1301.4,121.54312729835515" style="fill: none;" fill="none"></path></g><g><path stroke="rgb(255, 112, 67)" stroke-width="2px" d="M120.5,378.96360158920305L144.6,307.0978485047819L168.7,237.58845552802097L192.8,234.83969643712055L216.9,213.24061825871476L241,205.77913895249375L265.09999999999997,210.88425815105447L289.2,179.4676214456559L313.3,185.3583812713624L337.4,197.13962003588685L361.5,173.96982237696656L385.6,166.11566320061692L409.7,159.8322235047818L433.8,188.10742124915132L457.9,178.28958183527L482,155.11978417634973L506.09999999999997,158.26150402426728L530.1999999999999,172.39882200956353L554.3000000000001,162.97394335269937L578.4,168.86470317840585L602.5,178.68226170539864L626.6,181.03862181305894L650.7,157.0834644138814L674.8,182.21666142344483L698.9,152.3707441985608L723,166.50834307074555L747.1,164.5446628332139L771.2,147.65830487012872L795.3000000000001,166.50834307074555L819.4,150.014664977789L843.5,165.7229833304883L867.6,188.50010111927995L891.7,157.47614428401002L915.8,149.22930523753175L939.9,168.86470317840585L964,162.1885836124421L988.1,159.8322235047818L1012.1999999999999,155.51246404647836L1036.3,166.11566320061692L1060.3999999999999,157.0834644138814L1084.5,176.7188623547555L1108.6000000000001,159.43954363465318L1132.7,147.26562500000009L1156.8,155.11978417634973L1180.9,156.69050365686425L1205,164.15198296308526L1229.1,152.76342406868943L1253.2,159.04686376452455L1277.3,163.75930309295663L1301.4,152.3707441985608" style="fill: none;" fill="none"></path></g><g><path stroke="rgb(187, 187, 187)" stroke-width="2px" d="M120.5,692.933909595013L144.6,328.0095964670183L168.7,266.0599932074548L192.8,226.49454697966584L216.9,196.5506002306939L241,175.7368817925454L265.09999999999997,164.83931317925462L289.2,147.95295521616944L313.3,141.08049571514138L337.4,130.1829271018506L361.5,124.97949749231343L385.6,117.61604771018033L409.7,112.11824864149098L433.8,106.62044957280163L457.9,103.47872972488408L482,96.01725041866307L506.09999999999997,91.40284061431889L530.1999999999999,89.63578119874005L554.3000000000001,85.11940091848378L578.4,82.27233141660695L602.5,79.3269515037537L626.6,75.98917260766034L650.7,71.37476280331616L674.8,70.88377252221112L698.9,69.31305304169659L723,63.52060362696652L747.1,63.716943562030835L771.2,61.55692338943486L795.3000000000001,59.88789349794392L819.4,55.66644445061688L843.5,53.5064242780209L867.6,50.855694711208386L891.7,46.83058559894566L915.8,48.008625209331555L939.9,46.1432553827763L964,42.90350601077084L988.1,44.081545621156735L1012.1999999999999,39.2707958817482L1036.3,38.485436141490936L1060.3999999999999,39.172766357660294L1084.5,38.68177607655525L1108.6000000000001,31.41663670539856L1132.7,33.28200653195381L1156.8,32.49664679169655L1180.9,28.56956720352173L1205,28.765907138586044L1229.1,29.256897419691086L1253.2,24.64248761534691L1277.3,23.758817464113235L1301.4,24.249807745218277" style="fill: none;" fill="none"></path></g></g></g></g></g></g><g transform="translate(50, 377)" clip-path="url(#clip_1)"><clipPath id="clip_1"><rect width="1446" height="23"></rect></clipPath><g><g><line x1="0" y1="0" x2="0" y2="5" style="visibility: inherit;" fill="rgb(0, 0, 0)" stroke="rgb(204, 204, 204)" stroke-width="1px"></line><line x1="120.5" y1="0" x2="120.5" y2="5" style="visibility: inherit;" fill="rgb(0, 0, 0)" stroke="rgb(204, 204, 204)" stroke-width="1px"></line><line x1="241" y1="0" x2="241" y2="5" style="visibility: inherit;" fill="rgb(0, 0, 0)" stroke="rgb(204, 204, 204)" stroke-width="1px"></line><line x1="361.5" y1="0" x2="361.5" y2="5" style="visibility: inherit;" fill="rgb(0, 0, 0)" stroke="rgb(204, 204, 204)" stroke-width="1px"></line><line x1="482" y1="0" x2="482" y2="5" style="visibility: inherit;" fill="rgb(0, 0, 0)" stroke="rgb(204, 204, 204)" stroke-width="1px"></line><line x1="602.5" y1="0" x2="602.5" y2="5" style="visibility: inherit;" fill="rgb(0, 0, 0)" stroke="rgb(204, 204, 204)" stroke-width="1px"></line><line x1="723" y1="0" x2="723" y2="5" style="visibility: inherit;" fill="rgb(0, 0, 0)" stroke="rgb(204, 204, 204)" stroke-width="1px"></line><line x1="843.5" y1="0" x2="843.5" y2="5" style="visibility: inherit;" fill="rgb(0, 0, 0)" stroke="rgb(204, 204, 204)" stroke-width="1px"></line><line x1="964" y1="0" x2="964" y2="5" style="visibility: inherit;" fill="rgb(0, 0, 0)" stroke="rgb(204, 204, 204)" stroke-width="1px"></line><line x1="1084.5" y1="0" x2="1084.5" y2="5" style="visibility: inherit;" fill="rgb(0, 0, 0)" stroke="rgb(204, 204, 204)" stroke-width="1px"></line><line x1="1205" y1="0" x2="1205" y2="5" style="visibility: inherit;" fill="rgb(0, 0, 0)" stroke="rgb(204, 204, 204)" stroke-width="1px"></line><line x1="1325.5" y1="0" x2="1325.5" y2="5" style="visibility: inherit;" fill="rgb(0, 0, 0)" stroke="rgb(204, 204, 204)" stroke-width="1px"></line><line x1="1446" y1="0" x2="1446" y2="5" style="visibility: inherit;" fill="rgb(0, 0, 0)" stroke="rgb(204, 204, 204)" stroke-width="1px"></line></g><g transform="translate(0, 8)"><text x="0" y="0" dx="0em" dy="0.95em" style="text-anchor: middle; visibility: hidden; font-family: Roboto, sans-serif; font-size: 12px; font-weight: 200;" fill="rgb(255, 255, 255)" stroke="none" stroke-width="1px">-5</text><text x="120.5" y="0" dx="0em" dy="0.95em" style="text-anchor: middle; visibility: inherit; font-family: Roboto, sans-serif; font-size: 12px; font-weight: 200;" fill="rgb(255, 255, 255)" stroke="none" stroke-width="1px">0</text><text x="241" y="0" dx="0em" dy="0.95em" style="text-anchor: middle; visibility: inherit; font-family: Roboto, sans-serif; font-size: 12px; font-weight: 200;" fill="rgb(255, 255, 255)" stroke="none" stroke-width="1px">5</text><text x="361.5" y="0" dx="0em" dy="0.95em" style="text-anchor: middle; visibility: inherit; font-family: Roboto, sans-serif; font-size: 12px; font-weight: 200;" fill="rgb(255, 255, 255)" stroke="none" stroke-width="1px">10</text><text x="482" y="0" dx="0em" dy="0.95em" style="text-anchor: middle; visibility: inherit; font-family: Roboto, sans-serif; font-size: 12px; font-weight: 200;" fill="rgb(255, 255, 255)" stroke="none" stroke-width="1px">15</text><text x="602.5" y="0" dx="0em" dy="0.95em" style="text-anchor: middle; visibility: inherit; font-family: Roboto, sans-serif; font-size: 12px; font-weight: 200;" fill="rgb(255, 255, 255)" stroke="none" stroke-width="1px">20</text><text x="723" y="0" dx="0em" dy="0.95em" style="text-anchor: middle; visibility: inherit; font-family: Roboto, sans-serif; font-size: 12px; font-weight: 200;" fill="rgb(255, 255, 255)" stroke="none" stroke-width="1px">25</text><text x="843.5" y="0" dx="0em" dy="0.95em" style="text-anchor: middle; visibility: inherit; font-family: Roboto, sans-serif; font-size: 12px; font-weight: 200;" fill="rgb(255, 255, 255)" stroke="none" stroke-width="1px">30</text><text x="964" y="0" dx="0em" dy="0.95em" style="text-anchor: middle; visibility: inherit; font-family: Roboto, sans-serif; font-size: 12px; font-weight: 200;" fill="rgb(255, 255, 255)" stroke="none" stroke-width="1px">35</text><text x="1084.5" y="0" dx="0em" dy="0.95em" style="text-anchor: middle; visibility: inherit; font-family: Roboto, sans-serif; font-size: 12px; font-weight: 200;" fill="rgb(255, 255, 255)" stroke="none" stroke-width="1px">40</text><text x="1205" y="0" dx="0em" dy="0.95em" style="text-anchor: middle; visibility: inherit; font-family: Roboto, sans-serif; font-size: 12px; font-weight: 200;" fill="rgb(255, 255, 255)" stroke="none" stroke-width="1px">45</text><text x="1325.5" y="0" dx="0em" dy="0.95em" style="text-anchor: middle; visibility: inherit; font-family: Roboto, sans-serif; font-size: 12px; font-weight: 200;" fill="rgb(255, 255, 255)" stroke="none" stroke-width="1px">50</text><text x="1446" y="0" dx="0em" dy="0.95em" style="text-anchor: middle; visibility: hidden; font-family: Roboto, sans-serif; font-size: 12px; font-weight: 200;" fill="rgb(255, 255, 255)" stroke="none" stroke-width="1px">55</text></g><line x1="0" y1="0" x2="1446" y2="0" fill="rgb(0, 0, 0)" stroke="rgb(204, 204, 204)" stroke-width="1px"></line></g></g></g></g></svg>