<svg viewBox="0 0 1496 400" xmlns="http://www.w3.org/2000/svg"><g><g><g><g><g><line x1="60" y1="377" x2="55" y2="377" style="visibility: inherit;" fill="rgb(0, 0, 0)" stroke="rgb(204, 204, 204)" stroke-width="1px"></line><line x1="60" y1="335.11111111111103" x2="55" y2="335.11111111111103" style="visibility: inherit;" fill="rgb(0, 0, 0)" stroke="rgb(204, 204, 204)" stroke-width="1px"></line><line x1="60" y1="293.222222222222" x2="55" y2="293.222222222222" style="visibility: inherit;" fill="rgb(0, 0, 0)" stroke="rgb(204, 204, 204)" stroke-width="1px"></line><line x1="60" y1="251.33333333333303" x2="55" y2="251.33333333333303" style="visibility: inherit;" fill="rgb(0, 0, 0)" stroke="rgb(204, 204, 204)" stroke-width="1px"></line><line x1="60" y1="209.44444444444403" x2="55" y2="209.44444444444403" style="visibility: inherit;" fill="rgb(0, 0, 0)" stroke="rgb(204, 204, 204)" stroke-width="1px"></line><line x1="60" y1="167.55555555555503" x2="55" y2="167.55555555555503" style="visibility: inherit;" fill="rgb(0, 0, 0)" stroke="rgb(204, 204, 204)" stroke-width="1px"></line><line x1="60" y1="125.66666666666605" x2="55" y2="125.66666666666605" style="visibility: inherit;" fill="rgb(0, 0, 0)" stroke="rgb(204, 204, 204)" stroke-width="1px"></line><line x1="60" y1="83.77777777777706" x2="55" y2="83.77777777777706" style="visibility: inherit;" fill="rgb(0, 0, 0)" stroke="rgb(204, 204, 204)" stroke-width="1px"></line><line x1="60" y1="41.88888888888807" x2="55" y2="41.88888888888807" style="visibility: inherit;" fill="rgb(0, 0, 0)" stroke="rgb(204, 204, 204)" stroke-width="1px"></line></g><g transform="translate(50, 0)"><text x="0" y="377" dx="0em" dy="0.3em" style="text-anchor: end; visibility: hidden; font-family: Roboto, sans-serif; font-size: 12px; font-weight: 200;" fill="rgb(255, 255, 255)" stroke="none" stroke-width="1px">0.96</text><text x="0" y="335.11111111111103" dx="0em" dy="0.3em" style="text-anchor: end; visibility: inherit; font-family: Roboto, sans-serif; font-size: 12px; font-weight: 200;" fill="rgb(255, 255, 255)" stroke="none" stroke-width="1px">0.965</text><text x="0" y="293.222222222222" dx="0em" dy="0.3em" style="text-anchor: end; visibility: inherit; font-family: Roboto, sans-serif; font-size: 12px; font-weight: 200;" fill="rgb(255, 255, 255)" stroke="none" stroke-width="1px">0.97</text><text x="0" y="251.33333333333303" dx="0em" dy="0.3em" style="text-anchor: end; visibility: inherit; font-family: Roboto, sans-serif; font-size: 12px; font-weight: 200;" fill="rgb(255, 255, 255)" stroke="none" stroke-width="1px">0.975</text><text x="0" y="209.44444444444403" dx="0em" dy="0.3em" style="text-anchor: end; visibility: inherit; font-family: Roboto, sans-serif; font-size: 12px; font-weight: 200;" fill="rgb(255, 255, 255)" stroke="none" stroke-width="1px">0.98</text><text x="0" y="167.55555555555503" dx="0em" dy="0.3em" style="text-anchor: end; visibility: inherit; font-family: Roboto, sans-serif; font-size: 12px; font-weight: 200;" fill="rgb(255, 255, 255)" stroke="none" stroke-width="1px">0.985</text><text x="0" y="125.66666666666605" dx="0em" dy="0.3em" style="text-anchor: end; visibility: inherit; font-family: Roboto, sans-serif; font-size: 12px; font-weight: 200;" fill="rgb(255, 255, 255)" stroke="none" stroke-width="1px">0.99</text><text x="0" y="83.77777777777706" dx="0em" dy="0.3em" style="text-anchor: end; visibility: inherit; font-family: Roboto, sans-serif; font-size: 12px; font-weight: 200;" fill="rgb(255, 255, 255)" stroke="none" stroke-width="1px">0.995</text><text x="0" y="41.88888888888807" dx="0em" dy="0.3em" style="text-anchor: end; visibility: inherit; font-family: Roboto, sans-serif; font-size: 12px; font-weight: 200;" fill="rgb(255, 255, 255)" stroke="none" stroke-width="1px">1</text></g><line x1="60" y1="0" x2="60" y2="377" fill="rgb(0, 0, 0)" stroke="rgb(204, 204, 204)" stroke-width="1px"></line></g></g><g transform="translate(60, 0)" clip-path="url(#clip_0)"><clipPath id="clip_0"><rect width="1436" height="377"></rect></clipPath><g><g><g><line x1="0" y1="0" x2="0" y2="377" fill="rgb(0, 0, 0)" stroke="rgb(189, 189, 189)" stroke-width="1px" opacity="0.25"></line><line x1="119.66666666666666" y1="0" x2="119.66666666666666" y2="377" fill="rgb(0, 0, 0)" stroke="rgb(189, 189, 189)" stroke-width="1px" opacity="0.25"></line><line x1="239.33333333333331" y1="0" x2="239.33333333333331" y2="377" fill="rgb(0, 0, 0)" stroke="rgb(189, 189, 189)" stroke-width="1px" opacity="0.25"></line><line x1="359" y1="0" x2="359" y2="377" fill="rgb(0, 0, 0)" stroke="rgb(189, 189, 189)" stroke-width="1px" opacity="0.25"></line><line x1="478.66666666666663" y1="0" x2="478.66666666666663" y2="377" fill="rgb(0, 0, 0)" stroke="rgb(189, 189, 189)" stroke-width="1px" opacity="0.25"></line><line x1="598.3333333333334" y1="0" x2="598.3333333333334" y2="377" fill="rgb(0, 0, 0)" stroke="rgb(189, 189, 189)" stroke-width="1px" opacity="0.25"></line><line x1="718" y1="0" x2="718" y2="377" fill="rgb(0, 0, 0)" stroke="rgb(189, 189, 189)" stroke-width="1px" opacity="0.25"></line><line x1="837.6666666666667" y1="0" x2="837.6666666666667" y2="377" fill="rgb(0, 0, 0)" stroke="rgb(189, 189, 189)" stroke-width="1px" opacity="0.25"></line><line x1="957.3333333333333" y1="0" x2="957.3333333333333" y2="377" fill="rgb(0, 0, 0)" stroke="rgb(189, 189, 189)" stroke-width="1px" opacity="0.25"></line><line x1="1077" y1="0" x2="1077" y2="377" fill="rgb(0, 0, 0)" stroke="rgb(189, 189, 189)" stroke-width="1px" opacity="0.25"></line><line x1="1196.6666666666667" y1="0" x2="1196.6666666666667" y2="377" fill="rgb(0, 0, 0)" stroke="rgb(189, 189, 189)" stroke-width="1px" opacity="0.25"></line><line x1="1316.3333333333333" y1="0" x2="1316.3333333333333" y2="377" fill="rgb(0, 0, 0)" stroke="rgb(189, 189, 189)" stroke-width="1px" opacity="0.25"></line><line x1="1436" y1="0" x2="1436" y2="377" fill="rgb(0, 0, 0)" stroke="rgb(189, 189, 189)" stroke-width="1px" opacity="0.25"></line></g><g><line x1="0" y1="377" x2="1436" y2="377" fill="rgb(0, 0, 0)" stroke="rgb(189, 189, 189)" stroke-width="1px" opacity="0.25"></line><line x1="0" y1="335.11111111111103" x2="1436" y2="335.11111111111103" fill="rgb(0, 0, 0)" stroke="rgb(189, 189, 189)" stroke-width="1px" opacity="0.25"></line><line x1="0" y1="293.222222222222" x2="1436" y2="293.222222222222" fill="rgb(0, 0, 0)" stroke="rgb(189, 189, 189)" stroke-width="1px" opacity="0.25"></line><line x1="0" y1="251.33333333333303" x2="1436" y2="251.33333333333303" fill="rgb(0, 0, 0)" stroke="rgb(189, 189, 189)" stroke-width="1px" opacity="0.25"></line><line x1="0" y1="209.44444444444403" x2="1436" y2="209.44444444444403" fill="rgb(0, 0, 0)" stroke="rgb(189, 189, 189)" stroke-width="1px" opacity="0.25"></line><line x1="0" y1="167.55555555555503" x2="1436" y2="167.55555555555503" fill="rgb(0, 0, 0)" stroke="rgb(189, 189, 189)" stroke-width="1px" opacity="0.25"></line><line x1="0" y1="125.66666666666605" x2="1436" y2="125.66666666666605" fill="rgb(0, 0, 0)" stroke="rgb(189, 189, 189)" stroke-width="1px" opacity="0.25"></line><line x1="0" y1="83.77777777777706" x2="1436" y2="83.77777777777706" fill="rgb(0, 0, 0)" stroke="rgb(189, 189, 189)" stroke-width="1px" opacity="0.25"></line><line x1="0" y1="41.88888888888807" x2="1436" y2="41.88888888888807" fill="rgb(0, 0, 0)" stroke="rgb(189, 189, 189)" stroke-width="1px" opacity="0.25"></line></g></g></g><g><g><line x1="0" y1="8419.666666666679" x2="1436" y2="8419.666666666679" fill="rgb(0, 0, 0)" stroke="rgb(153, 153, 153)" stroke-width="1.5px"></line></g></g><g><g><line x1="119.66666666666666" y1="0" x2="119.66666666666666" y2="377" fill="rgb(0, 0, 0)" stroke="rgb(153, 153, 153)" stroke-width="1.5px"></line></g></g><g><g><g><g><g><path stroke="rgb(0, 119, 187)" stroke-width="2px" d="M119.66666666666666,399.3407993316648L143.6,344.3615602586001L167.53333333333333,301.1726534242259L191.46666666666667,267.03918281879197L215.4,236.91120926766982L239.33333333333331,223.62932575110952L263.26666666666665,209.74741284330497L287.2,202.5234518084865L311.1333333333333,193.75380840905612L335.06666666666666,187.98705276592312L359,180.9058714431985L382.93333333333334,176.11374376875378L406.8666666666667,175.76178981728532L430.8,174.4330798151722L454.7333333333333,172.79840939263002L478.66666666666663,168.1865679580045L502.59999999999997,167.93407231991822L526.5333333333333,173.08908205868943L550.4666666666667,170.59623259643755L574.4,166.30792810672156L598.3333333333334,167.64487727487645L622.2666666666667,168.16758556660983L646.2,164.57162925892086L670.1333333333333,161.017871939812L694.0666666666667,160.28182738859982L718,161.23659921471278L741.9333333333334,162.08870057258972L765.8666666666667,158.69021268201774L789.8000000000001,165.58737240159277L813.7333333333333,162.46505103048284L837.6666666666667,170.0863857721474L861.6,168.79476662592734L885.5333333333334,169.9746681704273L909.4666666666666,165.65590709582747L933.4,173.3972933690852L957.3333333333333,171.61902832481863L981.2666666666667,168.31815714610747L1005.1999999999999,164.38276157160138L1029.1333333333334,162.0215242362503L1053.0666666666666,156.695235828778L1077,153.77870180783384L1100.9333333333334,161.24426824558034L1124.8666666666666,165.44436908708917L1148.8,160.9828548956938L1172.7333333333333,158.5851854001395L1196.6666666666667,155.75038860908953L1220.6,151.81539864263533L1244.5333333333333,154.48110648419018L1268.4666666666667,151.89154642408192L1292.4,155.64375122806146" style="fill: none;" fill="none"></path></g><g><path stroke="rgb(255, 112, 67)" stroke-width="2px" d="M167.53333333333333,432.23547940459673L191.46666666666667,341.31982696368044L215.4,283.5163322523448L239.33333333333331,244.89467718552305L263.26666666666665,218.45507181478425L287.2,197.6765073967316L311.1333333333333,183.74231038258742L335.06666666666666,172.3113596138001L359,164.23603511668128L382.93333333333334,157.24070788693015L406.8666666666667,149.90742250046216L430.8,143.06822828583253L454.7333333333333,137.7807194265455L478.66666666666663,132.9336989661622L502.59999999999997,126.81436983216871L526.5333333333333,124.190787890143L550.4666666666667,121.49958536793079L574.4,117.16218895977964L598.3333333333334,114.00136232056012L622.2666666666667,111.2669828874951L646.2,109.41704721534941L670.1333333333333,105.37487182944643L694.0666666666667,104.27606783733484L718,102.22039022381236L741.9333333333334,100.21917768339611L765.8666666666667,97.62205577691185L789.8000000000001,94.17881971170554L813.7333333333333,91.27516164306564L837.6666666666667,91.06878201960143L861.6,90.10723714009666L885.5333333333334,88.62268353617152L909.4666666666666,86.05631751684206L933.4,84.79573697586267L957.3333333333333,82.08471551367414L981.2666666666667,81.8542977566875L1005.1999999999999,80.18023249453671L1029.1333333333334,77.08130095408549L1053.0666666666666,75.1520324085566L1077,74.20400041802105L1100.9333333333334,72.86717405133683L1124.8666666666666,72.06507823173783L1148.8,70.67619405811143L1172.7333333333333,69.00514649772838L1196.6666666666667,67.30442041467148L1220.6,66.00474574613573L1244.5333333333333,66.69104566445274L1268.4666666666667,65.2178623678961L1292.4,64.05451362942667" style="fill: none;" fill="none"></path></g></g></g></g><g opacity="0.2"><g><g><g><path stroke="rgb(0, 119, 187)" stroke-width="2px" d="M119.66666666666666,399.3407993316648L143.6,311.3740168147613L167.53333333333333,259.71130286322654L191.46666666666667,226.898221386803L215.4,197.57612699932463L239.33333333333331,205.2556993696419L263.26666666666665,189.89605527453895L287.2,191.9908472696934L311.1333333333333,180.82028781043098L335.06666666666666,179.4240927166403L359,170.34832525253233L382.93333333333334,168.95163080427318L406.8666666666667,175.2350080807998L430.8,172.44261789321837L454.7333333333333,170.34832525253233L478.66666666666663,161.27205843395592L502.59999999999997,167.55543571048253L526.5333333333333,180.82028781043098L550.4666666666667,166.85733816358714L574.4,159.8758633401652L598.3333333333334,169.650227705637L622.2666666666667,168.95163080427318L646.2,159.17776579326988L670.1333333333333,155.68727805879314L694.0666666666667,159.17776579326988L718,162.66875288221507L741.9333333333334,163.3668504291104L765.8666666666667,153.59248606363866L789.8000000000001,175.9331056276951L813.7333333333333,157.78157069947918L837.6666666666667,181.51838535732634L861.6,166.85733816358714L885.5333333333334,171.74452034632304L909.4666666666666,159.17776579326988L933.4,185.00937244627153L957.3333333333333,168.95163080427318L981.2666666666667,163.3668504291104L1005.1999999999999,158.47966824637456L1029.1333333333334,158.47966824637456L1053.0666666666666,148.70580323537126L1077,149.4039007822666L1100.9333333333334,172.44261789321837L1124.8666666666666,171.74452034632304L1148.8,154.290583610534L1172.7333333333333,154.98868115742937L1196.6666666666667,151.49819342295262L1220.6,145.9129136933214L1244.5333333333333,158.47966824637456L1268.4666666666667,148.00720633400744L1292.4,161.27205843395592" style="fill: none;" fill="none"></path></g><g><path stroke="rgb(255, 112, 67)" stroke-width="2px" d="M119.66666666666666,998.8752618895644L143.6,358.848145484924L167.53333333333333,272.2775580618112L191.46666666666667,234.4030196931622L215.4,208.04808955722328L239.33333333333331,191.46702443228767L263.26666666666665,180.6460131009414L287.2,167.3811610009929L311.1333333333333,163.19207636515233L335.06666666666666,155.33772993087706L359,152.19629096984795L382.93333333333334,146.7857853041748L406.8666666666667,138.9314388698995L430.8,132.822835657331L454.7333333333333,129.85567140579155L478.66666666666663,125.66658676995101L502.59999999999997,117.6379656261861L526.5333333333333,120.25608110427785L550.4666666666667,117.46319156222803L574.4,110.65649080276418L598.3333333333334,109.26029570897347L622.2666666666667,107.16550371381899L646.2,106.64218023088169L670.1333333333333,99.31165663401212L694.0666666666667,102.62786965899924L718,99.13688257005406L741.9333333333334,97.21736399332609L765.8666666666667,93.7263769043809L789.8000000000001,89.01396878560307L813.7333333333333,86.91967614491703L837.6666666666667,90.75921265284147L861.6,88.66492001215543L885.5333333333334,86.39585330751133L909.4666666666666,82.20676867167077L933.4,82.90486621856614L957.3333333333333,78.0181833902987L981.2666666666667,81.50867112477543L1005.1999999999999,77.66913461685105L1029.1333333333334,72.43290366066748L1053.0666666666666,72.25812959670941L1077,72.78195243411517L1100.9333333333334,70.86193450291874L1124.8666666666666,70.86193450291874L1148.8,68.59286779827464L1172.7333333333333,66.4985751575886L1196.6666666666667,64.75333129035022L1220.6,64.05523374345489L1244.5333333333333,67.72049554188969L1268.4666666666667,63.008087423111874L1292.4,62.30949052174805" style="fill: none;" fill="none"></path></g></g></g></g></g></g><g transform="translate(60, 377)" clip-path="url(#clip_1)"><clipPath id="clip_1"><rect width="1436" height="23"></rect></clipPath><g><g><line x1="0" y1="0" x2="0" y2="5" style="visibility: inherit;" fill="rgb(0, 0, 0)" stroke="rgb(204, 204, 204)" stroke-width="1px"></line><line x1="119.66666666666666" y1="0" x2="119.66666666666666" y2="5" style="visibility: inherit;" fill="rgb(0, 0, 0)" stroke="rgb(204, 204, 204)" stroke-width="1px"></line><line x1="239.33333333333331" y1="0" x2="239.33333333333331" y2="5" style="visibility: inherit;" fill="rgb(0, 0, 0)" stroke="rgb(204, 204, 204)" stroke-width="1px"></line><line x1="359" y1="0" x2="359" y2="5" style="visibility: inherit;" fill="rgb(0, 0, 0)" stroke="rgb(204, 204, 204)" stroke-width="1px"></line><line x1="478.66666666666663" y1="0" x2="478.66666666666663" y2="5" style="visibility: inherit;" fill="rgb(0, 0, 0)" stroke="rgb(204, 204, 204)" stroke-width="1px"></line><line x1="598.3333333333334" y1="0" x2="598.3333333333334" y2="5" style="visibility: inherit;" fill="rgb(0, 0, 0)" stroke="rgb(204, 204, 204)" stroke-width="1px"></line><line x1="718" y1="0" x2="718" y2="5" style="visibility: inherit;" fill="rgb(0, 0, 0)" stroke="rgb(204, 204, 204)" stroke-width="1px"></line><line x1="837.6666666666667" y1="0" x2="837.6666666666667" y2="5" style="visibility: inherit;" fill="rgb(0, 0, 0)" stroke="rgb(204, 204, 204)" stroke-width="1px"></line><line x1="957.3333333333333" y1="0" x2="957.3333333333333" y2="5" style="visibility: inherit;" fill="rgb(0, 0, 0)" stroke="rgb(204, 204, 204)" stroke-width="1px"></line><line x1="1077" y1="0" x2="1077" y2="5" style="visibility: inherit;" fill="rgb(0, 0, 0)" stroke="rgb(204, 204, 204)" stroke-width="1px"></line><line x1="1196.6666666666667" y1="0" x2="1196.6666666666667" y2="5" style="visibility: inherit;" fill="rgb(0, 0, 0)" stroke="rgb(204, 204, 204)" stroke-width="1px"></line><line x1="1316.3333333333333" y1="0" x2="1316.3333333333333" y2="5" style="visibility: inherit;" fill="rgb(0, 0, 0)" stroke="rgb(204, 204, 204)" stroke-width="1px"></line><line x1="1436" y1="0" x2="1436" y2="5" style="visibility: inherit;" fill="rgb(0, 0, 0)" stroke="rgb(204, 204, 204)" stroke-width="1px"></line></g><g transform="translate(0, 8)"><text x="0" y="0" dx="0em" dy="0.95em" style="text-anchor: middle; visibility: hidden; font-family: Roboto, sans-serif; font-size: 12px; font-weight: 200;" fill="rgb(255, 255, 255)" stroke="none" stroke-width="1px">-5</text><text x="119.66666666666666" y="0" dx="0em" dy="0.95em" style="text-anchor: middle; visibility: inherit; font-family: Roboto, sans-serif; font-size: 12px; font-weight: 200;" fill="rgb(255, 255, 255)" stroke="none" stroke-width="1px">0</text><text x="239.33333333333331" y="0" dx="0em" dy="0.95em" style="text-anchor: middle; visibility: inherit; font-family: Roboto, sans-serif; font-size: 12px; font-weight: 200;" fill="rgb(255, 255, 255)" stroke="none" stroke-width="1px">5</text><text x="359" y="0" dx="0em" dy="0.95em" style="text-anchor: middle; visibility: inherit; font-family: Roboto, sans-serif; font-size: 12px; font-weight: 200;" fill="rgb(255, 255, 255)" stroke="none" stroke-width="1px">10</text><text x="478.66666666666663" y="0" dx="0em" dy="0.95em" style="text-anchor: middle; visibility: inherit; font-family: Roboto, sans-serif; font-size: 12px; font-weight: 200;" fill="rgb(255, 255, 255)" stroke="none" stroke-width="1px">15</text><text x="598.3333333333334" y="0" dx="0em" dy="0.95em" style="text-anchor: middle; visibility: inherit; font-family: Roboto, sans-serif; font-size: 12px; font-weight: 200;" fill="rgb(255, 255, 255)" stroke="none" stroke-width="1px">20</text><text x="718" y="0" dx="0em" dy="0.95em" style="text-anchor: middle; visibility: inherit; font-family: Roboto, sans-serif; font-size: 12px; font-weight: 200;" fill="rgb(255, 255, 255)" stroke="none" stroke-width="1px">25</text><text x="837.6666666666667" y="0" dx="0em" dy="0.95em" style="text-anchor: middle; visibility: inherit; font-family: Roboto, sans-serif; font-size: 12px; font-weight: 200;" fill="rgb(255, 255, 255)" stroke="none" stroke-width="1px">30</text><text x="957.3333333333333" y="0" dx="0em" dy="0.95em" style="text-anchor: middle; visibility: inherit; font-family: Roboto, sans-serif; font-size: 12px; font-weight: 200;" fill="rgb(255, 255, 255)" stroke="none" stroke-width="1px">35</text><text x="1077" y="0" dx="0em" dy="0.95em" style="text-anchor: middle; visibility: inherit; font-family: Roboto, sans-serif; font-size: 12px; font-weight: 200;" fill="rgb(255, 255, 255)" stroke="none" stroke-width="1px">40</text><text x="1196.6666666666667" y="0" dx="0em" dy="0.95em" style="text-anchor: middle; visibility: inherit; font-family: Roboto, sans-serif; font-size: 12px; font-weight: 200;" fill="rgb(255, 255, 255)" stroke="none" stroke-width="1px">45</text><text x="1316.3333333333333" y="0" dx="0em" dy="0.95em" style="text-anchor: middle; visibility: inherit; font-family: Roboto, sans-serif; font-size: 12px; font-weight: 200;" fill="rgb(255, 255, 255)" stroke="none" stroke-width="1px">50</text><text x="1436" y="0" dx="0em" dy="0.95em" style="text-anchor: middle; visibility: hidden; font-family: Roboto, sans-serif; font-size: 12px; font-weight: 200;" fill="rgb(255, 255, 255)" stroke="none" stroke-width="1px">55</text></g><line x1="0" y1="0" x2="1436" y2="0" fill="rgb(0, 0, 0)" stroke="rgb(204, 204, 204)" stroke-width="1px"></line></g></g></g></g></svg>