<svg viewBox="0 0 330 200" xmlns="http://www.w3.org/2000/svg"><g><g><g><g><g><line x1="60" y1="177" x2="55" y2="177" style="visibility: inherit;" fill="rgb(0, 0, 0)" stroke="rgb(204, 204, 204)" stroke-width="1px"></line><line x1="60" y1="164.3571428571431" x2="55" y2="164.3571428571431" style="visibility: inherit;" fill="rgb(0, 0, 0)" stroke="rgb(204, 204, 204)" stroke-width="1px"></line><line x1="60" y1="151.71428571428592" x2="55" y2="151.71428571428592" style="visibility: inherit;" fill="rgb(0, 0, 0)" stroke="rgb(204, 204, 204)" stroke-width="1px"></line><line x1="60" y1="139.07142857142873" x2="55" y2="139.07142857142873" style="visibility: inherit;" fill="rgb(0, 0, 0)" stroke="rgb(204, 204, 204)" stroke-width="1px"></line><line x1="60" y1="126.42857142857154" x2="55" y2="126.42857142857154" style="visibility: inherit;" fill="rgb(0, 0, 0)" stroke="rgb(204, 204, 204)" stroke-width="1px"></line><line x1="60" y1="113.78571428571435" x2="55" y2="113.78571428571435" style="visibility: inherit;" fill="rgb(0, 0, 0)" stroke="rgb(204, 204, 204)" stroke-width="1px"></line><line x1="60" y1="101.14285714285718" x2="55" y2="101.14285714285718" style="visibility: inherit;" fill="rgb(0, 0, 0)" stroke="rgb(204, 204, 204)" stroke-width="1px"></line><line x1="60" y1="88.5" x2="55" y2="88.5" style="visibility: inherit;" fill="rgb(0, 0, 0)" stroke="rgb(204, 204, 204)" stroke-width="1px"></line><line x1="60" y1="75.85714285714282" x2="55" y2="75.85714285714282" style="visibility: inherit;" fill="rgb(0, 0, 0)" stroke="rgb(204, 204, 204)" stroke-width="1px"></line><line x1="60" y1="63.21428571428563" x2="55" y2="63.21428571428563" style="visibility: inherit;" fill="rgb(0, 0, 0)" stroke="rgb(204, 204, 204)" stroke-width="1px"></line><line x1="60" y1="50.57142857142845" x2="55" y2="50.57142857142845" style="visibility: inherit;" fill="rgb(0, 0, 0)" stroke="rgb(204, 204, 204)" stroke-width="1px"></line><line x1="60" y1="37.928571428571274" x2="55" y2="37.928571428571274" style="visibility: inherit;" fill="rgb(0, 0, 0)" stroke="rgb(204, 204, 204)" stroke-width="1px"></line><line x1="60" y1="25.28571428571408" x2="55" y2="25.28571428571408" style="visibility: inherit;" fill="rgb(0, 0, 0)" stroke="rgb(204, 204, 204)" stroke-width="1px"></line><line x1="60" y1="12.6428571428569" x2="55" y2="12.6428571428569" style="visibility: inherit;" fill="rgb(0, 0, 0)" stroke="rgb(204, 204, 204)" stroke-width="1px"></line></g><g transform="translate(50, 0)"><text x="0" y="177" dx="0em" dy="0.3em" style="text-anchor: end; visibility: hidden; font-family: Roboto, sans-serif; font-size: 12px; font-weight: 200;" fill="rgb(255, 255, 255)" stroke="none" stroke-width="1px">0.935</text><text x="0" y="164.3571428571431" dx="0em" dy="0.3em" style="text-anchor: end; visibility: inherit; font-family: Roboto, sans-serif; font-size: 12px; font-weight: 200;" fill="rgb(255, 255, 255)" stroke="none" stroke-width="1px">0.94</text><text x="0" y="151.71428571428592" dx="0em" dy="0.3em" style="text-anchor: end; visibility: hidden; font-family: Roboto, sans-serif; font-size: 12px; font-weight: 200;" fill="rgb(255, 255, 255)" stroke="none" stroke-width="1px">0.945</text><text x="0" y="139.07142857142873" dx="0em" dy="0.3em" style="text-anchor: end; visibility: inherit; font-family: Roboto, sans-serif; font-size: 12px; font-weight: 200;" fill="rgb(255, 255, 255)" stroke="none" stroke-width="1px">0.95</text><text x="0" y="126.42857142857154" dx="0em" dy="0.3em" style="text-anchor: end; visibility: hidden; font-family: Roboto, sans-serif; font-size: 12px; font-weight: 200;" fill="rgb(255, 255, 255)" stroke="none" stroke-width="1px">0.955</text><text x="0" y="113.78571428571435" dx="0em" dy="0.3em" style="text-anchor: end; visibility: inherit; font-family: Roboto, sans-serif; font-size: 12px; font-weight: 200;" fill="rgb(255, 255, 255)" stroke="none" stroke-width="1px">0.96</text><text x="0" y="101.14285714285718" dx="0em" dy="0.3em" style="text-anchor: end; visibility: hidden; font-family: Roboto, sans-serif; font-size: 12px; font-weight: 200;" fill="rgb(255, 255, 255)" stroke="none" stroke-width="1px">0.965</text><text x="0" y="88.5" dx="0em" dy="0.3em" style="text-anchor: end; visibility: inherit; font-family: Roboto, sans-serif; font-size: 12px; font-weight: 200;" fill="rgb(255, 255, 255)" stroke="none" stroke-width="1px">0.97</text><text x="0" y="75.85714285714282" dx="0em" dy="0.3em" style="text-anchor: end; visibility: hidden; font-family: Roboto, sans-serif; font-size: 12px; font-weight: 200;" fill="rgb(255, 255, 255)" stroke="none" stroke-width="1px">0.975</text><text x="0" y="63.21428571428563" dx="0em" dy="0.3em" style="text-anchor: end; visibility: inherit; font-family: Roboto, sans-serif; font-size: 12px; font-weight: 200;" fill="rgb(255, 255, 255)" stroke="none" stroke-width="1px">0.98</text><text x="0" y="50.57142857142845" dx="0em" dy="0.3em" style="text-anchor: end; visibility: hidden; font-family: Roboto, sans-serif; font-size: 12px; font-weight: 200;" fill="rgb(255, 255, 255)" stroke="none" stroke-width="1px">0.985</text><text x="0" y="37.928571428571274" dx="0em" dy="0.3em" style="text-anchor: end; visibility: inherit; font-family: Roboto, sans-serif; font-size: 12px; font-weight: 200;" fill="rgb(255, 255, 255)" stroke="none" stroke-width="1px">0.99</text><text x="0" y="25.28571428571408" dx="0em" dy="0.3em" style="text-anchor: end; visibility: hidden; font-family: Roboto, sans-serif; font-size: 12px; font-weight: 200;" fill="rgb(255, 255, 255)" stroke="none" stroke-width="1px">0.995</text><text x="0" y="12.6428571428569" dx="0em" dy="0.3em" style="text-anchor: end; visibility: inherit; font-family: Roboto, sans-serif; font-size: 12px; font-weight: 200;" fill="rgb(255, 255, 255)" stroke="none" stroke-width="1px">1</text></g><line x1="60" y1="0" x2="60" y2="177" fill="rgb(0, 0, 0)" stroke="rgb(204, 204, 204)" stroke-width="1px"></line></g></g><g transform="translate(60, 0)" clip-path="url(#clip_0)"><clipPath id="clip_0"><rect width="270" height="177"></rect></clipPath><g><g><g><line x1="0" y1="0" x2="0" y2="177" fill="rgb(0, 0, 0)" stroke="rgb(189, 189, 189)" stroke-width="1px" opacity="0.25"></line><line x1="22.5" y1="0" x2="22.5" y2="177" fill="rgb(0, 0, 0)" stroke="rgb(189, 189, 189)" stroke-width="1px" opacity="0.25"></line><line x1="45" y1="0" x2="45" y2="177" fill="rgb(0, 0, 0)" stroke="rgb(189, 189, 189)" stroke-width="1px" opacity="0.25"></line><line x1="67.5" y1="0" x2="67.5" y2="177" fill="rgb(0, 0, 0)" stroke="rgb(189, 189, 189)" stroke-width="1px" opacity="0.25"></line><line x1="90" y1="0" x2="90" y2="177" fill="rgb(0, 0, 0)" stroke="rgb(189, 189, 189)" stroke-width="1px" opacity="0.25"></line><line x1="112.5" y1="0" x2="112.5" y2="177" fill="rgb(0, 0, 0)" stroke="rgb(189, 189, 189)" stroke-width="1px" opacity="0.25"></line><line x1="135" y1="0" x2="135" y2="177" fill="rgb(0, 0, 0)" stroke="rgb(189, 189, 189)" stroke-width="1px" opacity="0.25"></line><line x1="157.5" y1="0" x2="157.5" y2="177" fill="rgb(0, 0, 0)" stroke="rgb(189, 189, 189)" stroke-width="1px" opacity="0.25"></line><line x1="180" y1="0" x2="180" y2="177" fill="rgb(0, 0, 0)" stroke="rgb(189, 189, 189)" stroke-width="1px" opacity="0.25"></line><line x1="202.5" y1="0" x2="202.5" y2="177" fill="rgb(0, 0, 0)" stroke="rgb(189, 189, 189)" stroke-width="1px" opacity="0.25"></line><line x1="225" y1="0" x2="225" y2="177" fill="rgb(0, 0, 0)" stroke="rgb(189, 189, 189)" stroke-width="1px" opacity="0.25"></line><line x1="247.5" y1="0" x2="247.5" y2="177" fill="rgb(0, 0, 0)" stroke="rgb(189, 189, 189)" stroke-width="1px" opacity="0.25"></line><line x1="270" y1="0" x2="270" y2="177" fill="rgb(0, 0, 0)" stroke="rgb(189, 189, 189)" stroke-width="1px" opacity="0.25"></line></g><g><line x1="0" y1="177" x2="270" y2="177" fill="rgb(0, 0, 0)" stroke="rgb(189, 189, 189)" stroke-width="1px" opacity="0.25"></line><line x1="0" y1="164.3571428571431" x2="270" y2="164.3571428571431" fill="rgb(0, 0, 0)" stroke="rgb(189, 189, 189)" stroke-width="1px" opacity="0.25"></line><line x1="0" y1="151.71428571428592" x2="270" y2="151.71428571428592" fill="rgb(0, 0, 0)" stroke="rgb(189, 189, 189)" stroke-width="1px" opacity="0.25"></line><line x1="0" y1="139.07142857142873" x2="270" y2="139.07142857142873" fill="rgb(0, 0, 0)" stroke="rgb(189, 189, 189)" stroke-width="1px" opacity="0.25"></line><line x1="0" y1="126.42857142857154" x2="270" y2="126.42857142857154" fill="rgb(0, 0, 0)" stroke="rgb(189, 189, 189)" stroke-width="1px" opacity="0.25"></line><line x1="0" y1="113.78571428571435" x2="270" y2="113.78571428571435" fill="rgb(0, 0, 0)" stroke="rgb(189, 189, 189)" stroke-width="1px" opacity="0.25"></line><line x1="0" y1="101.14285714285718" x2="270" y2="101.14285714285718" fill="rgb(0, 0, 0)" stroke="rgb(189, 189, 189)" stroke-width="1px" opacity="0.25"></line><line x1="0" y1="88.5" x2="270" y2="88.5" fill="rgb(0, 0, 0)" stroke="rgb(189, 189, 189)" stroke-width="1px" opacity="0.25"></line><line x1="0" y1="75.85714285714282" x2="270" y2="75.85714285714282" fill="rgb(0, 0, 0)" stroke="rgb(189, 189, 189)" stroke-width="1px" opacity="0.25"></line><line x1="0" y1="63.21428571428563" x2="270" y2="63.21428571428563" fill="rgb(0, 0, 0)" stroke="rgb(189, 189, 189)" stroke-width="1px" opacity="0.25"></line><line x1="0" y1="50.57142857142845" x2="270" y2="50.57142857142845" fill="rgb(0, 0, 0)" stroke="rgb(189, 189, 189)" stroke-width="1px" opacity="0.25"></line><line x1="0" y1="37.928571428571274" x2="270" y2="37.928571428571274" fill="rgb(0, 0, 0)" stroke="rgb(189, 189, 189)" stroke-width="1px" opacity="0.25"></line><line x1="0" y1="25.28571428571408" x2="270" y2="25.28571428571408" fill="rgb(0, 0, 0)" stroke="rgb(189, 189, 189)" stroke-width="1px" opacity="0.25"></line><line x1="0" y1="12.6428571428569" x2="270" y2="12.6428571428569" fill="rgb(0, 0, 0)" stroke="rgb(189, 189, 189)" stroke-width="1px" opacity="0.25"></line></g></g></g><g><g><line x1="0" y1="2541.2142857142912" x2="270" y2="2541.2142857142912" fill="rgb(0, 0, 0)" stroke="rgb(153, 153, 153)" stroke-width="1.5px"></line></g></g><g><g><line x1="22.5" y1="0" x2="22.5" y2="177" fill="rgb(0, 0, 0)" stroke="rgb(153, 153, 153)" stroke-width="1.5px"></line></g></g><g><g><g><g><g><path stroke="rgb(187, 187, 187)" stroke-width="2px" d="M45,180.85011555718887L49.5,165.91186779758482L54,155.33517475699233L58.5,149.8703102517779L63,139.33416813934912L67.5,145.48852498942045L72,139.9596359618379L76.5,130.23596594012983L81,137.1470041833511L85.5,133.6165647355829L90,129.05438457355615L94.5,123.70460935681528L99,123.6984549996686L103.5,131.7024161034393L108,131.025683947417L112.5,132.55831479734533L117,134.9950452261667L121.5,138.7327508439252L126,129.8496109868468L130.5,133.538360565069L135,126.98584654980715L139.5,120.27293461434154L144,118.52092344893913L148.5,115.78400413907033L153,125.77328530595605L157.5,127.0468323536535L162,126.88382445600334L166.5,119.79026957748555L171,117.47274870260046L175.5,154.6850692692472L180,139.5896031886842L184.5,132.9766130669389L189,127.82884425537512L193.5,124.65590337516161L198,124.18495242976276L202.5,124.32384017570779L207,124.82857085000873L211.5,168.28570205471848L216,165.36568652980617L220.5,166.1422462325835L225,158.6010769756825L229.5,154.58205305378482L234,158.99782930442436L238.5,147.90869452802275L243,143.61522346879286" style="fill: none;" fill="none"></path></g><g><path stroke="rgb(0, 153, 136)" stroke-width="2px" d="M36,188.91992594176506L40.5,166.1340542732579L45,151.59644229010655L49.5,140.545662590525L54,131.6948364199747L58.5,125.33097227842504L63,120.04879414724458L67.5,115.31385504576556L72,111.28027506013999L76.5,107.36768346922943L81,103.86355765001552L85.5,100.66662983493156L90,99.52927192430488L94.5,97.371859482289L99,95.57185646894484L103.5,92.76401388979124L108,90.8054689732046L112.5,89.65148836019215L117,87.65264454392822L121.5,86.81157638665636L126,84.91619909397166L130.5,83.94759844210341L135,83.19782002927546L139.5,83.33797192709206L144,81.90490857485102L148.5,81.57184899699854L153,79.47560121818572L157.5,78.36537231928962L162,77.72027483428592L166.5,77.03823774343431L171,75.70187953883767L175.5,75.84830064550184L180,75.4935949466309L184.5,74.77509389459686L189,74.02791460217658L193.5,73.15814871511772L198,72.46772997325614L202.5,71.96919912334167L207,71.35400195062437L211.5,147.0106339655917L216,163.32603931554894L220.5,156.82707321993584L225,148.22877399396455L229.5,139.8247885104008L234,130.8209543411063L238.5,122.70042556759292L243,116.10025582278907" style="fill: none;" fill="none"></path></g><g><path stroke="rgb(51, 187, 238)" stroke-width="2px" d="M22.5,155.29648845536377L27,132.64464898620335L31.5,120.76512799040572L36,113.39372606375169L40.5,100.5860065423289L45,99.13986925422485L49.5,91.81310260195454L54,93.20845774584237L58.5,88.32587346649959L63,86.61515882200571L67.5,83.81893717937677L72,79.44469881100467L76.5,78.09222578264594L81,79.4749822848588L85.5,78.70175596843764L90,76.63616794013171L94.5,74.30130747934722L99,78.12687218585756L103.5,79.91625389137215L108,78.54543434581181L112.5,81.5158812831444L117,82.70814273850085L121.5,78.78771295047429L126,83.26263756006459L130.5,83.67184208412326L135,80.37737344859225L139.5,76.54642207736022L144,81.58072650255232L148.5,78.02701325501495L153,76.99048154173836L157.5,75.18858774358367L162,75.28742647189624L166.5,75.76818803641827L171,75.80374585139042L175.5,74.89794457941758L180,73.51160747845962L184.5,73.7755606746658L189,76.63106082913782L193.5,75.05721515684868L198,78.07435064028259L202.5,77.35606290859609L207,77.76794660940429L211.5,76.41364375652859L216,75.17960373253729L220.5,76.37779149837473L225,76.08522832220694L229.5,76.07830991300582L234,76.07415886748522L238.5,76.07166824017335L243,74.72157960696511" style="fill: none;" fill="none"></path></g><g><path stroke="rgb(204, 51, 17)" stroke-width="2px" d="M27,214.44790036337739L31.5,161.5845231001999L36,132.3797270703218L40.5,112.73100521465946L45,99.9340504995147L49.5,90.06925190495359L54,82.59421970074435L58.5,77.93495878406155L63,74.13083919878035L67.5,71.01721703545918L72,67.88921623863902L76.5,65.55263517112913L81,62.57100842642328L85.5,60.256502984595855L90,58.573434534474714L94.5,56.868442791549455L99,55.69809803154604L103.5,54.55344221413649L108,52.855240835788194L112.5,52.29990774466061L117,51.18708893305281L121.5,50.07690545489139L126,49.136860820946616L130.5,48.25675732983792L135,47.349437965668926L139.5,46.594287822857396L144,46.58369657440855L148.5,46.261263050168346L153,45.33032615914584L157.5,44.96142343629706L162,43.517906887807335L166.5,43.115395169480756L171,42.57890952371274L175.5,41.73018017501834L180,41.83206014877787L184.5,40.923852093494254L189,40.695005927967216L193.5,40.494518667984295L198,39.573509774824146L202.5,39.29484330014812L207,38.959023918922526L211.5,38.041155644859295L216,37.61685408859384L220.5,37.44655276021065L225,36.9229136507226L229.5,36.545550623978315L234,35.81339489016561L238.5,35.73231991542572L243,35.4518758730287" style="fill: none;" fill="none"></path></g><g><path stroke="rgb(255, 112, 67)" stroke-width="2px" d="M22.5,109.99288487434386L27,92.0821499909673L31.5,88.31941770117079L36,73.48973074730708L40.5,65.19451272217007L45,61.62291766615532L49.5,60.196689226105384L54,58.68112463679738L58.5,56.25564483297693L63,58.6320530994775L67.5,54.04260446415156L72,55.69201698540301L76.5,53.725478320554586L81,51.788028557586046L85.5,51.975759491192335L90,51.666824602559416L94.5,50.722814300173155L99,50.577951222465046L103.5,48.80522738738274L108,50.60751472772777L112.5,50.508784025435496L117,50.028143417034094L121.5,50.32972499719176L126,48.74067175065242L130.5,47.70296477671758L135,47.586081260970175L139.5,48.35880848082775L144,48.316706078244756L148.5,48.03860574412064L153,47.871745609225414L157.5,47.60307031889773L162,46.76756798543957L166.5,46.77194428399158L171,46.6060108475185L175.5,46.9279091083662L180,45.94101300299262L184.5,46.191731690545055L189,45.58358616554193L193.5,45.724436770875634L198,46.06178595017453L202.5,45.16850030157892L207,45.812503673775886L211.5,45.52466885413709L216,46.95340103545568L220.5,46.462046087138205L225,45.998673907529124L229.5,45.80493020510565L234,45.43584516768921L238.5,45.80435138249614L243,45.351157982966804" style="fill: none;" fill="none"></path></g><g><path stroke="rgb(187, 187, 187)" stroke-width="2px" d="M22.5,238.68657619612586L27,145.050420003278L31.5,106.19998275086769L36,84.8235214411464L40.5,71.49827226673514L45,62.20950575618085L49.5,55.72928276800469L54,50.93053770579009L58.5,46.95398167788105L63,44.27585028462178L67.5,41.17787228891994L72,39.368526114330145L76.5,37.48367868442817L81,35.65840443447852L85.5,34.543106090472605L90,32.94686521914326L94.5,31.652173158200828L99,30.622633693806304L103.5,29.899590866262965L108,28.98113777544234L112.5,27.92439868749394L117,26.84786617600054L121.5,25.801594307691104L126,25.02631632363648L130.5,24.139692373625376L135,23.649859491411302L139.5,23.1663611337415L144,22.43376409325883L148.5,21.93096628668304L153,21.06037011669667L157.5,20.5590522990837L162,19.96328300897606L166.5,19.90080009796426L171,18.999414231059838L175.5,18.71142154775372L180,18.075088106894572L184.5,17.651148243658216L189,17.396784327395768L193.5,17.26520573669959L198,16.828040116457807L202.5,16.523600941992648L207,16.151278182486987L211.5,15.92788452689841L216,15.85708818050862L220.5,15.540671512441978L225,15.540480766526374L229.5,15.30856726141622L234,15.085139553033311L238.5,15.140742182901224L243,14.83692505369546" style="fill: none;" fill="none"></path></g></g></g></g><g opacity="0.2"><g><g><g><path stroke="rgb(187, 187, 187)" stroke-width="2px" d="M40.5,181.84637270654963L45,141.17859956196384L49.5,144.54993448938646L54,139.91425476755418L58.5,141.81069660186773L63,123.6892250265394L67.5,154.66424070085807L72,131.69639039039615L76.5,115.68221037728446L81,147.50002210480832L85.5,128.32505546297347L90,122.21433193343027L94.5,115.68221037728446L99,123.6892250265394L103.5,143.70713843618128L108,130.0106475693839L112.5,134.8571770191193L117,138.6500606877464L121.5,144.33923547608518L126,116.52500643048967L130.5,139.07145871434898L135,117.1571034703936L139.5,110.20358388764517L144,115.89290939058576L148.5,111.67862769535608L153,140.7572015353612L157.5,128.9571525028774L162,126.63931264196127L166.5,109.14993810653685L171,113.99646755627222L175.5,210.50354851995218L180,116.94640445709229L184.5,123.05712798663549L189,120.10719108581543L193.5,119.89649207251412L198,123.4785260132381L202.5,124.53217179434641L207,125.58566686085294L211.5,233.4713988304141L216,160.98566324370256L220.5,167.3070857865471L225,147.28932309150704L229.5,148.55351717131487L234,165.62149368013667L238.5,131.27499236379353L243,137.17501688003543" style="fill: none;" fill="none"></path></g><g><path stroke="rgb(0, 153, 136)" stroke-width="2px" d="M27,191.74997990471994L31.5,162.51345716203974L36,151.2929057734354L40.5,136.38482022285464L45,131.48569137709484L49.5,124.74287080764772L54,118.79024689538139L58.5,115.94550878661019L63,112.20537522860934L67.5,108.25439194270541L72,105.25185564586093L76.5,101.51157137325828L81,98.61423386846265L85.5,95.8749959809439L90,97.82403721128186L94.5,94.13665376390723L99,92.87230896949762L103.5,88.5526777676173L108,87.86783061708717L112.5,87.92058072771339L117,84.65444459233959L121.5,85.54999075617103L126,82.07315560749592L130.5,82.4947043487003L135,82.07315560749592L139.5,83.54819941520682L144,79.75531574657975L148.5,81.07225993701381L153,76.33123070853087L157.5,76.70002933910905L162,76.75262873513348L166.5,76.01518218857892L171,73.69734232766278L175.5,76.06793229920514L180,74.9615364074706L184.5,73.69734232766278L189,72.90714567048198L193.5,71.85349988937368L198,71.43210186277106L202.5,71.22140284946975L207,70.43120619228897L211.5,260.4955819334306L216,187.7991473334178L220.5,147.07862407820573L225,135.33132515634813L229.5,127.21881028584073L234,117.31520308767045L238.5,110.51963240759713L243,106.2000012057168" style="fill: none;" fill="none"></path></g><g><path stroke="rgb(51, 187, 238)" stroke-width="2px" d="M22.5,155.29648845536377L27,119.05354530470711L31.5,109.36078783443995L36,104.72495739800586L40.5,83.8642479351588L45,97.13934077535352L49.5,81.33570906094135L54,95.24289894104L58.5,81.12501004764003L63,84.07494694846008L67.5,79.64996623992911L72,72.90714567048198L76.5,76.06793229920514L81,81.54640807424263L85.5,77.54282539231427L90,73.5392427103859L94.5,70.80000482286715L99,83.8642479351588L103.5,82.60005385535095L108,76.48933032580774L112.5,85.97138878277363L117,84.4964956896645L121.5,72.90714567048198L126,89.974971464702L130.5,84.28564596176139L135,75.43568454469943L139.5,70.80000482286715L144,89.13217541149679L148.5,72.69644665718069L153,75.43568454469943L157.5,72.48574764387938L162,75.43568454469943L166.5,76.48933032580774L171,75.85708257130204L175.5,73.5392427103859L180,71.43210186277106L184.5,74.1714904648916L189,80.91431103433872L193.5,72.69644665718069L198,82.60005385535095L202.5,76.27863131250645L207,78.38577216012128L211.5,74.38218947819291L216,73.3285436970846L220.5,78.17507314681997L225,75.64638355800074L229.5,76.06793229920514L234,76.06793229920514L238.5,76.06793229920514L243,72.69644665718069" style="fill: none;" fill="none"></path></g><g><path stroke="rgb(204, 51, 17)" stroke-width="2px" d="M22.5,340.7776331560957L27,138.6500606877464L31.5,110.83568092754908L36,98.03488693918496L40.5,87.07763395990638L45,82.2312552247728L49.5,75.9624320779527L54,71.69555098669859L58.5,71.06345394679468L63,68.48216496195101L67.5,66.37502411433617L72,63.21423748561302L76.5,62.05539291245584L81,58.104409626551906L85.5,56.78746543611784L90,56.050018889563276L94.5,54.311676672526616L99,53.942878041948454L103.5,52.8366328648157L108,50.30809399059825L112.5,51.466938563755434L117,49.517897333417466L121.5,48.41165215628472L126,47.726805005754585L130.5,46.9366083485738L135,45.988462788717925L139.5,45.46156454086288L144,46.56780971799561L148.5,45.77761306081482L153,43.93392133712751L157.5,44.40806947435635L162,41.35263235228384L166.5,42.51162764004281L171,41.774181093488245L175.5,40.4570861884524L180,41.984880106789554L184.5,39.56154002462096L189,40.35173668180176L193.5,40.19378777912667L198,38.191996438162484L202.5,38.876843588692616L207,38.455294847488226L211.5,36.66435323442713L216,36.980401754379095L220.5,37.19110076768039L225,36.13745498657207L229.5,35.979506083897L234,34.71516128948737L238.5,35.61070745331882L243,35.03120980943934" style="fill: none;" fill="none"></path></g><g><path stroke="rgb(255, 112, 67)" stroke-width="2px" d="M22.5,109.99288487434386L27,81.33570906094135L31.5,84.70719470296581L36,56.050018889563276L40.5,54.36427606855105L45,56.68211592946719L49.5,58.15715973717813L54,56.4714169161659L58.5,52.67853324753882L63,62.16074241910649L67.5,47.20005747250133L72,58.15715973717813L76.5,50.78209141322529L81,48.88564957891177L85.5,52.25713522093622L90,51.20364015442969L94.5,49.30719832011616L99,50.360693386622685L103.5,46.14641169139301L108,53.31078100204452L112.5,50.360693386622685L117,49.30719832011616L121.5,50.78209141322529L126,46.35711070469432L130.5,46.14641169139301L135,47.410756485802615L139.5,49.517897333417466L144,48.25355253900784L148.5,47.62145549910393L153,47.62145549910393L157.5,47.20005747250133L162,45.5143146514891L166.5,46.778508731296924L171,46.35711070469432L175.5,47.410756485802615L180,44.460668870380786L184.5,46.56780971799561L189,44.67136788368207L193.5,45.935712678091704L198,46.56780971799561L202.5,43.828571830476875L207,46.778508731296924L211.5,45.09291662488648L216,49.09649930681485L220.5,45.72501366479039L225,45.30361563818779L229.5,45.5143146514891L234,44.88221761158517L238.5,46.35711070469432L243,44.67136788368207" style="fill: none;" fill="none"></path></g><g><path stroke="rgb(187, 187, 187)" stroke-width="2px" d="M22.5,238.68657619612586L27,88.86872628756926L31.5,68.90356298855362L36,59.68480294091348L40.5,54.10082694462352L45,49.35979771614059L49.5,46.462460211344954L54,43.93392133712751L58.5,41.08933394295811L63,40.29913728577733L67.5,36.55900372777648L72,36.66435323442713L76.5,34.662561893462936L81,32.92406896182449L85.5,32.871469565800055L90,30.553629704883917L94.5,29.71068293707691L99,29.078585897173L103.5,28.81513677324547L108,27.603542089462064L112.5,26.339348009654245L117,25.233102832521492L121.5,24.232207162039415L126,23.86340853146123L130.5,22.809762750352913L135,22.915112257003567L139.5,22.441114834376535L144,21.334869657243782L148.5,21.176770039966907L153,19.75447634288221L157.5,19.807075738906644L162,19.069629192352078L166.5,19.807075738906644L171,17.647335495267363L175.5,18.279432535171274L180,17.120587962014106L184.5,17.015238455363452L189,17.015238455363452L193.5,17.067837851387885L198,16.172291687556445L202.5,16.06694218090579L207,15.59279404367697L211.5,15.59279404367697L216,15.750893660953825L220.5,15.066046510423694L225,15.540194647652536L229.5,14.960697003773038L234,14.74999799047175L238.5,15.22414612770057L243,14.381199359893563" style="fill: none;" fill="none"></path></g></g></g></g></g></g><g transform="translate(60, 177)" clip-path="url(#clip_1)"><clipPath id="clip_1"><rect width="270" height="23"></rect></clipPath><g><g><line x1="0" y1="0" x2="0" y2="5" style="visibility: inherit;" fill="rgb(0, 0, 0)" stroke="rgb(204, 204, 204)" stroke-width="1px"></line><line x1="22.5" y1="0" x2="22.5" y2="5" style="visibility: inherit;" fill="rgb(0, 0, 0)" stroke="rgb(204, 204, 204)" stroke-width="1px"></line><line x1="45" y1="0" x2="45" y2="5" style="visibility: inherit;" fill="rgb(0, 0, 0)" stroke="rgb(204, 204, 204)" stroke-width="1px"></line><line x1="67.5" y1="0" x2="67.5" y2="5" style="visibility: inherit;" fill="rgb(0, 0, 0)" stroke="rgb(204, 204, 204)" stroke-width="1px"></line><line x1="90" y1="0" x2="90" y2="5" style="visibility: inherit;" fill="rgb(0, 0, 0)" stroke="rgb(204, 204, 204)" stroke-width="1px"></line><line x1="112.5" y1="0" x2="112.5" y2="5" style="visibility: inherit;" fill="rgb(0, 0, 0)" stroke="rgb(204, 204, 204)" stroke-width="1px"></line><line x1="135" y1="0" x2="135" y2="5" style="visibility: inherit;" fill="rgb(0, 0, 0)" stroke="rgb(204, 204, 204)" stroke-width="1px"></line><line x1="157.5" y1="0" x2="157.5" y2="5" style="visibility: inherit;" fill="rgb(0, 0, 0)" stroke="rgb(204, 204, 204)" stroke-width="1px"></line><line x1="180" y1="0" x2="180" y2="5" style="visibility: inherit;" fill="rgb(0, 0, 0)" stroke="rgb(204, 204, 204)" stroke-width="1px"></line><line x1="202.5" y1="0" x2="202.5" y2="5" style="visibility: inherit;" fill="rgb(0, 0, 0)" stroke="rgb(204, 204, 204)" stroke-width="1px"></line><line x1="225" y1="0" x2="225" y2="5" style="visibility: inherit;" fill="rgb(0, 0, 0)" stroke="rgb(204, 204, 204)" stroke-width="1px"></line><line x1="247.5" y1="0" x2="247.5" y2="5" style="visibility: inherit;" fill="rgb(0, 0, 0)" stroke="rgb(204, 204, 204)" stroke-width="1px"></line><line x1="270" y1="0" x2="270" y2="5" style="visibility: inherit;" fill="rgb(0, 0, 0)" stroke="rgb(204, 204, 204)" stroke-width="1px"></line></g><g transform="translate(0, 8)"><text x="0" y="0" dx="0em" dy="0.95em" style="text-anchor: middle; visibility: hidden; font-family: Roboto, sans-serif; font-size: 12px; font-weight: 200;" fill="rgb(255, 255, 255)" stroke="none" stroke-width="1px">-5</text><text x="22.5" y="0" dx="0em" dy="0.95em" style="text-anchor: middle; visibility: inherit; font-family: Roboto, sans-serif; font-size: 12px; font-weight: 200;" fill="rgb(255, 255, 255)" stroke="none" stroke-width="1px">0</text><text x="45" y="0" dx="0em" dy="0.95em" style="text-anchor: middle; visibility: inherit; font-family: Roboto, sans-serif; font-size: 12px; font-weight: 200;" fill="rgb(255, 255, 255)" stroke="none" stroke-width="1px">5</text><text x="67.5" y="0" dx="0em" dy="0.95em" style="text-anchor: middle; visibility: inherit; font-family: Roboto, sans-serif; font-size: 12px; font-weight: 200;" fill="rgb(255, 255, 255)" stroke="none" stroke-width="1px">10</text><text x="90" y="0" dx="0em" dy="0.95em" style="text-anchor: middle; visibility: inherit; font-family: Roboto, sans-serif; font-size: 12px; font-weight: 200;" fill="rgb(255, 255, 255)" stroke="none" stroke-width="1px">15</text><text x="112.5" y="0" dx="0em" dy="0.95em" style="text-anchor: middle; visibility: inherit; font-family: Roboto, sans-serif; font-size: 12px; font-weight: 200;" fill="rgb(255, 255, 255)" stroke="none" stroke-width="1px">20</text><text x="135" y="0" dx="0em" dy="0.95em" style="text-anchor: middle; visibility: inherit; font-family: Roboto, sans-serif; font-size: 12px; font-weight: 200;" fill="rgb(255, 255, 255)" stroke="none" stroke-width="1px">25</text><text x="157.5" y="0" dx="0em" dy="0.95em" style="text-anchor: middle; visibility: inherit; font-family: Roboto, sans-serif; font-size: 12px; font-weight: 200;" fill="rgb(255, 255, 255)" stroke="none" stroke-width="1px">30</text><text x="180" y="0" dx="0em" dy="0.95em" style="text-anchor: middle; visibility: inherit; font-family: Roboto, sans-serif; font-size: 12px; font-weight: 200;" fill="rgb(255, 255, 255)" stroke="none" stroke-width="1px">35</text><text x="202.5" y="0" dx="0em" dy="0.95em" style="text-anchor: middle; visibility: inherit; font-family: Roboto, sans-serif; font-size: 12px; font-weight: 200;" fill="rgb(255, 255, 255)" stroke="none" stroke-width="1px">40</text><text x="225" y="0" dx="0em" dy="0.95em" style="text-anchor: middle; visibility: inherit; font-family: Roboto, sans-serif; font-size: 12px; font-weight: 200;" fill="rgb(255, 255, 255)" stroke="none" stroke-width="1px">45</text><text x="247.5" y="0" dx="0em" dy="0.95em" style="text-anchor: middle; visibility: inherit; font-family: Roboto, sans-serif; font-size: 12px; font-weight: 200;" fill="rgb(255, 255, 255)" stroke="none" stroke-width="1px">50</text><text x="270" y="0" dx="0em" dy="0.95em" style="text-anchor: middle; visibility: hidden; font-family: Roboto, sans-serif; font-size: 12px; font-weight: 200;" fill="rgb(255, 255, 255)" stroke="none" stroke-width="1px">55</text></g><line x1="0" y1="0" x2="270" y2="0" fill="rgb(0, 0, 0)" stroke="rgb(204, 204, 204)" stroke-width="1px"></line></g></g></g></g></svg>