<svg viewBox="0 0 330 200" xmlns="http://www.w3.org/2000/svg"><g><g><g><g><g><line x1="50" y1="177" x2="45" y2="177" style="visibility: inherit;" fill="rgb(0, 0, 0)" stroke="rgb(204, 204, 204)" stroke-width="1px"></line><line x1="50" y1="163.3846153846154" x2="45" y2="163.3846153846154" style="visibility: inherit;" fill="rgb(0, 0, 0)" stroke="rgb(204, 204, 204)" stroke-width="1px"></line><line x1="50" y1="149.76923076923075" x2="45" y2="149.76923076923075" style="visibility: inherit;" fill="rgb(0, 0, 0)" stroke="rgb(204, 204, 204)" stroke-width="1px"></line><line x1="50" y1="136.15384615384613" x2="45" y2="136.15384615384613" style="visibility: inherit;" fill="rgb(0, 0, 0)" stroke="rgb(204, 204, 204)" stroke-width="1px"></line><line x1="50" y1="122.53846153846149" x2="45" y2="122.53846153846149" style="visibility: inherit;" fill="rgb(0, 0, 0)" stroke="rgb(204, 204, 204)" stroke-width="1px"></line><line x1="50" y1="108.92307692307685" x2="45" y2="108.92307692307685" style="visibility: inherit;" fill="rgb(0, 0, 0)" stroke="rgb(204, 204, 204)" stroke-width="1px"></line><line x1="50" y1="95.30769230769225" x2="45" y2="95.30769230769225" style="visibility: inherit;" fill="rgb(0, 0, 0)" stroke="rgb(204, 204, 204)" stroke-width="1px"></line><line x1="50" y1="81.69230769230775" x2="45" y2="81.69230769230775" style="visibility: inherit;" fill="rgb(0, 0, 0)" stroke="rgb(204, 204, 204)" stroke-width="1px"></line><line x1="50" y1="68.07692307692312" x2="45" y2="68.07692307692312" style="visibility: inherit;" fill="rgb(0, 0, 0)" stroke="rgb(204, 204, 204)" stroke-width="1px"></line><line x1="50" y1="54.4615384615385" x2="45" y2="54.4615384615385" style="visibility: inherit;" fill="rgb(0, 0, 0)" stroke="rgb(204, 204, 204)" stroke-width="1px"></line><line x1="50" y1="40.846153846153875" x2="45" y2="40.846153846153875" style="visibility: inherit;" fill="rgb(0, 0, 0)" stroke="rgb(204, 204, 204)" stroke-width="1px"></line><line x1="50" y1="27.23076923076925" x2="45" y2="27.23076923076925" style="visibility: inherit;" fill="rgb(0, 0, 0)" stroke="rgb(204, 204, 204)" stroke-width="1px"></line><line x1="50" y1="13.615384615384626" x2="45" y2="13.615384615384626" style="visibility: inherit;" fill="rgb(0, 0, 0)" stroke="rgb(204, 204, 204)" stroke-width="1px"></line><line x1="50" y1="0" x2="45" y2="0" style="visibility: inherit;" fill="rgb(0, 0, 0)" stroke="rgb(204, 204, 204)" stroke-width="1px"></line></g><g transform="translate(40, 0)"><text x="0" y="177" dx="0em" dy="0.3em" style="text-anchor: end; visibility: hidden; font-family: Roboto, sans-serif; font-size: 12px; font-weight: 200;" fill="rgb(255, 255, 255)" stroke="none" stroke-width="1px">0.87</text><text x="0" y="163.3846153846154" dx="0em" dy="0.3em" style="text-anchor: end; visibility: inherit; font-family: Roboto, sans-serif; font-size: 12px; font-weight: 200;" fill="rgb(255, 255, 255)" stroke="none" stroke-width="1px">0.88</text><text x="0" y="149.76923076923075" dx="0em" dy="0.3em" style="text-anchor: end; visibility: hidden; font-family: Roboto, sans-serif; font-size: 12px; font-weight: 200;" fill="rgb(255, 255, 255)" stroke="none" stroke-width="1px">0.89</text><text x="0" y="136.15384615384613" dx="0em" dy="0.3em" style="text-anchor: end; visibility: inherit; font-family: Roboto, sans-serif; font-size: 12px; font-weight: 200;" fill="rgb(255, 255, 255)" stroke="none" stroke-width="1px">0.9</text><text x="0" y="122.53846153846149" dx="0em" dy="0.3em" style="text-anchor: end; visibility: hidden; font-family: Roboto, sans-serif; font-size: 12px; font-weight: 200;" fill="rgb(255, 255, 255)" stroke="none" stroke-width="1px">0.91</text><text x="0" y="108.92307692307685" dx="0em" dy="0.3em" style="text-anchor: end; visibility: inherit; font-family: Roboto, sans-serif; font-size: 12px; font-weight: 200;" fill="rgb(255, 255, 255)" stroke="none" stroke-width="1px">0.92</text><text x="0" y="95.30769230769225" dx="0em" dy="0.3em" style="text-anchor: end; visibility: hidden; font-family: Roboto, sans-serif; font-size: 12px; font-weight: 200;" fill="rgb(255, 255, 255)" stroke="none" stroke-width="1px">0.93</text><text x="0" y="81.69230769230775" dx="0em" dy="0.3em" style="text-anchor: end; visibility: inherit; font-family: Roboto, sans-serif; font-size: 12px; font-weight: 200;" fill="rgb(255, 255, 255)" stroke="none" stroke-width="1px">0.94</text><text x="0" y="68.07692307692312" dx="0em" dy="0.3em" style="text-anchor: end; visibility: hidden; font-family: Roboto, sans-serif; font-size: 12px; font-weight: 200;" fill="rgb(255, 255, 255)" stroke="none" stroke-width="1px">0.95</text><text x="0" y="54.4615384615385" dx="0em" dy="0.3em" style="text-anchor: end; visibility: inherit; font-family: Roboto, sans-serif; font-size: 12px; font-weight: 200;" fill="rgb(255, 255, 255)" stroke="none" stroke-width="1px">0.96</text><text x="0" y="40.846153846153875" dx="0em" dy="0.3em" style="text-anchor: end; visibility: hidden; font-family: Roboto, sans-serif; font-size: 12px; font-weight: 200;" fill="rgb(255, 255, 255)" stroke="none" stroke-width="1px">0.97</text><text x="0" y="27.23076923076925" dx="0em" dy="0.3em" style="text-anchor: end; visibility: inherit; font-family: Roboto, sans-serif; font-size: 12px; font-weight: 200;" fill="rgb(255, 255, 255)" stroke="none" stroke-width="1px">0.98</text><text x="0" y="13.615384615384626" dx="0em" dy="0.3em" style="text-anchor: end; visibility: hidden; font-family: Roboto, sans-serif; font-size: 12px; font-weight: 200;" fill="rgb(255, 255, 255)" stroke="none" stroke-width="1px">0.99</text><text x="0" y="0" dx="0em" dy="0.3em" style="text-anchor: end; visibility: hidden; font-family: Roboto, sans-serif; font-size: 12px; font-weight: 200;" fill="rgb(255, 255, 255)" stroke="none" stroke-width="1px">1</text></g><line x1="50" y1="0" x2="50" y2="177" fill="rgb(0, 0, 0)" stroke="rgb(204, 204, 204)" stroke-width="1px"></line></g></g><g transform="translate(50, 0)" clip-path="url(#clip_0)"><clipPath id="clip_0"><rect width="280" height="177"></rect></clipPath><g><g><g><line x1="0" y1="0" x2="0" y2="177" fill="rgb(0, 0, 0)" stroke="rgb(189, 189, 189)" stroke-width="1px" opacity="0.25"></line><line x1="23.333333333333332" y1="0" x2="23.333333333333332" y2="177" fill="rgb(0, 0, 0)" stroke="rgb(189, 189, 189)" stroke-width="1px" opacity="0.25"></line><line x1="46.666666666666664" y1="0" x2="46.666666666666664" y2="177" fill="rgb(0, 0, 0)" stroke="rgb(189, 189, 189)" stroke-width="1px" opacity="0.25"></line><line x1="70" y1="0" x2="70" y2="177" fill="rgb(0, 0, 0)" stroke="rgb(189, 189, 189)" stroke-width="1px" opacity="0.25"></line><line x1="93.33333333333333" y1="0" x2="93.33333333333333" y2="177" fill="rgb(0, 0, 0)" stroke="rgb(189, 189, 189)" stroke-width="1px" opacity="0.25"></line><line x1="116.66666666666667" y1="0" x2="116.66666666666667" y2="177" fill="rgb(0, 0, 0)" stroke="rgb(189, 189, 189)" stroke-width="1px" opacity="0.25"></line><line x1="140" y1="0" x2="140" y2="177" fill="rgb(0, 0, 0)" stroke="rgb(189, 189, 189)" stroke-width="1px" opacity="0.25"></line><line x1="163.33333333333334" y1="0" x2="163.33333333333334" y2="177" fill="rgb(0, 0, 0)" stroke="rgb(189, 189, 189)" stroke-width="1px" opacity="0.25"></line><line x1="186.66666666666666" y1="0" x2="186.66666666666666" y2="177" fill="rgb(0, 0, 0)" stroke="rgb(189, 189, 189)" stroke-width="1px" opacity="0.25"></line><line x1="210" y1="0" x2="210" y2="177" fill="rgb(0, 0, 0)" stroke="rgb(189, 189, 189)" stroke-width="1px" opacity="0.25"></line><line x1="233.33333333333334" y1="0" x2="233.33333333333334" y2="177" fill="rgb(0, 0, 0)" stroke="rgb(189, 189, 189)" stroke-width="1px" opacity="0.25"></line><line x1="256.66666666666663" y1="0" x2="256.66666666666663" y2="177" fill="rgb(0, 0, 0)" stroke="rgb(189, 189, 189)" stroke-width="1px" opacity="0.25"></line><line x1="280" y1="0" x2="280" y2="177" fill="rgb(0, 0, 0)" stroke="rgb(189, 189, 189)" stroke-width="1px" opacity="0.25"></line></g><g><line x1="0" y1="177" x2="280" y2="177" fill="rgb(0, 0, 0)" stroke="rgb(189, 189, 189)" stroke-width="1px" opacity="0.25"></line><line x1="0" y1="163.3846153846154" x2="280" y2="163.3846153846154" fill="rgb(0, 0, 0)" stroke="rgb(189, 189, 189)" stroke-width="1px" opacity="0.25"></line><line x1="0" y1="149.76923076923075" x2="280" y2="149.76923076923075" fill="rgb(0, 0, 0)" stroke="rgb(189, 189, 189)" stroke-width="1px" opacity="0.25"></line><line x1="0" y1="136.15384615384613" x2="280" y2="136.15384615384613" fill="rgb(0, 0, 0)" stroke="rgb(189, 189, 189)" stroke-width="1px" opacity="0.25"></line><line x1="0" y1="122.53846153846149" x2="280" y2="122.53846153846149" fill="rgb(0, 0, 0)" stroke="rgb(189, 189, 189)" stroke-width="1px" opacity="0.25"></line><line x1="0" y1="108.92307692307685" x2="280" y2="108.92307692307685" fill="rgb(0, 0, 0)" stroke="rgb(189, 189, 189)" stroke-width="1px" opacity="0.25"></line><line x1="0" y1="95.30769230769225" x2="280" y2="95.30769230769225" fill="rgb(0, 0, 0)" stroke="rgb(189, 189, 189)" stroke-width="1px" opacity="0.25"></line><line x1="0" y1="81.69230769230775" x2="280" y2="81.69230769230775" fill="rgb(0, 0, 0)" stroke="rgb(189, 189, 189)" stroke-width="1px" opacity="0.25"></line><line x1="0" y1="68.07692307692312" x2="280" y2="68.07692307692312" fill="rgb(0, 0, 0)" stroke="rgb(189, 189, 189)" stroke-width="1px" opacity="0.25"></line><line x1="0" y1="54.4615384615385" x2="280" y2="54.4615384615385" fill="rgb(0, 0, 0)" stroke="rgb(189, 189, 189)" stroke-width="1px" opacity="0.25"></line><line x1="0" y1="40.846153846153875" x2="280" y2="40.846153846153875" fill="rgb(0, 0, 0)" stroke="rgb(189, 189, 189)" stroke-width="1px" opacity="0.25"></line><line x1="0" y1="27.23076923076925" x2="280" y2="27.23076923076925" fill="rgb(0, 0, 0)" stroke="rgb(189, 189, 189)" stroke-width="1px" opacity="0.25"></line><line x1="0" y1="13.615384615384626" x2="280" y2="13.615384615384626" fill="rgb(0, 0, 0)" stroke="rgb(189, 189, 189)" stroke-width="1px" opacity="0.25"></line><line x1="0" y1="0" x2="280" y2="0" fill="rgb(0, 0, 0)" stroke="rgb(189, 189, 189)" stroke-width="1px" opacity="0.25"></line></g></g></g><g><g><line x1="0" y1="1361.5384615384614" x2="280" y2="1361.5384615384614" fill="rgb(0, 0, 0)" stroke="rgb(153, 153, 153)" stroke-width="1.5px"></line></g></g><g><g><line x1="23.333333333333332" y1="0" x2="23.333333333333332" y2="177" fill="rgb(0, 0, 0)" stroke="rgb(153, 153, 153)" stroke-width="1.5px"></line></g></g><g><g><g><g><g><path stroke="rgb(187, 187, 187)" stroke-width="2px" d="M23.333333333333332,63.31157546776992L28,51.256247781790364L32.666666666666664,48.95518982616309L37.333333333333336,47.99215567058052L42,42.48140887048826L46.666666666666664,39.46263242790271L51.33333333333333,36.716859985061234L56,35.16558646246471L60.66666666666667,34.389230345695594L65.33333333333333,33.83710696411995L70,33.052479086265045L74.66666666666667,31.992251382605513L79.33333333333333,31.63027029017625L84,29.8690793361301L88.66666666666666,30.039218088206923L93.33333333333333,30.640618051272412L98,29.32182623389894L102.66666666666666,29.801597607625304L107.33333333333334,28.4555045620852L112,27.057857499604246L116.66666666666667,27.353957391200545L121.33333333333334,28.076228710196133L126,27.511123438195117L130.66666666666666,27.1720631312044L135.33333333333334,25.87937567103606L140,26.41992362929131L144.66666666666669,26.51734495216898L149.33333333333334,26.530416328271265L154,27.35518823996396L158.66666666666666,27.0331222217206L163.33333333333334,25.97757242585457L168,25.934232383748565L172.66666666666669,26.54363187743288L177.33333333333331,26.137724068689895L182,26.66572686837464L186.66666666666666,26.483269028653446L191.33333333333334,25.783804623523697L196,25.817971705926322L200.66666666666666,26.38308032940839L205.33333333333331,26.313681107062873L210,26.453599339234593L214.66666666666669,26.991395999708836L219.33333333333334,27.767919716983357L224,26.736120344439232L228.66666666666666,26.933969511277734L233.33333333333334,26.735009729755248L238,27.52332530293293L242.66666666666669,26.99782809125868L247.33333333333331,27.09099415935007L252,27.37383289152152" style="fill: none;" fill="none"></path></g><g><path stroke="rgb(0, 153, 136)" stroke-width="2px" d="M23.333333333333332,148.09569212106558L28,88.58154639601692L32.666666666666664,66.16602555923227L37.333333333333336,54.16506789793263L42,46.45675784727127L46.666666666666664,41.35345065281234L51.33333333333333,37.49106196768556L56,34.59778393495092L60.66666666666667,32.62961965986146L65.33333333333333,30.845052235828028L70,29.268827734466754L74.66666666666667,27.88327887110297L79.33333333333333,26.769861873564725L84,25.512290690918157L88.66666666666666,24.985392356499375L93.33333333333333,24.192741095905063L98,23.149898400870086L102.66666666666666,22.036358264908426L107.33333333333334,21.436382703236887L112,20.61122893569303L116.66666666666667,19.707682627962335L121.33333333333334,18.836532354264847L126,18.189033665638537L130.66666666666666,17.44881455166272L135.33333333333334,17.140829692933192L140,16.195852139411357L144.66666666666669,15.685577123619408L149.33333333333334,15.322701986942304L154,14.832656529957806L158.66666666666666,14.277670458665835L163.33333333333334,14.103513556279125L168,13.806132548224376L172.66666666666669,13.514250638266459L177.33333333333331,13.089524201381034L182,12.880069673759689L186.66666666666666,12.709015633081508L191.33333333333334,12.470206769528733L196,12.383664340784206L200.66666666666666,12.354429546764765L205.33333333333331,11.71284674545072L210,11.498093268432768L214.66666666666669,11.53943738549916L219.33333333333334,10.97425415670578L224,10.544349106028307L228.66666666666666,10.728922696058081L233.33333333333334,10.442531555638107L238,10.645141502841465L242.66666666666669,10.176685310688748L247.33333333333331,10.167932012664757L252,10.03786515670624" style="fill: none;" fill="none"></path></g><g><path stroke="rgb(51, 187, 238)" stroke-width="2px" d="M23.333333333333332,88.27309012413025L28,73.2394100381778L32.666666666666664,64.5850691353694L37.333333333333336,60.14127860275613L42,56.79202769141588L46.666666666666664,54.14800805090567L51.33333333333333,53.529964499082716L56,52.29335929702295L60.66666666666667,50.60204911678831L65.33333333333333,49.32426080392646L70,48.5625506515028L74.66666666666667,47.24310576161931L79.33333333333333,48.08927370641199L84,47.687863315279486L88.66666666666666,47.71966701337616L93.33333333333333,47.10315686792645L98,46.64258409347583L102.66666666666666,46.82018214626582L107.33333333333334,47.38060281189295L112,45.674469168732955L116.66666666666667,45.46774315540707L121.33333333333334,45.52527060490979L126,46.01363589521843L130.66666666666666,44.582024196897926L135.33333333333334,45.765356839484426L140,45.749219356584454L144.66666666666669,45.96644374640796L149.33333333333334,46.14215959182318L154,44.74990733728214L158.66666666666666,45.230712440967686L163.33333333333334,44.38459721289462L168,44.8753823212763L172.66666666666669,45.623699104003514L177.33333333333331,45.70960607122673L182,45.48882982804635L186.66666666666666,46.71790126168495L191.33333333333334,48.40841688764396L196,46.7450657079812L200.66666666666666,46.110105612479714L205.33333333333331,46.40991436933465L210,46.8620875790604L214.66666666666669,46.04417475832274L219.33333333333334,46.59726248630848L224,46.20298144619624L228.66666666666666,46.28408210379859L233.33333333333334,46.78658821940759L238,46.72504128120462L242.66666666666669,46.778875770170025L247.33333333333331,46.03962899931402L252,46.276865749152705" style="fill: none;" fill="none"></path></g><g><path stroke="rgb(204, 51, 17)" stroke-width="2px" d="M23.333333333333332,162.67549808208759L28,111.31641801733238L32.666666666666664,87.21489143708425L37.333333333333336,72.26708944701495L42,61.3210094803609L46.666666666666664,53.36102171716603L51.33333333333333,47.51053032049454L56,43.01054162316021L60.66666666666667,39.72901882159717L65.33333333333333,36.29743537910257L70,33.95572806100646L74.66666666666667,31.52139398074036L79.33333333333333,29.5643094127693L84,27.403829186343135L88.66666666666666,25.983751516416753L93.33333333333333,24.43982314147218L98,23.797442460018114L102.66666666666666,22.39083517285693L107.33333333333334,21.14980273761436L112,20.030805817865303L116.66666666666667,18.985013466997987L121.33333333333334,18.017155852695566L126,17.198179363518484L130.66666666666666,16.525238983695026L135.33333333333334,15.429360915813671L140,14.942032562489947L144.66666666666669,14.218480583186109L149.33333333333334,13.466680392883543L154,12.822713637048597L158.66666666666666,11.993817017231281L163.33333333333334,11.439736266861935L168,10.630751441756304L172.66666666666669,10.122669923844253L177.33333333333331,9.647624820663397L182,9.249144450660703L186.66666666666666,8.340632976086802L191.33333333333334,7.818216760451113L196,7.255169739531892L200.66666666666666,6.622330447432947L205.33333333333331,6.299369761382259L210,5.890015820828241L214.66666666666669,5.077071958947183L219.33333333333334,4.714120519248246L224,4.450968329546347L228.66666666666666,4.111551711968246L233.33333333333334,3.669633549431244L238,3.143523796948222L242.66666666666669,2.9413112603280087L247.33333333333331,2.5930446470401423L252,2.5769715451280373" style="fill: none;" fill="none"></path></g></g></g></g><g opacity="0.2"><g><g><g><path stroke="rgb(187, 187, 187)" stroke-width="2px" d="M23.333333333333332,63.31157546776992L28,44.02305117020241L32.666666666666664,46.746174188760605L37.333333333333336,46.85962750361516L42,35.286577848287735L46.666666666666664,35.286577848287735L51.33333333333333,32.79036145943862L56,32.90381477429317L60.66666666666667,33.244255872873154L65.33333333333333,33.01726808914772L70,31.882653786585884L74.66666666666667,30.407679539460407L79.33333333333333,31.088480582604035L84,27.230743261483997L88.66666666666666,30.29422622460586L93.33333333333333,31.542293842022243L98,27.344196576338543L102.66666666666666,30.521132854314953L107.33333333333334,26.436570057502166L112,24.961514656360325L116.66666666666667,27.798090989773097L121.33333333333334,29.159611922044025L126,26.66347668721126L130.66666666666666,26.66347668721126L135.33333333333334,23.94035366865304L140,27.230743261483997L144.66666666666669,26.66347668721126L149.33333333333334,26.550023372356716L154,28.59234534777127L158.66666666666666,26.550023372356716L163.33333333333334,24.394248082087593L168,25.869222329213066L172.66666666666669,27.457731045209435L177.33333333333331,25.528862384649425L182,27.457731045209435L186.66666666666666,26.209582273776707L191.33333333333334,24.734608026651234L196,25.869222329213066L200.66666666666666,27.230743261483997L205.33333333333331,26.209582273776707L210,26.66347668721126L214.66666666666669,27.798090989773097L219.33333333333334,28.93270529233493L224,25.18842128606942L228.66666666666666,27.230743261483997L233.33333333333334,26.436570057502166L238,28.705798662625817L242.66666666666669,26.209582273776707L247.33333333333331,27.230743261483997L252,27.798090989773097" style="fill: none;" fill="none"></path></g><g><path stroke="rgb(0, 153, 136)" stroke-width="2px" d="M23.333333333333332,148.09569212106558L28,52.87305896098797L32.666666666666664,44.64712555591877L37.333333333333336,40.05194168824416L42,36.392788245127754L46.666666666666664,34.29373961228591L51.33333333333333,31.96778434973496L56,30.379356787754936L60.66666666666667,29.726959650333104L65.33333333333333,28.195177591764L70,26.91878722264217L74.66666666666667,25.812495671785783L79.33333333333333,25.103371876936688L84,23.62839762981121L88.66666666666666,24.195664204083947L93.33333333333333,23.00432324409485L98,21.586075654396637L102.66666666666666,20.366330788685723L107.33333333333334,20.536510760967555L112,19.37357370670025L116.66666666666667,18.352412718992962L121.33333333333334,17.529835609289318L126,17.217798416431126L130.66666666666666,16.338494649300202L135.33333333333334,16.67885459386386L140,14.778389839025648L144.66666666666669,14.920165905585664L149.33333333333334,14.778389839025648L154,14.097588795882L158.66666666666666,13.445191658460168L163.33333333333334,13.842278260451092L168,13.36006109531109L172.66666666666669,13.076427808174712L177.33333333333331,12.452434576474694L182,12.565887891329261L186.66666666666666,12.452434576474694L191.33333333333334,12.111993477894709L196,12.25385069847107L200.66666666666666,12.310577355898353L205.33333333333331,10.75047254562378L210,11.175963053336519L214.66666666666669,11.601453561049237L219.33333333333334,10.126479313923761L224,9.899491530198322L228.66666666666666,11.005783081054688L233.33333333333334,10.01294484505287L238,10.949056423627404L242.66666666666669,9.474001022485583L247.33333333333331,10.15480206562923L252,9.842764872771038" style="fill: none;" fill="none"></path></g><g><path stroke="rgb(51, 187, 238)" stroke-width="2px" d="M23.333333333333332,88.27309012413025L28,64.2192019866063L32.666666666666664,56.27690186867348L37.333333333333336,54.91538093640254L42,52.41924570156978L46.666666666666664,50.49037704100975L51.33333333333333,52.64615233127888L56,50.49037704100975L60.66666666666667,48.10769512103154L65.33333333333333,47.42689407788791L70,47.42689407788791L74.66666666666667,45.27111878761879L79.33333333333333,49.35576273844792L84,47.08653413332425L88.66666666666666,47.767335176467896L93.33333333333333,46.17882646047153L98,45.951919830762414L102.66666666666666,47.08653413332425L107.33333333333334,48.221148435886086L112,43.11542465136601L116.66666666666667,45.157665472764236L121.33333333333334,45.611559886198776L126,46.746174188760605L130.66666666666666,42.43462360822238L135.33333333333334,47.540347392742454L140,45.72501320105332L144.66666666666669,46.29227977532607L149.33333333333334,46.40573309018062L154,42.66153023793147L158.66666666666666,45.951919830762414L163.33333333333334,43.11542465136601L168,45.611559886198776L172.66666666666669,46.746174188760605L177.33333333333331,45.83846651590787L182,45.157665472764236L186.66666666666666,48.56150838044972L191.33333333333334,50.94419030042794L196,44.25003895392784L200.66666666666666,45.157665472764236L205.33333333333331,46.85962750361516L210,47.540347392742454L214.66666666666669,44.81730552820058L219.33333333333334,47.42689407788791L224,45.611559886198776L228.66666666666666,46.40573309018062L233.33333333333334,47.540347392742454L238,46.63272087390606L242.66666666666669,46.85962750361516L247.33333333333331,44.930758843055145L252,46.63272087390606" style="fill: none;" fill="none"></path></g><g><path stroke="rgb(204, 51, 17)" stroke-width="2px" d="M23.333333333333332,162.67549808208759L28,80.50096997847923L32.666666666666664,64.07742592004628L37.333333333333336,54.68847430669345L42,47.02980747589699L46.666666666666664,42.34949304507329L51.33333333333333,39.144234015391426L56,36.449514902555016L60.66666666666667,34.889410092280464L65.33333333333333,31.20193389745858L70,30.46440619688767L74.66666666666667,27.88314039890583L79.33333333333333,26.63507278148945L84,24.167341452378498L88.66666666666666,23.855304259520306L93.33333333333333,22.12501947696392L98,22.83414327181302L102.66666666666666,20.28128137955299L107.33333333333334,19.288443143551174L112,18.352412718992962L116.66666666666667,17.416382294434772L121.33333333333334,16.565401279009315L126,15.969730799014746L130.66666666666666,15.515836385580213L135.33333333333334,13.785551603023828L140,14.211042110736548L144.66666666666669,13.133154465601995L149.33333333333334,12.338981261620146L154,11.856764096480145L158.66666666666666,10.75047254562378L163.33333333333334,10.608615325047419L168,9.41727436505832L172.66666666666669,9.360547707631037L177.33333333333331,8.935057199918297L182,8.65142391278194L186.66666666666666,6.97786578765282L191.33333333333334,7.0345924450801025L196,6.410599213380085L200.66666666666666,5.673071512809174L205.33333333333331,5.8149287333855355L210,5.2759849108182495L214.66666666666669,3.8576561671036926L219.33333333333334,4.169693359961884L224,4.056240045107337L228.66666666666666,3.602426785689129L233.33333333333334,3.00675630569458L238,2.3543591682727474L242.66666666666669,2.6379924554091247L247.33333333333331,2.0706447271200252L252,2.5528618922600472" style="fill: none;" fill="none"></path></g></g></g></g></g></g><g transform="translate(50, 177)" clip-path="url(#clip_1)"><clipPath id="clip_1"><rect width="280" height="23"></rect></clipPath><g><g><line x1="0" y1="0" x2="0" y2="5" style="visibility: inherit;" fill="rgb(0, 0, 0)" stroke="rgb(204, 204, 204)" stroke-width="1px"></line><line x1="23.333333333333332" y1="0" x2="23.333333333333332" y2="5" style="visibility: inherit;" fill="rgb(0, 0, 0)" stroke="rgb(204, 204, 204)" stroke-width="1px"></line><line x1="46.666666666666664" y1="0" x2="46.666666666666664" y2="5" style="visibility: inherit;" fill="rgb(0, 0, 0)" stroke="rgb(204, 204, 204)" stroke-width="1px"></line><line x1="70" y1="0" x2="70" y2="5" style="visibility: inherit;" fill="rgb(0, 0, 0)" stroke="rgb(204, 204, 204)" stroke-width="1px"></line><line x1="93.33333333333333" y1="0" x2="93.33333333333333" y2="5" style="visibility: inherit;" fill="rgb(0, 0, 0)" stroke="rgb(204, 204, 204)" stroke-width="1px"></line><line x1="116.66666666666667" y1="0" x2="116.66666666666667" y2="5" style="visibility: inherit;" fill="rgb(0, 0, 0)" stroke="rgb(204, 204, 204)" stroke-width="1px"></line><line x1="140" y1="0" x2="140" y2="5" style="visibility: inherit;" fill="rgb(0, 0, 0)" stroke="rgb(204, 204, 204)" stroke-width="1px"></line><line x1="163.33333333333334" y1="0" x2="163.33333333333334" y2="5" style="visibility: inherit;" fill="rgb(0, 0, 0)" stroke="rgb(204, 204, 204)" stroke-width="1px"></line><line x1="186.66666666666666" y1="0" x2="186.66666666666666" y2="5" style="visibility: inherit;" fill="rgb(0, 0, 0)" stroke="rgb(204, 204, 204)" stroke-width="1px"></line><line x1="210" y1="0" x2="210" y2="5" style="visibility: inherit;" fill="rgb(0, 0, 0)" stroke="rgb(204, 204, 204)" stroke-width="1px"></line><line x1="233.33333333333334" y1="0" x2="233.33333333333334" y2="5" style="visibility: inherit;" fill="rgb(0, 0, 0)" stroke="rgb(204, 204, 204)" stroke-width="1px"></line><line x1="256.66666666666663" y1="0" x2="256.66666666666663" y2="5" style="visibility: inherit;" fill="rgb(0, 0, 0)" stroke="rgb(204, 204, 204)" stroke-width="1px"></line><line x1="280" y1="0" x2="280" y2="5" style="visibility: inherit;" fill="rgb(0, 0, 0)" stroke="rgb(204, 204, 204)" stroke-width="1px"></line></g><g transform="translate(0, 8)"><text x="0" y="0" dx="0em" dy="0.95em" style="text-anchor: middle; visibility: hidden; font-family: Roboto, sans-serif; font-size: 12px; font-weight: 200;" fill="rgb(255, 255, 255)" stroke="none" stroke-width="1px">-5</text><text x="23.333333333333332" y="0" dx="0em" dy="0.95em" style="text-anchor: middle; visibility: inherit; font-family: Roboto, sans-serif; font-size: 12px; font-weight: 200;" fill="rgb(255, 255, 255)" stroke="none" stroke-width="1px">0</text><text x="46.666666666666664" y="0" dx="0em" dy="0.95em" style="text-anchor: middle; visibility: inherit; font-family: Roboto, sans-serif; font-size: 12px; font-weight: 200;" fill="rgb(255, 255, 255)" stroke="none" stroke-width="1px">5</text><text x="70" y="0" dx="0em" dy="0.95em" style="text-anchor: middle; visibility: inherit; font-family: Roboto, sans-serif; font-size: 12px; font-weight: 200;" fill="rgb(255, 255, 255)" stroke="none" stroke-width="1px">10</text><text x="93.33333333333333" y="0" dx="0em" dy="0.95em" style="text-anchor: middle; visibility: inherit; font-family: Roboto, sans-serif; font-size: 12px; font-weight: 200;" fill="rgb(255, 255, 255)" stroke="none" stroke-width="1px">15</text><text x="116.66666666666667" y="0" dx="0em" dy="0.95em" style="text-anchor: middle; visibility: inherit; font-family: Roboto, sans-serif; font-size: 12px; font-weight: 200;" fill="rgb(255, 255, 255)" stroke="none" stroke-width="1px">20</text><text x="140" y="0" dx="0em" dy="0.95em" style="text-anchor: middle; visibility: inherit; font-family: Roboto, sans-serif; font-size: 12px; font-weight: 200;" fill="rgb(255, 255, 255)" stroke="none" stroke-width="1px">25</text><text x="163.33333333333334" y="0" dx="0em" dy="0.95em" style="text-anchor: middle; visibility: inherit; font-family: Roboto, sans-serif; font-size: 12px; font-weight: 200;" fill="rgb(255, 255, 255)" stroke="none" stroke-width="1px">30</text><text x="186.66666666666666" y="0" dx="0em" dy="0.95em" style="text-anchor: middle; visibility: inherit; font-family: Roboto, sans-serif; font-size: 12px; font-weight: 200;" fill="rgb(255, 255, 255)" stroke="none" stroke-width="1px">35</text><text x="210" y="0" dx="0em" dy="0.95em" style="text-anchor: middle; visibility: inherit; font-family: Roboto, sans-serif; font-size: 12px; font-weight: 200;" fill="rgb(255, 255, 255)" stroke="none" stroke-width="1px">40</text><text x="233.33333333333334" y="0" dx="0em" dy="0.95em" style="text-anchor: middle; visibility: inherit; font-family: Roboto, sans-serif; font-size: 12px; font-weight: 200;" fill="rgb(255, 255, 255)" stroke="none" stroke-width="1px">45</text><text x="256.66666666666663" y="0" dx="0em" dy="0.95em" style="text-anchor: middle; visibility: inherit; font-family: Roboto, sans-serif; font-size: 12px; font-weight: 200;" fill="rgb(255, 255, 255)" stroke="none" stroke-width="1px">50</text><text x="280" y="0" dx="0em" dy="0.95em" style="text-anchor: middle; visibility: hidden; font-family: Roboto, sans-serif; font-size: 12px; font-weight: 200;" fill="rgb(255, 255, 255)" stroke="none" stroke-width="1px">55</text></g><line x1="0" y1="0" x2="280" y2="0" fill="rgb(0, 0, 0)" stroke="rgb(204, 204, 204)" stroke-width="1px"></line></g></g></g></g></svg>