<svg viewBox="0 0 1496 400" xmlns="http://www.w3.org/2000/svg"><g><g><g><g><g><line x1="60" y1="377" x2="55" y2="377" style="visibility: inherit;" fill="rgb(0, 0, 0)" stroke="rgb(204, 204, 204)" stroke-width="1px"></line><line x1="60" y1="351.8666666666667" x2="55" y2="351.8666666666667" style="visibility: inherit;" fill="rgb(0, 0, 0)" stroke="rgb(204, 204, 204)" stroke-width="1px"></line><line x1="60" y1="326.73333333333335" x2="55" y2="326.73333333333335" style="visibility: inherit;" fill="rgb(0, 0, 0)" stroke="rgb(204, 204, 204)" stroke-width="1px"></line><line x1="60" y1="301.6" x2="55" y2="301.6" style="visibility: inherit;" fill="rgb(0, 0, 0)" stroke="rgb(204, 204, 204)" stroke-width="1px"></line><line x1="60" y1="276.4666666666667" x2="55" y2="276.4666666666667" style="visibility: inherit;" fill="rgb(0, 0, 0)" stroke="rgb(204, 204, 204)" stroke-width="1px"></line><line x1="60" y1="251.33333333333337" x2="55" y2="251.33333333333337" style="visibility: inherit;" fill="rgb(0, 0, 0)" stroke="rgb(204, 204, 204)" stroke-width="1px"></line><line x1="60" y1="226.2" x2="55" y2="226.2" style="visibility: inherit;" fill="rgb(0, 0, 0)" stroke="rgb(204, 204, 204)" stroke-width="1px"></line><line x1="60" y1="201.06666666666666" x2="55" y2="201.06666666666666" style="visibility: inherit;" fill="rgb(0, 0, 0)" stroke="rgb(204, 204, 204)" stroke-width="1px"></line><line x1="60" y1="175.93333333333334" x2="55" y2="175.93333333333334" style="visibility: inherit;" fill="rgb(0, 0, 0)" stroke="rgb(204, 204, 204)" stroke-width="1px"></line><line x1="60" y1="150.8" x2="55" y2="150.8" style="visibility: inherit;" fill="rgb(0, 0, 0)" stroke="rgb(204, 204, 204)" stroke-width="1px"></line><line x1="60" y1="125.66666666666669" x2="55" y2="125.66666666666669" style="visibility: inherit;" fill="rgb(0, 0, 0)" stroke="rgb(204, 204, 204)" stroke-width="1px"></line><line x1="60" y1="100.53333333333336" x2="55" y2="100.53333333333336" style="visibility: inherit;" fill="rgb(0, 0, 0)" stroke="rgb(204, 204, 204)" stroke-width="1px"></line><line x1="60" y1="75.39999999999998" x2="55" y2="75.39999999999998" style="visibility: inherit;" fill="rgb(0, 0, 0)" stroke="rgb(204, 204, 204)" stroke-width="1px"></line><line x1="60" y1="50.26666666666666" x2="55" y2="50.26666666666666" style="visibility: inherit;" fill="rgb(0, 0, 0)" stroke="rgb(204, 204, 204)" stroke-width="1px"></line><line x1="60" y1="25.13333333333333" x2="55" y2="25.13333333333333" style="visibility: inherit;" fill="rgb(0, 0, 0)" stroke="rgb(204, 204, 204)" stroke-width="1px"></line><line x1="60" y1="0" x2="55" y2="0" style="visibility: inherit;" fill="rgb(0, 0, 0)" stroke="rgb(204, 204, 204)" stroke-width="1px"></line></g><g transform="translate(50, 0)"><text x="0" y="377" dx="0em" dy="0.3em" style="text-anchor: end; visibility: hidden; font-family: Roboto, sans-serif; font-size: 12px; font-weight: 200;" fill="rgb(255, 255, 255)" stroke="none" stroke-width="1px">0.972</text><text x="0" y="351.8666666666667" dx="0em" dy="0.3em" style="text-anchor: end; visibility: inherit; font-family: Roboto, sans-serif; font-size: 12px; font-weight: 200;" fill="rgb(255, 255, 255)" stroke="none" stroke-width="1px">0.974</text><text x="0" y="326.73333333333335" dx="0em" dy="0.3em" style="text-anchor: end; visibility: inherit; font-family: Roboto, sans-serif; font-size: 12px; font-weight: 200;" fill="rgb(255, 255, 255)" stroke="none" stroke-width="1px">0.976</text><text x="0" y="301.6" dx="0em" dy="0.3em" style="text-anchor: end; visibility: inherit; font-family: Roboto, sans-serif; font-size: 12px; font-weight: 200;" fill="rgb(255, 255, 255)" stroke="none" stroke-width="1px">0.978</text><text x="0" y="276.4666666666667" dx="0em" dy="0.3em" style="text-anchor: end; visibility: inherit; font-family: Roboto, sans-serif; font-size: 12px; font-weight: 200;" fill="rgb(255, 255, 255)" stroke="none" stroke-width="1px">0.98</text><text x="0" y="251.33333333333337" dx="0em" dy="0.3em" style="text-anchor: end; visibility: inherit; font-family: Roboto, sans-serif; font-size: 12px; font-weight: 200;" fill="rgb(255, 255, 255)" stroke="none" stroke-width="1px">0.982</text><text x="0" y="226.2" dx="0em" dy="0.3em" style="text-anchor: end; visibility: inherit; font-family: Roboto, sans-serif; font-size: 12px; font-weight: 200;" fill="rgb(255, 255, 255)" stroke="none" stroke-width="1px">0.984</text><text x="0" y="201.06666666666666" dx="0em" dy="0.3em" style="text-anchor: end; visibility: inherit; font-family: Roboto, sans-serif; font-size: 12px; font-weight: 200;" fill="rgb(255, 255, 255)" stroke="none" stroke-width="1px">0.986</text><text x="0" y="175.93333333333334" dx="0em" dy="0.3em" style="text-anchor: end; visibility: inherit; font-family: Roboto, sans-serif; font-size: 12px; font-weight: 200;" fill="rgb(255, 255, 255)" stroke="none" stroke-width="1px">0.988</text><text x="0" y="150.8" dx="0em" dy="0.3em" style="text-anchor: end; visibility: inherit; font-family: Roboto, sans-serif; font-size: 12px; font-weight: 200;" fill="rgb(255, 255, 255)" stroke="none" stroke-width="1px">0.99</text><text x="0" y="125.66666666666669" dx="0em" dy="0.3em" style="text-anchor: end; visibility: inherit; font-family: Roboto, sans-serif; font-size: 12px; font-weight: 200;" fill="rgb(255, 255, 255)" stroke="none" stroke-width="1px">0.992</text><text x="0" y="100.53333333333336" dx="0em" dy="0.3em" style="text-anchor: end; visibility: inherit; font-family: Roboto, sans-serif; font-size: 12px; font-weight: 200;" fill="rgb(255, 255, 255)" stroke="none" stroke-width="1px">0.994</text><text x="0" y="75.39999999999998" dx="0em" dy="0.3em" style="text-anchor: end; visibility: inherit; font-family: Roboto, sans-serif; font-size: 12px; font-weight: 200;" fill="rgb(255, 255, 255)" stroke="none" stroke-width="1px">0.996</text><text x="0" y="50.26666666666666" dx="0em" dy="0.3em" style="text-anchor: end; visibility: inherit; font-family: Roboto, sans-serif; font-size: 12px; font-weight: 200;" fill="rgb(255, 255, 255)" stroke="none" stroke-width="1px">0.998</text><text x="0" y="25.13333333333333" dx="0em" dy="0.3em" style="text-anchor: end; visibility: inherit; font-family: Roboto, sans-serif; font-size: 12px; font-weight: 200;" fill="rgb(255, 255, 255)" stroke="none" stroke-width="1px">1</text><text x="0" y="0" dx="0em" dy="0.3em" style="text-anchor: end; visibility: hidden; font-family: Roboto, sans-serif; font-size: 12px; font-weight: 200;" fill="rgb(255, 255, 255)" stroke="none" stroke-width="1px">1</text></g><line x1="60" y1="0" x2="60" y2="377" fill="rgb(0, 0, 0)" stroke="rgb(204, 204, 204)" stroke-width="1px"></line></g></g><g transform="translate(60, 0)" clip-path="url(#clip_0)"><clipPath id="clip_0"><rect width="1436" height="377"></rect></clipPath><g><g><g><line x1="0" y1="0" x2="0" y2="377" fill="rgb(0, 0, 0)" stroke="rgb(189, 189, 189)" stroke-width="1px" opacity="0.25"></line><line x1="119.66666666666666" y1="0" x2="119.66666666666666" y2="377" fill="rgb(0, 0, 0)" stroke="rgb(189, 189, 189)" stroke-width="1px" opacity="0.25"></line><line x1="239.33333333333331" y1="0" x2="239.33333333333331" y2="377" fill="rgb(0, 0, 0)" stroke="rgb(189, 189, 189)" stroke-width="1px" opacity="0.25"></line><line x1="359" y1="0" x2="359" y2="377" fill="rgb(0, 0, 0)" stroke="rgb(189, 189, 189)" stroke-width="1px" opacity="0.25"></line><line x1="478.66666666666663" y1="0" x2="478.66666666666663" y2="377" fill="rgb(0, 0, 0)" stroke="rgb(189, 189, 189)" stroke-width="1px" opacity="0.25"></line><line x1="598.3333333333334" y1="0" x2="598.3333333333334" y2="377" fill="rgb(0, 0, 0)" stroke="rgb(189, 189, 189)" stroke-width="1px" opacity="0.25"></line><line x1="718" y1="0" x2="718" y2="377" fill="rgb(0, 0, 0)" stroke="rgb(189, 189, 189)" stroke-width="1px" opacity="0.25"></line><line x1="837.6666666666667" y1="0" x2="837.6666666666667" y2="377" fill="rgb(0, 0, 0)" stroke="rgb(189, 189, 189)" stroke-width="1px" opacity="0.25"></line><line x1="957.3333333333333" y1="0" x2="957.3333333333333" y2="377" fill="rgb(0, 0, 0)" stroke="rgb(189, 189, 189)" stroke-width="1px" opacity="0.25"></line><line x1="1077" y1="0" x2="1077" y2="377" fill="rgb(0, 0, 0)" stroke="rgb(189, 189, 189)" stroke-width="1px" opacity="0.25"></line><line x1="1196.6666666666667" y1="0" x2="1196.6666666666667" y2="377" fill="rgb(0, 0, 0)" stroke="rgb(189, 189, 189)" stroke-width="1px" opacity="0.25"></line><line x1="1316.3333333333333" y1="0" x2="1316.3333333333333" y2="377" fill="rgb(0, 0, 0)" stroke="rgb(189, 189, 189)" stroke-width="1px" opacity="0.25"></line><line x1="1436" y1="0" x2="1436" y2="377" fill="rgb(0, 0, 0)" stroke="rgb(189, 189, 189)" stroke-width="1px" opacity="0.25"></line></g><g><line x1="0" y1="377" x2="1436" y2="377" fill="rgb(0, 0, 0)" stroke="rgb(189, 189, 189)" stroke-width="1px" opacity="0.25"></line><line x1="0" y1="351.8666666666667" x2="1436" y2="351.8666666666667" fill="rgb(0, 0, 0)" stroke="rgb(189, 189, 189)" stroke-width="1px" opacity="0.25"></line><line x1="0" y1="326.73333333333335" x2="1436" y2="326.73333333333335" fill="rgb(0, 0, 0)" stroke="rgb(189, 189, 189)" stroke-width="1px" opacity="0.25"></line><line x1="0" y1="301.6" x2="1436" y2="301.6" fill="rgb(0, 0, 0)" stroke="rgb(189, 189, 189)" stroke-width="1px" opacity="0.25"></line><line x1="0" y1="276.4666666666667" x2="1436" y2="276.4666666666667" fill="rgb(0, 0, 0)" stroke="rgb(189, 189, 189)" stroke-width="1px" opacity="0.25"></line><line x1="0" y1="251.33333333333337" x2="1436" y2="251.33333333333337" fill="rgb(0, 0, 0)" stroke="rgb(189, 189, 189)" stroke-width="1px" opacity="0.25"></line><line x1="0" y1="226.2" x2="1436" y2="226.2" fill="rgb(0, 0, 0)" stroke="rgb(189, 189, 189)" stroke-width="1px" opacity="0.25"></line><line x1="0" y1="201.06666666666666" x2="1436" y2="201.06666666666666" fill="rgb(0, 0, 0)" stroke="rgb(189, 189, 189)" stroke-width="1px" opacity="0.25"></line><line x1="0" y1="175.93333333333334" x2="1436" y2="175.93333333333334" fill="rgb(0, 0, 0)" stroke="rgb(189, 189, 189)" stroke-width="1px" opacity="0.25"></line><line x1="0" y1="150.8" x2="1436" y2="150.8" fill="rgb(0, 0, 0)" stroke="rgb(189, 189, 189)" stroke-width="1px" opacity="0.25"></line><line x1="0" y1="125.66666666666669" x2="1436" y2="125.66666666666669" fill="rgb(0, 0, 0)" stroke="rgb(189, 189, 189)" stroke-width="1px" opacity="0.25"></line><line x1="0" y1="100.53333333333336" x2="1436" y2="100.53333333333336" fill="rgb(0, 0, 0)" stroke="rgb(189, 189, 189)" stroke-width="1px" opacity="0.25"></line><line x1="0" y1="75.39999999999998" x2="1436" y2="75.39999999999998" fill="rgb(0, 0, 0)" stroke="rgb(189, 189, 189)" stroke-width="1px" opacity="0.25"></line><line x1="0" y1="50.26666666666666" x2="1436" y2="50.26666666666666" fill="rgb(0, 0, 0)" stroke="rgb(189, 189, 189)" stroke-width="1px" opacity="0.25"></line><line x1="0" y1="25.13333333333333" x2="1436" y2="25.13333333333333" fill="rgb(0, 0, 0)" stroke="rgb(189, 189, 189)" stroke-width="1px" opacity="0.25"></line><line x1="0" y1="0" x2="1436" y2="0" fill="rgb(0, 0, 0)" stroke="rgb(189, 189, 189)" stroke-width="1px" opacity="0.25"></line></g></g></g><g><g><line x1="0" y1="12591.799999999988" x2="1436" y2="12591.799999999988" fill="rgb(0, 0, 0)" stroke="rgb(153, 153, 153)" stroke-width="1.5px"></line></g></g><g><g><line x1="119.66666666666666" y1="0" x2="119.66666666666666" y2="377" fill="rgb(0, 0, 0)" stroke="rgb(153, 153, 153)" stroke-width="1.5px"></line></g></g><g><g><g><g><g><path stroke="rgb(187, 187, 187)" stroke-width="2px" d="M119.66666666666666,434.5975058555599L143.6,343.62011524836333L167.53333333333333,292.79487479041273L191.46666666666667,267.0030530469681L215.4,244.76345951792717L239.33333333333331,233.89903898607818L263.26666666666665,218.66416992449788L287.2,210.65288556040207L311.1333333333333,200.4322124408503L335.06666666666666,188.46583467605038L359,201.09202044367586L382.93333333333334,195.2047374018318L406.8666666666667,186.22769818307313L430.8,182.94521925425173L454.7333333333333,181.8154900587031L478.66666666666663,175.27201873129604L502.59999999999997,169.67110014638735L526.5333333333333,166.73005687976695L550.4666666666667,164.12785398797976L574.4,162.98550758281684L598.3333333333334,163.13786190417815L622.2666666666667,161.1349521514792L646.2,160.77094684411543L670.1333333333333,159.71482447377048L694.0666666666667,158.66229453536388L718,158.8684969727125L741.9333333333334,159.41107716683806L765.8666666666667,159.7366249279082L789.8000000000001,159.93195345660274L813.7333333333333,158.79257466554859L837.6666666666667,158.52780613582246L861.6,157.53122791751892L885.5333333333334,157.35213958543446L909.4666666666666,157.24468659165848L933.4,157.1802147973626L957.3333333333333,157.97924878640944L981.2666666666667,157.62095211310316L1005.1999999999999,158.24369116992426L1029.1333333333334,159.03619313160806L1053.0666666666666,158.67397725009295L1077,159.71322330691447L1100.9333333333334,159.4990538837957L1124.8666666666666,159.78941075824804L1148.8,160.3824834110748L1172.7333333333333,160.31946847452565L1196.6666666666667,159.8628009844372L1220.6,160.42651754670877L1244.5333333333333,159.50817189961515L1268.4666666666667,159.37602303951658L1292.4,159.71559225159936" style="fill: none;" fill="none"></path></g><g><path stroke="rgb(0, 153, 136)" stroke-width="2px" d="M191.46666666666667,399.485400078111L215.4,290.26135476052974L239.33333333333331,219.88311884569956L263.26666666666665,170.12183056353987L287.2,135.84632713991823L311.1333333333333,110.15232510533477L335.06666666666666,90.37207803957722L359,77.73998748123256L382.93333333333334,65.67712517679675L406.8666666666667,58.0368287341828L430.8,48.952332039624544L454.7333333333333,42.35393940160959L478.66666666666663,37.03506574843895L502.59999999999997,33.3208904169299L526.5333333333333,30.464436010243148L550.4666666666667,28.960191069054673L574.4,27.63882892773982L598.3333333333334,27.05547642113956L622.2666666666667,26.496041086701776L646.2,25.950953680635333L670.1333333333333,25.623903992029476L694.0666666666667,25.427675170666152L718,25.309938234896542L741.9333333333334,25.23929620196855L765.8666666666667,25.19691102848655L789.8000000000001,25.171479941054958L813.7333333333333,25.156221294593045L837.6666666666667,25.1470661088748L861.6,25.141572998220393L885.5333333333334,25.138277132107355L909.4666666666666,25.13629961254195L933.4,25.135113100838694L957.3333333333333,25.13440119382955L981.2666666666667,25.133974049627177L1005.1999999999999,25.133717763108248L1029.1333333333334,25.133563991198564L1053.0666666666666,25.133471728051624L1077,25.133416370164305L1100.9333333333334,25.13338315543137L1124.8666666666666,25.133363226591307L1148.8,25.133351269288116L1172.7333333333333,25.133344094907038L1196.6666666666667,25.133339790277848L1220.6,25.133337207500574L1244.5333333333333,25.133335657833392L1268.4666666666667,25.133334728033667L1292.4,25.133334170152686" style="fill: none;" fill="none"></path></g><g><path stroke="rgb(255, 112, 67)" stroke-width="2px" d="M119.66666666666666,418.8888129870094L143.6,371.10948510765996L167.53333333333333,304.65628096586875L191.46666666666667,265.23227050322015L215.4,236.94775968882843L239.33333333333331,217.9383876620602L263.26666666666665,213.15024703305411L287.2,209.51227939366007L311.1333333333333,194.2512939139481L335.06666666666666,193.2010590900435L359,182.9055714655526L382.93333333333334,182.20957606482915L406.8666666666667,182.63176231570844L430.8,184.14258179984495L454.7333333333333,181.69557116383228L478.66666666666663,179.39014788836047L502.59999999999997,179.2640985567946L526.5333333333333,174.99917225401163L550.4666666666667,173.278261808993L574.4,171.82690881543274L598.3333333333334,170.95613098085505L622.2666666666667,169.59594842308627L646.2,167.942126674376L670.1333333333333,166.94984198405822L694.0666666666667,165.93531484654002L718,168.6777739642725L741.9333333333334,166.97207517323304L765.8666666666667,166.78667419947737L789.8000000000001,165.4185580278929L813.7333333333333,165.85456412251662L837.6666666666667,164.85929235379072L861.6,167.19443892006083L885.5333333333334,165.66321729121617L909.4666666666666,165.5825010536716L933.4,164.69605462926393L957.3333333333333,163.74532825191267L981.2666666666667,163.59375096250636L1005.1999999999999,163.50280458946386L1029.1333333333334,163.44823676585548L1053.0666666666666,163.4154960717683L1077,164.65272685344559L1100.9333333333334,165.395065321816L1124.8666666666666,164.58359320515262L1148.8,163.677851407095L1172.7333333333333,164.81014005376542L1196.6666666666667,163.39492098819744L1220.6,163.80236513336814L1244.5333333333333,164.0468316204608L1268.4666666666667,163.35579445642975L1292.4,164.19804735511772" style="fill: none;" fill="none"></path></g><g><path stroke="rgb(187, 187, 187)" stroke-width="2px" d="M167.53333333333333,488.9938237446516L191.46666666666667,358.59925123850473L215.4,272.4456611825451L239.33333333333331,215.3644118203462L263.26666666666665,177.05143714280354L287.2,144.8562043317878L311.1333333333333,123.2440041360466L335.06666666666666,105.78115058223216L359,90.6414955643285L382.93333333333334,78.65422578953566L406.8666666666667,67.07451954363349L430.8,57.30672037066282L454.7333333333333,52.28905314553798L478.66666666666663,45.50887291297287L502.59999999999997,40.29008302396647L526.5333333333333,36.11182218034267L550.4666666666667,33.18625321762502L574.4,30.698146525366734L598.3333333333334,29.41477458993648L622.2666666666667,28.435337426357435L646.2,28.371110866343322L670.1333333333333,27.390288908074886L694.0666666666667,27.115793689986642L718,26.532237815954577L741.9333333333334,26.182104928615367L765.8666666666667,25.867460535656654L789.8000000000001,25.783238887763776L813.7333333333333,25.837570380445843L837.6666666666667,25.765304816084015L861.6,25.512516202864674L885.5333333333334,25.88456603933095L909.4666666666666,25.58407294832196L933.4,25.40377709922754L957.3333333333333,25.50502885798346L981.2666666666667,25.356350647202287L1005.1999999999999,25.267143721323762L1029.1333333333334,25.21361956600902L1053.0666666666666,25.181505072895497L1077,25.162236377056683L1100.9333333333334,25.150675159561473L1124.8666666666666,25.14373842906741L1148.8,25.139576390773787L1172.7333333333333,25.1370791677976L1196.6666666666667,25.135580834011893L1220.6,25.134681833740466L1244.5333333333333,25.134142433577903L1268.4666666666667,25.133818793480064L1292.4,25.133624609420533" style="fill: none;" fill="none"></path></g><g><path stroke="rgb(238, 51, 119)" stroke-width="2px" d="M119.66666666666666,371.76423244476285L143.6,314.8214379727838L167.53333333333333,279.2236585331614L191.46666666666667,255.33758098740157L215.4,239.5204631923564L239.33333333333331,231.7345909982558L263.26666666666665,213.94275457241886L287.2,207.85229889510958L311.1333333333333,205.533529487986L335.06666666666666,203.31450102405188L359,196.94679777199664L382.93333333333334,188.94297017611038L406.8666666666667,185.82946386633577L430.8,184.3831516734723L454.7333333333333,188.12600100195877L478.66666666666663,180.7335198948086L502.59999999999997,172.9476310020102L526.5333333333333,178.7503669243142L550.4666666666667,177.20442338550313L574.4,179.6282079209706L598.3333333333334,177.73118057207677L622.2666666666667,184.13314277328303L646.2,178.75870654236417L670.1333333333333,177.62867414620212L694.0666666666667,179.8826761681802L718,182.49195062121547L741.9333333333334,179.8686232630865L765.8666666666667,179.55120492264672L789.8000000000001,176.00958497059506L813.7333333333333,175.14118969672964L837.6666666666667,177.13360377017582L861.6,174.97788394061658L885.5333333333334,175.779044506071L909.4666666666666,172.4897143469294L933.4,175.12385981316092L957.3333333333333,175.02861332140154L981.2666666666667,175.39062357038733L1005.1999999999999,176.0266882480388L1029.1333333333334,176.408327053119L1053.0666666666666,175.38043513684852L1077,172.25054881712762L1100.9333333333334,173.30462672527165L1124.8666666666666,173.93707346983516L1148.8,173.8976829882447L1172.7333333333333,173.03633164293393L1196.6666666666667,172.51952083580525L1220.6,172.6282928797029L1244.5333333333333,172.2746975778912L1268.4666666666667,172.06254039681005L1292.4,172.77296314444186" style="fill: none;" fill="none"></path></g><g><path stroke="rgb(51, 187, 238)" stroke-width="2px" d="M167.53333333333333,442.71853814871173L191.46666666666667,341.0498625289015L215.4,272.72750034452673L239.33333333333331,225.08480239073407L263.26666666666665,189.5591704807158L287.2,164.6306940921094L311.1333333333333,143.91435451950227L335.06666666666666,128.98503626265594L359,114.83033312641872L382.93333333333334,103.95660801506071L406.8666666666667,93.67258466685773L430.8,84.5761646630165L454.7333333333333,73.67485488357646L478.66666666666663,65.88012047074191L502.59999999999997,61.204687408656284L526.5333333333333,57.03835581079354L550.4666666666667,52.339536578345125L574.4,48.263806766451374L598.3333333333334,42.46722289730234L622.2666666666667,40.03681367875052L646.2,37.32170349794362L670.1333333333333,35.48322085600232L694.0666666666667,33.332987548752094L718,31.833421855524193L741.9333333333334,31.038249009412535L765.8666666666667,29.304569466543306L789.8000000000001,28.473791763429517L813.7333333333333,27.870760488657464L837.6666666666667,27.09008322541903L861.6,26.831106214487168L885.5333333333334,26.57085557773514L909.4666666666666,26.414705203638952L933.4,26.21645015455201L957.3333333333333,26.097497127280505L981.2666666666667,26.026125311702224L1005.1999999999999,25.669008519029237L1029.1333333333334,25.664167708808602L1053.0666666666666,25.556698396849335L1077,25.387352371307873L1100.9333333333334,25.285744756068965L1124.8666666666666,25.22478018695658L1148.8,25.18820144550141L1172.7333333333333,25.166254200631958L1196.6666666666667,25.153085853712792L1220.6,25.145184845559868L1244.5333333333333,25.140444240668423L1268.4666666666667,25.13759987773468L1292.4,25.135893259973" style="fill: none;" fill="none"></path></g><g><path stroke="rgb(0, 119, 187)" stroke-width="2px" d="M143.6,378.047110366821L167.53333333333333,329.9604215320275L191.46666666666667,299.60173613160293L215.4,281.8460345213427L239.33333333333331,254.543951343441L263.26666666666665,249.3441501761453L287.2,249.30142227469827L311.1333333333333,231.92701105974422L335.06666666666666,228.77932007246577L359,225.22139620823856L382.93333333333334,213.0194855157394L406.8666666666667,209.90972333272148L430.8,208.04646746325756L454.7333333333333,204.83417105224225L478.66666666666663,201.23185321316618L502.59999999999997,199.9089718998359L526.5333333333333,203.30469679517842L550.4666666666667,202.828307051934L574.4,198.3534537334801L598.3333333333334,196.92524960410447L622.2666666666667,198.581831042632L646.2,199.99462778696233L670.1333333333333,203.77462189697198L694.0666666666667,206.04260689987032L718,207.40339377491722L741.9333333333334,201.098662922166L765.8666666666667,206.53132104389118L789.8000000000001,204.76430997936714L813.7333333333333,204.9606796195438L837.6666666666667,204.24078420847178L861.6,201.7145542155796L885.5333333333334,199.77995780037793L909.4666666666666,197.78118331741757L933.4,199.51422802434158L957.3333333333333,202.64864710440258L981.2666666666667,200.7592721424975L1005.1999999999999,201.30108129160843L1029.1333333333334,199.95073266350738L1053.0666666666666,201.65367466075415L1077,199.74343015833344L1100.9333333333334,199.0161419862002L1124.8666666666666,198.9986276114027L1148.8,207.7847473042945L1172.7333333333333,206.7729419709826L1196.6666666666667,202.39613201759315L1220.6,203.95893093994385L1244.5333333333333,203.22087656804845L1268.4666666666667,201.10260983235153L1292.4,197.3181990094271" style="fill: none;" fill="none"></path></g><g><path stroke="rgb(255, 112, 67)" stroke-width="2px" d="M167.53333333333333,448.71875596435746L191.46666666666667,355.0007514802282L215.4,295.7299801229863L239.33333333333331,255.7918656152095L263.26666666666665,229.5006306010556L287.2,205.89708648141726L311.1333333333333,188.07693200950195L335.06666666666666,174.0237183532915L359,160.7064126509346L382.93333333333334,150.96283582570115L406.8666666666667,143.66235959938714L430.8,134.04804339929464L454.7333333333333,126.7126695882867L478.66666666666663,120.21846994584146L502.59999999999997,114.01901097940677L526.5333333333333,109.04300440074938L550.4666666666667,101.44969968895747L574.4,98.46493972660168L598.3333333333334,93.84664669421025L622.2666666666667,89.60971157029863L646.2,87.38158275677104L670.1333333333333,82.58896769214908L694.0666666666667,80.13227290629746L718,77.925107023639L741.9333333333334,73.35450318169127L765.8666666666667,69.14613812168064L789.8000000000001,66.83055008088056L813.7333333333333,62.508887844544475L837.6666666666667,60.439614150185164L861.6,58.36003337358575L885.5333333333334,56.69342646540968L909.4666666666666,54.12259303957597L933.4,51.8472404007203L957.3333333333333,50.482028842439775L981.2666666666667,47.88260335454205L1005.1999999999999,45.380366573949544L1029.1333333333334,43.98388895014982L1053.0666666666666,42.831708674996676L1077,41.30268345394512L1100.9333333333334,40.59469758626678L1124.8666666666666,39.122759745233054L1148.8,37.820738512674836L1172.7333333333333,37.248955037375936L1196.6666666666667,36.48672681139115L1220.6,34.87767872974954L1244.5333333333333,34.9593962011687L1268.4666666666667,33.96128036366325L1292.4,33.78126938930805" style="fill: none;" fill="none"></path></g></g></g></g><g opacity="0.2"><g><g><g><path stroke="rgb(187, 187, 187)" stroke-width="2px" d="M119.66666666666666,434.5975058555599L143.6,289.0336808840431L167.53333333333333,244.00264395078005L191.46666666666667,236.67187067667624L215.4,215.72744620641055L239.33333333333331,218.86963419914227L263.26666666666665,196.8780634085336L287.2,198.97235604921963L311.1333333333333,185.3587048530577L335.06666666666666,170.69715830485012L359,219.9167805194853L382.93333333333334,186.40585117340072L406.8666666666667,172.79145094553616L430.8,178.02793157895394L454.7333333333333,180.12222421963997L478.66666666666663,165.46142670313503L502.59999999999997,161.2720923900603L526.5333333333333,162.3192387104033L550.4666666666667,160.22494606971728L574.4,161.2720923900603L598.3333333333334,163.36638503074633L622.2666666666667,158.13065342903124L646.2,160.22494606971728L670.1333333333333,158.13065342903124L694.0666666666667,157.08350710868822L718,159.17779974937426L741.9333333333334,160.22494606971728L765.8666666666667,160.22494606971728L789.8000000000001,160.22494606971728L813.7333333333333,157.08350710868822L837.6666666666667,158.13065342903124L861.6,156.0363607883452L885.5333333333334,157.08350710868822L909.4666666666666,157.08350710868822L933.4,157.08350710868822L957.3333333333333,159.17779974937426L981.2666666666667,157.08350710868822L1005.1999999999999,159.17779974937426L1029.1333333333334,160.22494606971728L1053.0666666666666,158.13065342903124L1077,161.2720923900603L1100.9333333333334,159.17779974937426L1124.8666666666666,160.22494606971728L1148.8,161.2720923900603L1172.7333333333333,160.22494606971728L1196.6666666666667,159.17779974937426L1220.6,161.2720923900603L1244.5333333333333,158.13065342903124L1268.4666666666667,159.17779974937426L1292.4,160.22494606971728" style="fill: none;" fill="none"></path></g><g><path stroke="rgb(0, 153, 136)" stroke-width="2px" d="M119.66666666666666,1885.7857582251215L143.6,333.27823452949497L167.53333333333333,244.00264395078005L191.46666666666667,195.56875599225344L215.4,147.65844119389843L239.33333333333331,122.52468241055797L263.26666666666665,98.96239213943474L287.2,85.87231410344437L311.1333333333333,72.25866290728246L335.06666666666666,61.00071641604104L359,58.906423775355L382.93333333333334,47.64847728411355L406.8666666666667,46.60133096377053L430.8,35.343384472529074L454.7333333333333,32.464106607437145L478.66666666666663,29.06050655047097L502.59999999999997,27.751199134190873L526.5333333333333,26.180479653676347L550.4666666666667,26.704052813847856L574.4,25.656906493504838L598.3333333333334,26.180479653676347L622.2666666666667,25.656906493504838L646.2,25.13333333333333L670.1333333333333,25.13333333333333L694.0666666666667,25.13333333333333L718,25.13333333333333L741.9333333333334,25.13333333333333L765.8666666666667,25.13333333333333L789.8000000000001,25.13333333333333L813.7333333333333,25.13333333333333L837.6666666666667,25.13333333333333L861.6,25.13333333333333L885.5333333333334,25.13333333333333L909.4666666666666,25.13333333333333L933.4,25.13333333333333L957.3333333333333,25.13333333333333L981.2666666666667,25.13333333333333L1005.1999999999999,25.13333333333333L1029.1333333333334,25.13333333333333L1053.0666666666666,25.13333333333333L1077,25.13333333333333L1100.9333333333334,25.13333333333333L1124.8666666666666,25.13333333333333L1148.8,25.13333333333333L1172.7333333333333,25.13333333333333L1196.6666666666667,25.13333333333333L1220.6,25.13333333333333L1244.5333333333333,25.13333333333333L1268.4666666666667,25.13333333333333L1292.4,25.13333333333333" style="fill: none;" fill="none"></path></g><g><path stroke="rgb(255, 112, 67)" stroke-width="2px" d="M119.66666666666666,418.8888129870094L143.6,342.4418883800504L167.53333333333333,240.861204989751L191.46666666666667,218.86963419914227L215.4,200.01950236956264L239.33333333333331,191.64158277511584L263.26666666666665,206.3031293233234L287.2,204.20808765093471L311.1333333333333,171.74430462519314L335.06666666666666,191.64158277511584L359,167.55571934382107L382.93333333333334,181.169370539983L406.8666666666667,183.26366318066903L430.8,186.40585117340072L454.7333333333333,178.02793157895394L478.66666666666663,175.9336389382679L502.59999999999997,179.07507789929696L526.5333333333333,168.60286566416409L550.4666666666667,170.69715830485012L574.4,169.6500119845071L598.3333333333334,169.6500119845071L622.2666666666667,167.55571934382107L646.2,165.46142670313503L670.1333333333333,165.46142670313503L694.0666666666667,164.41353135108935L718,172.79145094553616L741.9333333333334,164.41353135108935L765.8666666666667,166.50857302347805L789.8000000000001,163.36638503074633L813.7333333333333,166.50857302347805L837.6666666666667,163.36638503074633L861.6,170.69715830485012L885.5333333333334,163.36638503074633L909.4666666666666,165.46142670313503L933.4,163.36638503074633L957.3333333333333,162.3192387104033L981.2666666666667,163.36638503074633L1005.1999999999999,163.36638503074633L1029.1333333333334,163.36638503074633L1053.0666666666666,163.36638503074633L1077,166.50857302347805L1100.9333333333334,166.50857302347805L1124.8666666666666,163.36638503074633L1148.8,162.3192387104033L1172.7333333333333,166.50857302347805L1196.6666666666667,161.2720923900603L1220.6,164.41353135108935L1244.5333333333333,164.41353135108935L1268.4666666666667,162.3192387104033L1292.4,165.46142670313503" style="fill: none;" fill="none"></path></g><g><path stroke="rgb(187, 187, 187)" stroke-width="2px" d="M119.66666666666666,1372.9080217361438L143.6,358.6734053770698L167.53333333333333,248.97696348826068L191.46666666666667,205.25523397127773L215.4,159.96353400548287L239.33333333333331,136.40049470265697L263.26666666666665,122.26327034632355L287.2,97.91524581909172L311.1333333333333,91.37020680109654L335.06666666666666,79.8508482456207L359,68.06932859420773L382.93333333333334,60.73855532010391L406.8666666666667,49.74276992479958L430.8,42.674157746632886L454.7333333333333,44.76845038731892L478.66666666666663,35.343384472529074L502.59999999999997,32.464106607437145L526.5333333333333,29.84549177487691L550.4666666666667,28.79834545453389L574.4,26.966213909784933L598.3333333333334,27.489787069956442L622.2666666666667,26.966213909784933L646.2,28.274772294362382L670.1333333333333,25.919067589441916L694.0666666666667,26.704052813847856L718,25.656906493504838L741.9333333333334,25.656906493504838L765.8666666666667,25.395494429270407L789.8000000000001,25.656906493504838L813.7333333333333,25.919067589441916L837.6666666666667,25.656906493504838L861.6,25.13333333333333L885.5333333333334,26.442640749613425L909.4666666666666,25.13333333333333L933.4,25.13333333333333L957.3333333333333,25.656906493504838L981.2666666666667,25.13333333333333L1005.1999999999999,25.13333333333333L1029.1333333333334,25.13333333333333L1053.0666666666666,25.13333333333333L1077,25.13333333333333L1100.9333333333334,25.13333333333333L1124.8666666666666,25.13333333333333L1148.8,25.13333333333333L1172.7333333333333,25.13333333333333L1196.6666666666667,25.13333333333333L1220.6,25.13333333333333L1244.5333333333333,25.13333333333333L1268.4666666666667,25.13333333333333L1292.4,25.13333333333333" style="fill: none;" fill="none"></path></g><g><path stroke="rgb(238, 51, 119)" stroke-width="2px" d="M119.66666666666666,371.76423244476285L143.6,280.65576128959634L167.53333333333333,245.04979027112307L191.46666666666667,227.24755379358908L215.4,218.86963419914227L239.33333333333331,220.9639268398283L263.26666666666665,188.50014381408678L287.2,198.97235604921963L311.1333333333333,202.11379501024868L335.06666666666666,200.01950236956264L359,187.45299749374374L382.93333333333334,176.98078525861092L406.8666666666667,181.169370539983L430.8,182.216516860326L454.7333333333333,193.73587541580184L478.66666666666663,169.6500119845071L502.59999999999997,161.2720923900603L526.5333333333333,187.45299749374374L550.4666666666667,174.8857435862222L574.4,183.26366318066903L598.3333333333334,174.8857435862222L622.2666666666667,193.73587541580184L646.2,170.69715830485012L670.1333333333333,175.9336389382679L694.0666666666667,183.26366318066903L718,186.40585117340072L741.9333333333334,175.9336389382679L765.8666666666667,179.07507789929696L789.8000000000001,170.69715830485012L813.7333333333333,173.83859726587917L837.6666666666667,180.12222421963997L861.6,171.74430462519314L885.5333333333334,176.98078525861092L909.4666666666666,167.55571934382107L933.4,179.07507789929696L957.3333333333333,174.8857435862222L981.2666666666667,175.9336389382679L1005.1999999999999,176.98078525861092L1029.1333333333334,176.98078525861092L1053.0666666666666,173.83859726587917L1077,167.55571934382107L1100.9333333333334,174.8857435862222L1124.8666666666666,174.8857435862222L1148.8,173.83859726587917L1172.7333333333333,171.74430462519314L1196.6666666666667,171.74430462519314L1220.6,172.79145094553616L1244.5333333333333,171.74430462519314L1268.4666666666667,171.74430462519314L1292.4,173.83859726587917" style="fill: none;" fill="none"></path></g><g><path stroke="rgb(51, 187, 238)" stroke-width="2px" d="M119.66666666666666,1137.5450330257406L143.6,338.2525540669757L167.53333333333333,255.26059044202148L191.46666666666667,221.4874999999998L215.4,183.5258242766061L239.33333333333331,159.17779974937426L263.26666666666665,138.75694843928008L287.2,128.28473620414726L311.1333333333333,113.36177759170525L335.06666666666666,106.81673857371007L359,93.72666053771965L382.93333333333334,87.70519467989598L406.8666666666667,78.28012876510617L430.8,70.94935549100235L454.7333333333333,57.335704294840475L478.66666666666663,54.19351630210873L502.59999999999997,54.19351630210873L526.5333333333333,50.7899162451426L550.4666666666667,45.29202354749043L574.4,42.15058458646138L598.3333333333334,33.77266499201455L622.2666666666667,36.39127982457478L646.2,33.24909183184304L670.1333333333333,32.72551867167153L694.0666666666667,30.107652870813986L718,29.584079710642477L741.9333333333334,29.84549177487691L765.8666666666667,26.704052813847856L789.8000000000001,27.227625974019364L813.7333333333333,26.966213909784933L837.6666666666667,25.919067589441916L861.6,26.442640749613425L885.5333333333334,26.180479653676347L909.4666666666666,26.180479653676347L933.4,25.919067589441916L957.3333333333333,25.919067589441916L981.2666666666667,25.919067589441916L1005.1999999999999,25.13333333333333L1029.1333333333334,25.656906493504838L1053.0666666666666,25.395494429270407L1077,25.13333333333333L1100.9333333333334,25.13333333333333L1124.8666666666666,25.13333333333333L1148.8,25.13333333333333L1172.7333333333333,25.13333333333333L1196.6666666666667,25.13333333333333L1220.6,25.13333333333333L1244.5333333333333,25.13333333333333L1268.4666666666667,25.13333333333333L1292.4,25.13333333333333" style="fill: none;" fill="none"></path></g><g><path stroke="rgb(0, 119, 187)" stroke-width="2px" d="M119.66666666666666,425.1724399407701L143.6,349.7719126224515L167.53333333333333,283.7972002506254L191.46666666666667,263.89992210070267L215.4,258.6641904989876L239.33333333333331,216.77534155845623L263.26666666666665,241.90835131009402L287.2,249.2391245841978L311.1333333333333,206.3031293233234L335.06666666666666,224.10536580085736L359,219.9167805194853L382.93333333333334,194.78302173614486L406.8666666666667,205.25523397127773L430.8,205.25523397127773L454.7333333333333,200.01950236956264L478.66666666666663,195.83091708819057L502.59999999999997,197.9252097288766L526.5333333333333,208.39742196400942L550.4666666666667,202.11379501024868L574.4,191.64158277511584L598.3333333333334,194.78302173614486L622.2666666666667,201.06664868990566L646.2,202.11379501024868L670.1333333333333,209.44456828435244L694.0666666666667,209.44456828435244L718,209.44456828435244L741.9333333333334,191.64158277511584L765.8666666666667,214.68029988606753L789.8000000000001,202.11379501024868L813.7333333333333,205.25523397127773L837.6666666666667,203.1609413305917L861.6,197.9252097288766L885.5333333333334,196.8780634085336L909.4666666666666,194.78302173614486L933.4,202.11379501024868L957.3333333333333,207.3502756436664L981.2666666666667,197.9252097288766L1005.1999999999999,202.11379501024868L1029.1333333333334,197.9252097288766L1053.0666666666666,204.20808765093471L1077,196.8780634085336L1100.9333333333334,197.9252097288766L1124.8666666666666,198.97235604921963L1148.8,220.9639268398283L1172.7333333333333,205.25523397127773L1196.6666666666667,195.83091708819057L1220.6,206.3031293233234L1244.5333333333333,202.11379501024868L1268.4666666666667,197.9252097288766L1292.4,191.64158277511584" style="fill: none;" fill="none"></path></g><g><path stroke="rgb(255, 112, 67)" stroke-width="2px" d="M143.6,381.4507104237871L167.53333333333333,295.57871990203836L191.46666666666667,244.78837820688864L215.4,218.34606103897076L239.33333333333331,200.54307552973415L263.26666666666665,191.90374387105288L287.2,171.48289256095873L311.1333333333333,161.7956655502318L335.06666666666666,153.1563338915506L359,140.85124107996612L382.93333333333334,136.40049470265697L406.8666666666667,132.7354825814564L430.8,119.64540454546601L454.7333333333333,115.71823132832836L478.66666666666663,110.48175069491063L502.59999999999997,104.72244593302403L526.5333333333333,101.58025794029228L550.4666666666667,90.06089938481644L574.4,93.98807260195409L598.3333333333334,86.91946042378738L622.2666666666667,83.25444830258682L646.2,84.03943352699277L670.1333333333333,75.40010186831151L694.0666666666667,76.44724818865453L718,74.61436761220291L741.9333333333334,66.4986091136932L765.8666666666667,62.833596992492645L789.8000000000001,63.35717015266415L813.7333333333333,56.026396878560334L837.6666666666667,57.335704294840475L861.6,55.24066262245175L885.5333333333334,54.19351630210873L909.4666666666666,50.26634308497109L933.4,48.43421154022214L957.3333333333333,48.43421154022214L981.2666666666667,43.983465162912985L1005.1999999999999,41.62701142628987L1029.1333333333334,41.88917252222695L1053.0666666666666,41.10343826611836L1077,39.009145625432325L1100.9333333333334,39.532718785603834L1124.8666666666666,36.91485298474629L1148.8,35.86770666440327L1172.7333333333333,36.39127982457478L1196.6666666666667,35.343384472529074L1220.6,32.464106607437145L1244.5333333333333,35.08197240829469L1268.4666666666667,32.464106607437145L1292.4,33.51125292778016" style="fill: none;" fill="none"></path></g></g></g></g></g></g><g transform="translate(60, 377)" clip-path="url(#clip_1)"><clipPath id="clip_1"><rect width="1436" height="23"></rect></clipPath><g><g><line x1="0" y1="0" x2="0" y2="5" style="visibility: inherit;" fill="rgb(0, 0, 0)" stroke="rgb(204, 204, 204)" stroke-width="1px"></line><line x1="119.66666666666666" y1="0" x2="119.66666666666666" y2="5" style="visibility: inherit;" fill="rgb(0, 0, 0)" stroke="rgb(204, 204, 204)" stroke-width="1px"></line><line x1="239.33333333333331" y1="0" x2="239.33333333333331" y2="5" style="visibility: inherit;" fill="rgb(0, 0, 0)" stroke="rgb(204, 204, 204)" stroke-width="1px"></line><line x1="359" y1="0" x2="359" y2="5" style="visibility: inherit;" fill="rgb(0, 0, 0)" stroke="rgb(204, 204, 204)" stroke-width="1px"></line><line x1="478.66666666666663" y1="0" x2="478.66666666666663" y2="5" style="visibility: inherit;" fill="rgb(0, 0, 0)" stroke="rgb(204, 204, 204)" stroke-width="1px"></line><line x1="598.3333333333334" y1="0" x2="598.3333333333334" y2="5" style="visibility: inherit;" fill="rgb(0, 0, 0)" stroke="rgb(204, 204, 204)" stroke-width="1px"></line><line x1="718" y1="0" x2="718" y2="5" style="visibility: inherit;" fill="rgb(0, 0, 0)" stroke="rgb(204, 204, 204)" stroke-width="1px"></line><line x1="837.6666666666667" y1="0" x2="837.6666666666667" y2="5" style="visibility: inherit;" fill="rgb(0, 0, 0)" stroke="rgb(204, 204, 204)" stroke-width="1px"></line><line x1="957.3333333333333" y1="0" x2="957.3333333333333" y2="5" style="visibility: inherit;" fill="rgb(0, 0, 0)" stroke="rgb(204, 204, 204)" stroke-width="1px"></line><line x1="1077" y1="0" x2="1077" y2="5" style="visibility: inherit;" fill="rgb(0, 0, 0)" stroke="rgb(204, 204, 204)" stroke-width="1px"></line><line x1="1196.6666666666667" y1="0" x2="1196.6666666666667" y2="5" style="visibility: inherit;" fill="rgb(0, 0, 0)" stroke="rgb(204, 204, 204)" stroke-width="1px"></line><line x1="1316.3333333333333" y1="0" x2="1316.3333333333333" y2="5" style="visibility: inherit;" fill="rgb(0, 0, 0)" stroke="rgb(204, 204, 204)" stroke-width="1px"></line><line x1="1436" y1="0" x2="1436" y2="5" style="visibility: inherit;" fill="rgb(0, 0, 0)" stroke="rgb(204, 204, 204)" stroke-width="1px"></line></g><g transform="translate(0, 8)"><text x="0" y="0" dx="0em" dy="0.95em" style="text-anchor: middle; visibility: hidden; font-family: Roboto, sans-serif; font-size: 12px; font-weight: 200;" fill="rgb(255, 255, 255)" stroke="none" stroke-width="1px">-5</text><text x="119.66666666666666" y="0" dx="0em" dy="0.95em" style="text-anchor: middle; visibility: inherit; font-family: Roboto, sans-serif; font-size: 12px; font-weight: 200;" fill="rgb(255, 255, 255)" stroke="none" stroke-width="1px">0</text><text x="239.33333333333331" y="0" dx="0em" dy="0.95em" style="text-anchor: middle; visibility: inherit; font-family: Roboto, sans-serif; font-size: 12px; font-weight: 200;" fill="rgb(255, 255, 255)" stroke="none" stroke-width="1px">5</text><text x="359" y="0" dx="0em" dy="0.95em" style="text-anchor: middle; visibility: inherit; font-family: Roboto, sans-serif; font-size: 12px; font-weight: 200;" fill="rgb(255, 255, 255)" stroke="none" stroke-width="1px">10</text><text x="478.66666666666663" y="0" dx="0em" dy="0.95em" style="text-anchor: middle; visibility: inherit; font-family: Roboto, sans-serif; font-size: 12px; font-weight: 200;" fill="rgb(255, 255, 255)" stroke="none" stroke-width="1px">15</text><text x="598.3333333333334" y="0" dx="0em" dy="0.95em" style="text-anchor: middle; visibility: inherit; font-family: Roboto, sans-serif; font-size: 12px; font-weight: 200;" fill="rgb(255, 255, 255)" stroke="none" stroke-width="1px">20</text><text x="718" y="0" dx="0em" dy="0.95em" style="text-anchor: middle; visibility: inherit; font-family: Roboto, sans-serif; font-size: 12px; font-weight: 200;" fill="rgb(255, 255, 255)" stroke="none" stroke-width="1px">25</text><text x="837.6666666666667" y="0" dx="0em" dy="0.95em" style="text-anchor: middle; visibility: inherit; font-family: Roboto, sans-serif; font-size: 12px; font-weight: 200;" fill="rgb(255, 255, 255)" stroke="none" stroke-width="1px">30</text><text x="957.3333333333333" y="0" dx="0em" dy="0.95em" style="text-anchor: middle; visibility: inherit; font-family: Roboto, sans-serif; font-size: 12px; font-weight: 200;" fill="rgb(255, 255, 255)" stroke="none" stroke-width="1px">35</text><text x="1077" y="0" dx="0em" dy="0.95em" style="text-anchor: middle; visibility: inherit; font-family: Roboto, sans-serif; font-size: 12px; font-weight: 200;" fill="rgb(255, 255, 255)" stroke="none" stroke-width="1px">40</text><text x="1196.6666666666667" y="0" dx="0em" dy="0.95em" style="text-anchor: middle; visibility: inherit; font-family: Roboto, sans-serif; font-size: 12px; font-weight: 200;" fill="rgb(255, 255, 255)" stroke="none" stroke-width="1px">45</text><text x="1316.3333333333333" y="0" dx="0em" dy="0.95em" style="text-anchor: middle; visibility: inherit; font-family: Roboto, sans-serif; font-size: 12px; font-weight: 200;" fill="rgb(255, 255, 255)" stroke="none" stroke-width="1px">50</text><text x="1436" y="0" dx="0em" dy="0.95em" style="text-anchor: middle; visibility: hidden; font-family: Roboto, sans-serif; font-size: 12px; font-weight: 200;" fill="rgb(255, 255, 255)" stroke="none" stroke-width="1px">55</text></g><line x1="0" y1="0" x2="1436" y2="0" fill="rgb(0, 0, 0)" stroke="rgb(204, 204, 204)" stroke-width="1px"></line></g></g></g></g></svg>