<svg viewBox="0 0 1496 400" xmlns="http://www.w3.org/2000/svg"><g><g><g><g><g><line x1="60" y1="377" x2="55" y2="377" style="visibility: inherit;" fill="rgb(0, 0, 0)" stroke="rgb(204, 204, 204)" stroke-width="1px"></line><line x1="60" y1="350.07142857142907" x2="55" y2="350.07142857142907" style="visibility: inherit;" fill="rgb(0, 0, 0)" stroke="rgb(204, 204, 204)" stroke-width="1px"></line><line x1="60" y1="323.14285714285757" x2="55" y2="323.14285714285757" style="visibility: inherit;" fill="rgb(0, 0, 0)" stroke="rgb(204, 204, 204)" stroke-width="1px"></line><line x1="60" y1="296.21428571428606" x2="55" y2="296.21428571428606" style="visibility: inherit;" fill="rgb(0, 0, 0)" stroke="rgb(204, 204, 204)" stroke-width="1px"></line><line x1="60" y1="269.28571428571456" x2="55" y2="269.28571428571456" style="visibility: inherit;" fill="rgb(0, 0, 0)" stroke="rgb(204, 204, 204)" stroke-width="1px"></line><line x1="60" y1="242.357142857143" x2="55" y2="242.357142857143" style="visibility: inherit;" fill="rgb(0, 0, 0)" stroke="rgb(204, 204, 204)" stroke-width="1px"></line><line x1="60" y1="215.4285714285715" x2="55" y2="215.4285714285715" style="visibility: inherit;" fill="rgb(0, 0, 0)" stroke="rgb(204, 204, 204)" stroke-width="1px"></line><line x1="60" y1="188.5" x2="55" y2="188.5" style="visibility: inherit;" fill="rgb(0, 0, 0)" stroke="rgb(204, 204, 204)" stroke-width="1px"></line><line x1="60" y1="161.5714285714285" x2="55" y2="161.5714285714285" style="visibility: inherit;" fill="rgb(0, 0, 0)" stroke="rgb(204, 204, 204)" stroke-width="1px"></line><line x1="60" y1="134.64285714285697" x2="55" y2="134.64285714285697" style="visibility: inherit;" fill="rgb(0, 0, 0)" stroke="rgb(204, 204, 204)" stroke-width="1px"></line><line x1="60" y1="107.71428571428545" x2="55" y2="107.71428571428545" style="visibility: inherit;" fill="rgb(0, 0, 0)" stroke="rgb(204, 204, 204)" stroke-width="1px"></line><line x1="60" y1="80.78571428571395" x2="55" y2="80.78571428571395" style="visibility: inherit;" fill="rgb(0, 0, 0)" stroke="rgb(204, 204, 204)" stroke-width="1px"></line><line x1="60" y1="53.857142857142414" x2="55" y2="53.857142857142414" style="visibility: inherit;" fill="rgb(0, 0, 0)" stroke="rgb(204, 204, 204)" stroke-width="1px"></line><line x1="60" y1="26.928571428570915" x2="55" y2="26.928571428570915" style="visibility: inherit;" fill="rgb(0, 0, 0)" stroke="rgb(204, 204, 204)" stroke-width="1px"></line></g><g transform="translate(50, 0)"><text x="0" y="377" dx="0em" dy="0.3em" style="text-anchor: end; visibility: hidden; font-family: Roboto, sans-serif; font-size: 12px; font-weight: 200;" fill="rgb(255, 255, 255)" stroke="none" stroke-width="1px">0.935</text><text x="0" y="350.07142857142907" dx="0em" dy="0.3em" style="text-anchor: end; visibility: inherit; font-family: Roboto, sans-serif; font-size: 12px; font-weight: 200;" fill="rgb(255, 255, 255)" stroke="none" stroke-width="1px">0.94</text><text x="0" y="323.14285714285757" dx="0em" dy="0.3em" style="text-anchor: end; visibility: inherit; font-family: Roboto, sans-serif; font-size: 12px; font-weight: 200;" fill="rgb(255, 255, 255)" stroke="none" stroke-width="1px">0.945</text><text x="0" y="296.21428571428606" dx="0em" dy="0.3em" style="text-anchor: end; visibility: inherit; font-family: Roboto, sans-serif; font-size: 12px; font-weight: 200;" fill="rgb(255, 255, 255)" stroke="none" stroke-width="1px">0.95</text><text x="0" y="269.28571428571456" dx="0em" dy="0.3em" style="text-anchor: end; visibility: inherit; font-family: Roboto, sans-serif; font-size: 12px; font-weight: 200;" fill="rgb(255, 255, 255)" stroke="none" stroke-width="1px">0.955</text><text x="0" y="242.357142857143" dx="0em" dy="0.3em" style="text-anchor: end; visibility: inherit; font-family: Roboto, sans-serif; font-size: 12px; font-weight: 200;" fill="rgb(255, 255, 255)" stroke="none" stroke-width="1px">0.96</text><text x="0" y="215.4285714285715" dx="0em" dy="0.3em" style="text-anchor: end; visibility: inherit; font-family: Roboto, sans-serif; font-size: 12px; font-weight: 200;" fill="rgb(255, 255, 255)" stroke="none" stroke-width="1px">0.965</text><text x="0" y="188.5" dx="0em" dy="0.3em" style="text-anchor: end; visibility: inherit; font-family: Roboto, sans-serif; font-size: 12px; font-weight: 200;" fill="rgb(255, 255, 255)" stroke="none" stroke-width="1px">0.97</text><text x="0" y="161.5714285714285" dx="0em" dy="0.3em" style="text-anchor: end; visibility: inherit; font-family: Roboto, sans-serif; font-size: 12px; font-weight: 200;" fill="rgb(255, 255, 255)" stroke="none" stroke-width="1px">0.975</text><text x="0" y="134.64285714285697" dx="0em" dy="0.3em" style="text-anchor: end; visibility: inherit; font-family: Roboto, sans-serif; font-size: 12px; font-weight: 200;" fill="rgb(255, 255, 255)" stroke="none" stroke-width="1px">0.98</text><text x="0" y="107.71428571428545" dx="0em" dy="0.3em" style="text-anchor: end; visibility: inherit; font-family: Roboto, sans-serif; font-size: 12px; font-weight: 200;" fill="rgb(255, 255, 255)" stroke="none" stroke-width="1px">0.985</text><text x="0" y="80.78571428571395" dx="0em" dy="0.3em" style="text-anchor: end; visibility: inherit; font-family: Roboto, sans-serif; font-size: 12px; font-weight: 200;" fill="rgb(255, 255, 255)" stroke="none" stroke-width="1px">0.99</text><text x="0" y="53.857142857142414" dx="0em" dy="0.3em" style="text-anchor: end; visibility: inherit; font-family: Roboto, sans-serif; font-size: 12px; font-weight: 200;" fill="rgb(255, 255, 255)" stroke="none" stroke-width="1px">0.995</text><text x="0" y="26.928571428570915" dx="0em" dy="0.3em" style="text-anchor: end; visibility: inherit; font-family: Roboto, sans-serif; font-size: 12px; font-weight: 200;" fill="rgb(255, 255, 255)" stroke="none" stroke-width="1px">1</text></g><line x1="60" y1="0" x2="60" y2="377" fill="rgb(0, 0, 0)" stroke="rgb(204, 204, 204)" stroke-width="1px"></line></g></g><g transform="translate(60, 0)" clip-path="url(#clip_0)"><clipPath id="clip_0"><rect width="1436" height="377"></rect></clipPath><g><g><g><line x1="0" y1="0" x2="0" y2="377" fill="rgb(0, 0, 0)" stroke="rgb(189, 189, 189)" stroke-width="1px" opacity="0.25"></line><line x1="119.66666666666666" y1="0" x2="119.66666666666666" y2="377" fill="rgb(0, 0, 0)" stroke="rgb(189, 189, 189)" stroke-width="1px" opacity="0.25"></line><line x1="239.33333333333331" y1="0" x2="239.33333333333331" y2="377" fill="rgb(0, 0, 0)" stroke="rgb(189, 189, 189)" stroke-width="1px" opacity="0.25"></line><line x1="359" y1="0" x2="359" y2="377" fill="rgb(0, 0, 0)" stroke="rgb(189, 189, 189)" stroke-width="1px" opacity="0.25"></line><line x1="478.66666666666663" y1="0" x2="478.66666666666663" y2="377" fill="rgb(0, 0, 0)" stroke="rgb(189, 189, 189)" stroke-width="1px" opacity="0.25"></line><line x1="598.3333333333334" y1="0" x2="598.3333333333334" y2="377" fill="rgb(0, 0, 0)" stroke="rgb(189, 189, 189)" stroke-width="1px" opacity="0.25"></line><line x1="718" y1="0" x2="718" y2="377" fill="rgb(0, 0, 0)" stroke="rgb(189, 189, 189)" stroke-width="1px" opacity="0.25"></line><line x1="837.6666666666667" y1="0" x2="837.6666666666667" y2="377" fill="rgb(0, 0, 0)" stroke="rgb(189, 189, 189)" stroke-width="1px" opacity="0.25"></line><line x1="957.3333333333333" y1="0" x2="957.3333333333333" y2="377" fill="rgb(0, 0, 0)" stroke="rgb(189, 189, 189)" stroke-width="1px" opacity="0.25"></line><line x1="1077" y1="0" x2="1077" y2="377" fill="rgb(0, 0, 0)" stroke="rgb(189, 189, 189)" stroke-width="1px" opacity="0.25"></line><line x1="1196.6666666666667" y1="0" x2="1196.6666666666667" y2="377" fill="rgb(0, 0, 0)" stroke="rgb(189, 189, 189)" stroke-width="1px" opacity="0.25"></line><line x1="1316.3333333333333" y1="0" x2="1316.3333333333333" y2="377" fill="rgb(0, 0, 0)" stroke="rgb(189, 189, 189)" stroke-width="1px" opacity="0.25"></line><line x1="1436" y1="0" x2="1436" y2="377" fill="rgb(0, 0, 0)" stroke="rgb(189, 189, 189)" stroke-width="1px" opacity="0.25"></line></g><g><line x1="0" y1="377" x2="1436" y2="377" fill="rgb(0, 0, 0)" stroke="rgb(189, 189, 189)" stroke-width="1px" opacity="0.25"></line><line x1="0" y1="350.07142857142907" x2="1436" y2="350.07142857142907" fill="rgb(0, 0, 0)" stroke="rgb(189, 189, 189)" stroke-width="1px" opacity="0.25"></line><line x1="0" y1="323.14285714285757" x2="1436" y2="323.14285714285757" fill="rgb(0, 0, 0)" stroke="rgb(189, 189, 189)" stroke-width="1px" opacity="0.25"></line><line x1="0" y1="296.21428571428606" x2="1436" y2="296.21428571428606" fill="rgb(0, 0, 0)" stroke="rgb(189, 189, 189)" stroke-width="1px" opacity="0.25"></line><line x1="0" y1="269.28571428571456" x2="1436" y2="269.28571428571456" fill="rgb(0, 0, 0)" stroke="rgb(189, 189, 189)" stroke-width="1px" opacity="0.25"></line><line x1="0" y1="242.357142857143" x2="1436" y2="242.357142857143" fill="rgb(0, 0, 0)" stroke="rgb(189, 189, 189)" stroke-width="1px" opacity="0.25"></line><line x1="0" y1="215.4285714285715" x2="1436" y2="215.4285714285715" fill="rgb(0, 0, 0)" stroke="rgb(189, 189, 189)" stroke-width="1px" opacity="0.25"></line><line x1="0" y1="188.5" x2="1436" y2="188.5" fill="rgb(0, 0, 0)" stroke="rgb(189, 189, 189)" stroke-width="1px" opacity="0.25"></line><line x1="0" y1="161.5714285714285" x2="1436" y2="161.5714285714285" fill="rgb(0, 0, 0)" stroke="rgb(189, 189, 189)" stroke-width="1px" opacity="0.25"></line><line x1="0" y1="134.64285714285697" x2="1436" y2="134.64285714285697" fill="rgb(0, 0, 0)" stroke="rgb(189, 189, 189)" stroke-width="1px" opacity="0.25"></line><line x1="0" y1="107.71428571428545" x2="1436" y2="107.71428571428545" fill="rgb(0, 0, 0)" stroke="rgb(189, 189, 189)" stroke-width="1px" opacity="0.25"></line><line x1="0" y1="80.78571428571395" x2="1436" y2="80.78571428571395" fill="rgb(0, 0, 0)" stroke="rgb(189, 189, 189)" stroke-width="1px" opacity="0.25"></line><line x1="0" y1="53.857142857142414" x2="1436" y2="53.857142857142414" fill="rgb(0, 0, 0)" stroke="rgb(189, 189, 189)" stroke-width="1px" opacity="0.25"></line><line x1="0" y1="26.928571428570915" x2="1436" y2="26.928571428570915" fill="rgb(0, 0, 0)" stroke="rgb(189, 189, 189)" stroke-width="1px" opacity="0.25"></line></g></g></g><g><g><line x1="0" y1="5412.642857142869" x2="1436" y2="5412.642857142869" fill="rgb(0, 0, 0)" stroke="rgb(153, 153, 153)" stroke-width="1.5px"></line></g></g><g><g><line x1="119.66666666666666" y1="0" x2="119.66666666666666" y2="377" fill="rgb(0, 0, 0)" stroke="rgb(153, 153, 153)" stroke-width="1.5px"></line></g></g><g><g><g><g><g><path stroke="rgb(0, 119, 187)" stroke-width="2px" d="M143.6,447.4631917561808L167.53333333333333,340.9280769303659L191.46666666666667,273.4566263056858L215.4,224.34504705386848L239.33333333333331,189.4857096280932L263.26666666666665,162.66882113488597L287.2,141.17876624107544L311.1333333333333,123.34956346687655L335.06666666666666,110.2842520684549L359,97.7211948175467L382.93333333333334,88.18849918227845L406.8666666666667,79.7408669364077L430.8,72.70305848217242L454.7333333333333,65.96944291020615L478.66666666666663,59.596744621811496L502.59999999999997,55.05611168843752L526.5333333333333,50.85091673668956L550.4666666666667,47.52022529615125L574.4,43.81639698864491L598.3333333333334,41.369729049605176L622.2666666666667,39.27346657504483L646.2,37.43224784553292L670.1333333333333,35.60947932042154L694.0666666666667,34.246556770838474L718,33.15953906500477L741.9333333333334,32.19312120781741L765.8666666666667,31.388818288773717L789.8000000000001,30.41251777494721L813.7333333333333,29.82673769687495L837.6666666666667,29.340700819450056L861.6,29.00413682851783L885.5333333333334,28.488118742718232L909.4666666666666,28.44777411138341L933.4,28.28887002995951L957.3333333333333,28.148714085665585L981.2666666666667,28.01967861757516L1005.1999999999999,27.8076884411195L1029.1333333333334,27.59073893666401L1053.0666666666666,27.505382731086236L1077,27.40935551105027L1100.9333333333334,27.351739179077725L1124.8666666666666,27.317169379912155L1148.8,27.296427500419032L1172.7333333333333,27.283982372725646L1196.6666666666667,27.23157339394706L1220.6,27.155314509954007L1244.5333333333333,27.10955917956072L1268.4666666666667,27.126919478051352L1292.4,27.092522160419346" style="fill: none;" fill="none"></path></g><g><path stroke="rgb(0, 153, 136)" stroke-width="2px" d="M143.6,457.4771704716346L167.53333333333333,355.04957598847557L191.46666666666667,285.7807816593847L215.4,238.28298872992377L239.33333333333331,200.49448565767656L263.26666666666665,172.74880385159773L287.2,150.90097480439653L311.1333333333333,133.22379885115353L335.06666666666666,117.5394161652108L359,104.85640385308777L382.93333333333334,93.99269746942298L406.8666666666667,86.14140784550986L430.8,78.56264819885335L454.7333333333333,71.81896078106816L478.66666666666663,65.93408063626794L502.59999999999997,60.249592566106095L526.5333333333333,55.49291944169724L550.4666666666667,51.74161607637823L574.4,48.36893264706177L598.3333333333334,44.460368376088816L622.2666666666667,42.02552810881651L646.2,40.20549162187815L670.1333333333333,38.26073439595063L694.0666666666667,36.82461899581884L718,35.0204548700574L741.9333333333334,33.533994453089385L765.8666666666667,32.507550198340915L789.8000000000001,31.936497562142936L813.7333333333333,31.369541770994452L837.6666666666667,30.58059132256203L861.6,30.017465714448914L885.5333333333334,29.634648473956837L909.4666666666666,29.31520273990265L933.4,28.988838001965004L957.3333333333333,28.568694865980607L981.2666666666667,28.27166708472462L1005.1999999999999,28.04863692025539L1029.1333333333334,28.0045742211905L1053.0666666666666,27.798625803801336L1077,27.719870250305917L1100.9333333333334,27.582861519319472L1124.8666666666666,27.455842784030626L1148.8,27.469386941782748L1172.7333333333333,27.342816135371066L1196.6666666666667,27.311815553696288L1220.6,27.248273302529938L1244.5333333333333,27.165334455105285L1268.4666666666667,27.16038464337798L1292.4,27.11260125961482" style="fill: none;" fill="none"></path></g><g><path stroke="rgb(204, 51, 17)" stroke-width="2px" d="M143.6,481.29212518675035L167.53333333333333,368.71759422040935L191.46666666666667,295.5909285491507L215.4,245.2982022323139L239.33333333333331,207.15555697904497L263.26666666666665,179.80854728506765L287.2,157.37105863039932L311.1333333333333,139.52769856920673L335.06666666666666,124.37692288655246L359,111.92192007176187L382.93333333333334,101.73419603450374L406.8666666666667,93.20907950065535L430.8,86.75362582315128L454.7333333333333,78.88727747604753L478.66666666666663,73.04751295610748L502.59999999999997,67.25536600915107L526.5333333333333,62.523873737969026L550.4666666666667,57.80017928043417L574.4,53.844099119478464L598.3333333333334,49.9445399325203L622.2666666666667,46.79704994700424L646.2,43.96607913543681L670.1333333333333,41.504522248479944L694.0666666666667,39.48906165676821L718,37.51680257418751L741.9333333333334,35.929485366642766L765.8666666666667,35.066851535867556L789.8000000000001,33.74147268881697L813.7333333333333,32.81154836230203L837.6666666666667,31.89457225479745L861.6,31.164875856078577L885.5333333333334,30.368036441324847L909.4666666666666,30.024501716292846L933.4,29.728625487143866L957.3333333333333,29.19207815366084L981.2666666666667,28.870149757111633L1005.1999999999999,28.67699272045833L1029.1333333333334,28.561098498925073L1053.0666666666666,28.401806567164062L1077,28.21647600928555L1100.9333333333334,28.150091171400017L1124.8666666666666,27.930749470864747L1148.8,27.66457555494777L1172.7333333333333,27.639440101053932L1196.6666666666667,27.53460342982722L1220.6,27.42688793036757L1244.5333333333333,27.317316728533086L1268.4666666666667,27.251574007433693L1292.4,27.167314878048035" style="fill: none;" fill="none"></path></g><g><path stroke="rgb(187, 187, 187)" stroke-width="2px" d="M167.53333333333333,378.10154200712446L191.46666666666667,305.92194830832835L215.4,257.28016691091136L239.33333333333331,221.03052708458546L263.26666666666665,191.39054743429458L287.2,169.90140728035968L311.1333333333333,152.39002053265187L335.06666666666666,137.3911885607452L359,125.56725512132235L382.93333333333334,114.40730750031254L406.8666666666667,105.1654681499849L430.8,97.20254236234115L454.7333333333333,90.04895278093389L478.66666666666663,83.46947952645301L502.59999999999997,78.31088804515107L526.5333333333333,72.79252171316566L550.4666666666667,67.77627570490344L574.4,63.599732477785054L598.3333333333334,60.106573225537794L622.2666666666667,56.39497986543429L646.2,53.18060952395665L670.1333333333333,49.86072408758146L694.0666666666667,47.15075766103493L718,45.03106299721457L741.9333333333334,42.68205421847287L765.8666666666667,41.09313958189935L789.8000000000001,39.42174796877168L813.7333333333333,37.74568355182832L837.6666666666667,36.02187344701656L861.6,34.85301862414496L885.5333333333334,34.15170578995808L909.4666666666666,32.87817759430789L933.4,32.383326901558576L957.3333333333333,31.18886249322992L981.2666666666667,30.786263551447007L1005.1999999999999,30.27543799031218L1029.1333333333334,29.834373758933328L1053.0666666666666,29.479851416293346L1077,29.042813716334003L1100.9333333333334,28.82540459333009L1124.8666666666666,28.739901021768592L1148.8,28.41933268214087L1172.7333333333333,28.137236279504208L1196.6666666666667,27.967978437940427L1220.6,27.911237229736876L1244.5333333333333,27.787437105927385L1268.4666666666667,27.71315703164405L1292.4,27.713530889234622" style="fill: none;" fill="none"></path></g><g><path stroke="rgb(51, 187, 238)" stroke-width="2px" d="M167.53333333333333,405.21555499224195L191.46666666666667,335.63198827119464L215.4,287.1464637089763L239.33333333333331,250.04080672128308L263.26666666666665,220.0981941229312L287.2,198.2504113695991L311.1333333333333,179.711711339803L335.06666666666666,164.82556893138747L359,151.98782497802506L382.93333333333334,140.8066973144863L406.8666666666667,133.304634387306L430.8,124.4977774686058L454.7333333333333,117.37716685310909L478.66666666666663,111.17646551779337L502.59999999999997,103.55182254009834L526.5333333333333,97.40691959152325L550.4666666666667,91.70056509308624L574.4,87.46914681895842L598.3333333333334,83.22487647121066L622.2666666666667,79.2869542464133L646.2,75.84716079141205L670.1333333333333,71.40458015421245L694.0666666666667,68.11075566588924L718,65.23678304056233L741.9333333333334,61.85186182128449L765.8666666666667,59.7311558529533L789.8000000000001,57.60599229909743L813.7333333333333,54.62541330660704L837.6666666666667,52.118894641038494L861.6,50.300903936099935L885.5333333333334,48.581693378087316L909.4666666666666,46.652613081239785L933.4,44.77699332963221L957.3333333333333,43.29259990005353L981.2666666666667,42.042942254336786L1005.1999999999999,41.20339227263651L1029.1333333333334,39.80197988931234L1053.0666666666666,38.736808166516504L1077,37.3795335366472L1100.9333333333334,37.103829558434754L1124.8666666666666,36.66914097485618L1148.8,35.64534273140354L1172.7333333333333,34.62710028769649L1196.6666666666667,33.926399422648394L1220.6,33.01226000703527L1244.5333333333333,32.463776357689014L1268.4666666666667,32.08987267136303L1292.4,31.865530459570547" style="fill: none;" fill="none"></path></g><g><path stroke="rgb(255, 112, 67)" stroke-width="2px" d="M191.46666666666667,382.5057797024985L215.4,331.89054776278107L239.33333333333331,290.22877971111166L263.26666666666665,262.3097443593823L287.2,238.85473320239709L311.1333333333333,220.59337687446887L335.06666666666666,204.20107101970308L359,191.23124208576394L382.93333333333334,180.87068282196446L406.8666666666667,171.79274235600562L430.8,163.8831701490272L454.7333333333333,156.80640052224604L478.66666666666663,150.22804153313803L502.59999999999997,144.172412469351L526.5333333333333,137.89144527672693L550.4666666666667,134.43750048523768L574.4,130.569966293491L598.3333333333334,126.72353261608971L622.2666666666667,122.26144007913972L646.2,118.41726433821566L670.1333333333333,114.53998719702798L694.0666666666667,111.13643641586704L718,107.92748996416242L741.9333333333334,104.38639835735002L765.8666666666667,102.62076752881829L789.8000000000001,99.81109459971557L813.7333333333333,97.8558968431593L837.6666666666667,95.15680807694325L861.6,92.46029017398752L885.5333333333334,89.36135121449442L909.4666666666666,86.02083120129011L933.4,83.43304494911084L957.3333333333333,81.61110702683764L981.2666666666667,79.53063489163777L1005.1999999999999,77.96814351877129L1029.1333333333334,75.95345550429198L1053.0666666666666,73.89190220519724L1077,72.34089053386761L1100.9333333333334,70.42284573820322L1124.8666666666666,69.0476945668318L1148.8,67.54937416978012L1172.7333333333333,65.93221033511303L1196.6666666666667,64.42337964106801L1220.6,63.114117726978876L1244.5333333333333,61.296309288620314L1268.4666666666667,59.66709183230576L1292.4,58.240784364093614" style="fill: none;" fill="none"></path></g></g></g></g><g opacity="0.2"><g><g><g><path stroke="rgb(0, 119, 187)" stroke-width="2px" d="M119.66666666666666,664.0137409823291L143.6,317.53286222049184L167.53333333333333,238.65436669758387L191.46666666666667,194.11020037106093L215.4,160.22496918269547L239.33333333333331,141.26269660677204L263.26666666666665,124.3202415193827L287.2,109.84605990137338L311.1333333333333,97.05495251928019L335.06666666666666,90.88378732544999L359,78.9905549458091L382.93333333333334,73.94133223806068L406.8666666666667,67.09700155258137L430.8,62.160133600234566L454.7333333333333,55.87693466458956L478.66666666666663,50.04219170979044L502.59999999999997,48.247083732059544L526.5333333333333,44.54419200760929L550.4666666666667,42.52469553266203L574.4,38.26099307196433L598.3333333333334,37.69986132212998L622.2666666666667,36.12914184161546L646.2,34.670456102915686L670.1333333333333,32.87534812518479L694.0666666666667,32.20218263353569L718,31.529017141886637L741.9333333333334,30.743496894835925L765.8666666666667,30.18236514500158L789.8000000000001,28.948067903518176L813.7333333333333,28.948067903518176L837.6666666666667,28.611645664487053L861.6,28.499290909085442L885.5333333333334,27.714091675621628L909.4666666666666,28.387257167270686L933.4,28.050513914652708L957.3333333333333,27.938480172837995L981.2666666666667,27.826125417436383L1005.1999999999999,27.48970317840526L1029.1333333333334,27.265314681188894L1053.0666666666666,27.37734842300365L1077,27.265314681188894L1100.9333333333334,27.265314681188894L1124.8666666666666,27.265314681188894L1148.8,27.265314681188894L1172.7333333333333,27.265314681188894L1196.6666666666667,27.152959925787282L1220.6,27.040926183972527L1244.5333333333333,27.040926183972527L1268.4666666666667,27.152959925787282L1292.4,27.040926183972527" style="fill: none;" fill="none"></path></g><g><path stroke="rgb(0, 153, 136)" stroke-width="2px" d="M119.66666666666666,672.765534400941L143.6,328.3041521140509L167.53333333333333,256.71908528464184L191.46666666666667,204.3206795283725L215.4,176.2698702812193L239.33333333333331,148.21938204765294L263.26666666666665,133.07203493799457L287.2,119.04663031441792L311.1333333333333,107.15339793477706L335.06666666666666,94.24993579728226L359,85.94691937310319L382.93333333333334,77.75625770432569L406.8666666666667,74.39010923249342L430.8,67.20935630798299L454.7333333333333,61.71135660580183L478.66666666666663,57.11091089248611L502.59999999999997,51.725265945706575L526.5333333333333,48.3591174738743L550.4666666666667,46.115232501710715L574.4,43.31021577971274L598.3333333333334,38.59773632458231L622.2666666666667,38.37334782736594L646.2,37.475472824913616L670.1333333333333,35.343621594564745L694.0666666666667,34.670456102915686L718,32.31421637535045L741.9333333333334,31.304307631083415L765.8666666666667,30.967885392052292L789.8000000000001,31.079919133867048L813.7333333333333,30.519108397619558L837.6666666666667,29.397165911537765L861.6,29.1727774143214L885.5333333333334,29.060422658919787L909.4666666666666,28.83603416170342L933.4,28.499290909085442L957.3333333333333,27.938480172837995L981.2666666666667,27.826125417436383L1005.1999999999999,27.714091675621628L1029.1333333333334,27.938480172837995L1053.0666666666666,27.48970317840526L1077,27.601736920220016L1100.9333333333334,27.37734842300365L1124.8666666666666,27.265314681188894L1148.8,27.48970317840526L1172.7333333333333,27.152959925787282L1196.6666666666667,27.265314681188894L1220.6,27.152959925787282L1244.5333333333333,27.040926183972527L1268.4666666666667,27.152959925787282L1292.4,27.040926183972527" style="fill: none;" fill="none"></path></g><g><path stroke="rgb(204, 51, 17)" stroke-width="2px" d="M119.66666666666666,712.1484442779007L143.6,342.7783337320602L167.53333333333333,260.64604449272156L191.46666666666667,209.59396971975042L215.4,179.6360187530516L239.33333333333331,154.3905472414832L263.26666666666665,140.7018858705246L287.2,124.65698477200068L311.1333333333333,113.2122083732057L335.06666666666666,101.87978672981228L359,93.35238180841684L382.93333333333334,86.5080511229375L406.8666666666667,80.4492406845089L430.8,77.08309221267659L454.7333333333333,67.09700155258137L478.66666666666663,64.29198483058344L502.59999999999997,58.569596631185924L526.5333333333333,55.42783665656997L550.4666666666667,50.71535720143954L574.4,47.910340479441565L598.3333333333334,44.0954150131766L622.2666666666667,42.07591853822934L646.2,39.7196788106641L670.1333333333333,37.812216077531595L694.0666666666667,36.465885094233435L718,34.55842236110093L741.9333333333334,33.54851361683385L765.8666666666667,33.77290211405022L789.8000000000001,31.75340563910296L813.7333333333333,31.416662386485026L837.6666666666667,30.519108397619558L861.6,30.070331403186824L885.5333333333334,29.1727774143214L909.4666666666666,29.50919965335252L933.4,29.284811156136154L957.3333333333333,28.387257167270686L981.2666666666667,28.387257167270686L1005.1999999999999,28.387257167270686L1029.1333333333334,28.387257167270686L1053.0666666666666,28.16286867005432L1077,27.938480172837995L1100.9333333333334,28.050513914652708L1124.8666666666666,27.601736920220016L1148.8,27.265314681188894L1172.7333333333333,27.601736920220016L1196.6666666666667,27.37734842300365L1220.6,27.265314681188894L1244.5333333333333,27.152959925787282L1268.4666666666667,27.152959925787282L1292.4,27.040926183972527" style="fill: none;" fill="none"></path></g><g><path stroke="rgb(187, 187, 187)" stroke-width="2px" d="M119.66666666666666,713.4950962747856L143.6,355.79382961136974L167.53333333333333,270.74448990821844L191.46666666666667,221.03874611854545L215.4,193.77345711844293L239.33333333333331,170.88422533443978L263.26666666666665,149.00490229470367L287.2,138.57003464017572L311.1333333333333,126.56412649154633L335.06666666666666,115.1196711063382L359,107.93859716824088L382.93333333333334,97.7281180109293L406.8666666666667,91.33288533346958L430.8,85.27375388145408L454.7333333333333,79.32697718484022L478.66666666666663,73.60490999902956L502.59999999999997,70.5751837662284L526.5333333333333,64.51637332779977L550.4666666666667,60.25267086710206L574.4,57.33529938970248L598.3333333333334,54.867025920322526L622.2666666666667,50.82771195684115L646.2,48.3591174738743L670.1333333333333,44.88093526022727L694.0666666666667,43.085827282496375L718,41.85153004101297L741.9333333333334,39.158547060829754L765.8666666666667,38.70977006639706L789.8000000000001,36.91466208866617L813.7333333333333,35.23158785274999L837.6666666666667,33.43615886143224L861.6,33.09973662240116L885.5333333333334,33.09973662240116L909.4666666666666,30.967885392052292L933.4,31.64105088370135L957.3333333333333,29.397165911537765L981.2666666666667,30.18236514500158L1005.1999999999999,29.50919965335252L1029.1333333333334,29.1727774143214L1053.0666666666666,28.948067903518176L1077,28.387257167270686L1100.9333333333334,28.499290909085442L1124.8666666666666,28.611645664487053L1148.8,27.938480172837995L1172.7333333333333,27.714091675621628L1196.6666666666667,27.714091675621628L1220.6,27.826125417436383L1244.5333333333333,27.601736920220016L1268.4666666666667,27.601736920220016L1292.4,27.714091675621628" style="fill: none;" fill="none"></path></g><g><path stroke="rgb(51, 187, 238)" stroke-width="2px" d="M143.6,377.3367304120748L167.53333333333333,293.6337216922216L191.46666666666667,253.8017138072423L215.4,223.84376284054343L239.33333333333331,198.71032507078974L263.26666666666665,177.27977902548636L287.2,166.39613437652568L311.1333333333333,152.37072975294907L335.06666666666666,142.7213823454718L359,132.8476464407782L382.93333333333334,124.09585302216638L406.8666666666667,122.07603553363226L430.8,111.3047456400732L454.7333333333333,106.70462094034433L478.66666666666663,101.87978672981228L502.59999999999997,92.11808456693339L526.5333333333333,88.19112535885364L550.4666666666667,83.14190265110523L574.4,81.12240617615797L598.3333333333334,76.85870371546025L622.2666666666667,73.38020048822634L646.2,70.68753852163002L670.1333333333333,64.74076182501614L694.0666666666667,63.1700423445016L718,60.92583635875112L741.9333333333334,56.77448865345503L765.8666666666667,56.55010015623866L789.8000000000001,54.41824892588979L813.7333333333333,50.15454646519205L837.6666666666667,48.3591174738743L861.6,47.573918240410485L885.5333333333334,46.0028777463091L909.4666666666666,43.758992774145476L933.4,41.96356378282773L957.3333333333333,41.06600979396226L981.2666666666667,40.16845580509683L1005.1999999999999,39.944067307880466L1029.1333333333334,37.69986132212998L1053.0666666666666,37.139050585882494L1077,35.343621594564745L1100.9333333333334,36.6902735914498L1124.8666666666666,36.0171080998007L1148.8,34.1096453666682L1172.7333333333333,33.09973662240116L1196.6666666666667,32.87534812518479L1220.6,31.64105088370135L1244.5333333333333,31.64105088370135L1268.4666666666667,31.529017141886637L1292.4,31.529017141886637" style="fill: none;" fill="none"></path></g><g><path stroke="rgb(255, 112, 67)" stroke-width="2px" d="M143.6,422.21763999121566L167.53333333333333,344.46140796797636L191.46666666666667,297.56068090030135L215.4,265.80730094228477L239.33333333333331,232.59555625915525L263.26666666666665,222.38507710184365L287.2,204.65710176740362L311.1333333333333,193.66142337662822L335.06666666666666,179.86040725026797L359,171.89413407870683L382.93333333333334,165.38622563225863L406.8666666666667,158.2054727077482L430.8,152.03430751391795L454.7333333333333,146.19956455911884L478.66666666666663,140.3651426179066L502.59999999999997,135.09153141294183L526.5333333333333,128.47158922467884L550.4666666666667,129.25710947172956L574.4,124.76901851381544L598.3333333333334,120.95409304755043L622.2666666666667,115.5684481007709L646.2,112.65107662337135L670.1333333333333,108.72411741529159L694.0666666666667,106.03113443510837L718,103.11408397129568L741.9333333333334,99.07477000781431L765.8666666666667,99.97232399667978L789.8000000000001,95.59658779416728L813.7333333333333,94.92310128893136L837.6666666666667,91.10817582266635L861.6,88.41551385606999L885.5333333333334,84.71294314520661L909.4666666666666,81.01005142075635L933.4,79.55136568205658L957.3333333333333,78.87820019040748L981.2666666666667,76.40992672102753L1005.1999999999999,75.62440647397682L1029.1333333333334,72.93142349379364L1053.0666666666666,70.79957226344477L1077,70.01437302998092L1100.9333333333334,67.54577854701411L1124.8666666666666,66.98496781076662L1148.8,65.30189357485048L1172.7333333333333,63.506464583532725L1196.6666666666667,62.160133600234566L1220.6,61.15022485596749L1244.5333333333333,58.569596631185924L1268.4666666666667,57.22326564788772L1292.4,56.10132316180593" style="fill: none;" fill="none"></path></g></g></g></g></g></g><g transform="translate(60, 377)" clip-path="url(#clip_1)"><clipPath id="clip_1"><rect width="1436" height="23"></rect></clipPath><g><g><line x1="0" y1="0" x2="0" y2="5" style="visibility: inherit;" fill="rgb(0, 0, 0)" stroke="rgb(204, 204, 204)" stroke-width="1px"></line><line x1="119.66666666666666" y1="0" x2="119.66666666666666" y2="5" style="visibility: inherit;" fill="rgb(0, 0, 0)" stroke="rgb(204, 204, 204)" stroke-width="1px"></line><line x1="239.33333333333331" y1="0" x2="239.33333333333331" y2="5" style="visibility: inherit;" fill="rgb(0, 0, 0)" stroke="rgb(204, 204, 204)" stroke-width="1px"></line><line x1="359" y1="0" x2="359" y2="5" style="visibility: inherit;" fill="rgb(0, 0, 0)" stroke="rgb(204, 204, 204)" stroke-width="1px"></line><line x1="478.66666666666663" y1="0" x2="478.66666666666663" y2="5" style="visibility: inherit;" fill="rgb(0, 0, 0)" stroke="rgb(204, 204, 204)" stroke-width="1px"></line><line x1="598.3333333333334" y1="0" x2="598.3333333333334" y2="5" style="visibility: inherit;" fill="rgb(0, 0, 0)" stroke="rgb(204, 204, 204)" stroke-width="1px"></line><line x1="718" y1="0" x2="718" y2="5" style="visibility: inherit;" fill="rgb(0, 0, 0)" stroke="rgb(204, 204, 204)" stroke-width="1px"></line><line x1="837.6666666666667" y1="0" x2="837.6666666666667" y2="5" style="visibility: inherit;" fill="rgb(0, 0, 0)" stroke="rgb(204, 204, 204)" stroke-width="1px"></line><line x1="957.3333333333333" y1="0" x2="957.3333333333333" y2="5" style="visibility: inherit;" fill="rgb(0, 0, 0)" stroke="rgb(204, 204, 204)" stroke-width="1px"></line><line x1="1077" y1="0" x2="1077" y2="5" style="visibility: inherit;" fill="rgb(0, 0, 0)" stroke="rgb(204, 204, 204)" stroke-width="1px"></line><line x1="1196.6666666666667" y1="0" x2="1196.6666666666667" y2="5" style="visibility: inherit;" fill="rgb(0, 0, 0)" stroke="rgb(204, 204, 204)" stroke-width="1px"></line><line x1="1316.3333333333333" y1="0" x2="1316.3333333333333" y2="5" style="visibility: inherit;" fill="rgb(0, 0, 0)" stroke="rgb(204, 204, 204)" stroke-width="1px"></line><line x1="1436" y1="0" x2="1436" y2="5" style="visibility: inherit;" fill="rgb(0, 0, 0)" stroke="rgb(204, 204, 204)" stroke-width="1px"></line></g><g transform="translate(0, 8)"><text x="0" y="0" dx="0em" dy="0.95em" style="text-anchor: middle; visibility: hidden; font-family: Roboto, sans-serif; font-size: 12px; font-weight: 200;" fill="rgb(255, 255, 255)" stroke="none" stroke-width="1px">-5</text><text x="119.66666666666666" y="0" dx="0em" dy="0.95em" style="text-anchor: middle; visibility: inherit; font-family: Roboto, sans-serif; font-size: 12px; font-weight: 200;" fill="rgb(255, 255, 255)" stroke="none" stroke-width="1px">0</text><text x="239.33333333333331" y="0" dx="0em" dy="0.95em" style="text-anchor: middle; visibility: inherit; font-family: Roboto, sans-serif; font-size: 12px; font-weight: 200;" fill="rgb(255, 255, 255)" stroke="none" stroke-width="1px">5</text><text x="359" y="0" dx="0em" dy="0.95em" style="text-anchor: middle; visibility: inherit; font-family: Roboto, sans-serif; font-size: 12px; font-weight: 200;" fill="rgb(255, 255, 255)" stroke="none" stroke-width="1px">10</text><text x="478.66666666666663" y="0" dx="0em" dy="0.95em" style="text-anchor: middle; visibility: inherit; font-family: Roboto, sans-serif; font-size: 12px; font-weight: 200;" fill="rgb(255, 255, 255)" stroke="none" stroke-width="1px">15</text><text x="598.3333333333334" y="0" dx="0em" dy="0.95em" style="text-anchor: middle; visibility: inherit; font-family: Roboto, sans-serif; font-size: 12px; font-weight: 200;" fill="rgb(255, 255, 255)" stroke="none" stroke-width="1px">20</text><text x="718" y="0" dx="0em" dy="0.95em" style="text-anchor: middle; visibility: inherit; font-family: Roboto, sans-serif; font-size: 12px; font-weight: 200;" fill="rgb(255, 255, 255)" stroke="none" stroke-width="1px">25</text><text x="837.6666666666667" y="0" dx="0em" dy="0.95em" style="text-anchor: middle; visibility: inherit; font-family: Roboto, sans-serif; font-size: 12px; font-weight: 200;" fill="rgb(255, 255, 255)" stroke="none" stroke-width="1px">30</text><text x="957.3333333333333" y="0" dx="0em" dy="0.95em" style="text-anchor: middle; visibility: inherit; font-family: Roboto, sans-serif; font-size: 12px; font-weight: 200;" fill="rgb(255, 255, 255)" stroke="none" stroke-width="1px">35</text><text x="1077" y="0" dx="0em" dy="0.95em" style="text-anchor: middle; visibility: inherit; font-family: Roboto, sans-serif; font-size: 12px; font-weight: 200;" fill="rgb(255, 255, 255)" stroke="none" stroke-width="1px">40</text><text x="1196.6666666666667" y="0" dx="0em" dy="0.95em" style="text-anchor: middle; visibility: inherit; font-family: Roboto, sans-serif; font-size: 12px; font-weight: 200;" fill="rgb(255, 255, 255)" stroke="none" stroke-width="1px">45</text><text x="1316.3333333333333" y="0" dx="0em" dy="0.95em" style="text-anchor: middle; visibility: inherit; font-family: Roboto, sans-serif; font-size: 12px; font-weight: 200;" fill="rgb(255, 255, 255)" stroke="none" stroke-width="1px">50</text><text x="1436" y="0" dx="0em" dy="0.95em" style="text-anchor: middle; visibility: hidden; font-family: Roboto, sans-serif; font-size: 12px; font-weight: 200;" fill="rgb(255, 255, 255)" stroke="none" stroke-width="1px">55</text></g><line x1="0" y1="0" x2="1436" y2="0" fill="rgb(0, 0, 0)" stroke="rgb(204, 204, 204)" stroke-width="1px"></line></g></g></g></g></svg>