<svg viewBox="0 0 1496 400" xmlns="http://www.w3.org/2000/svg"><g><g><g><g><g><line x1="60" y1="377" x2="55" y2="377" style="visibility: inherit;" fill="rgb(0, 0, 0)" stroke="rgb(204, 204, 204)" stroke-width="1px"></line><line x1="60" y1="350.07142857142907" x2="55" y2="350.07142857142907" style="visibility: inherit;" fill="rgb(0, 0, 0)" stroke="rgb(204, 204, 204)" stroke-width="1px"></line><line x1="60" y1="323.14285714285757" x2="55" y2="323.14285714285757" style="visibility: inherit;" fill="rgb(0, 0, 0)" stroke="rgb(204, 204, 204)" stroke-width="1px"></line><line x1="60" y1="296.21428571428606" x2="55" y2="296.21428571428606" style="visibility: inherit;" fill="rgb(0, 0, 0)" stroke="rgb(204, 204, 204)" stroke-width="1px"></line><line x1="60" y1="269.28571428571456" x2="55" y2="269.28571428571456" style="visibility: inherit;" fill="rgb(0, 0, 0)" stroke="rgb(204, 204, 204)" stroke-width="1px"></line><line x1="60" y1="242.357142857143" x2="55" y2="242.357142857143" style="visibility: inherit;" fill="rgb(0, 0, 0)" stroke="rgb(204, 204, 204)" stroke-width="1px"></line><line x1="60" y1="215.4285714285715" x2="55" y2="215.4285714285715" style="visibility: inherit;" fill="rgb(0, 0, 0)" stroke="rgb(204, 204, 204)" stroke-width="1px"></line><line x1="60" y1="188.5" x2="55" y2="188.5" style="visibility: inherit;" fill="rgb(0, 0, 0)" stroke="rgb(204, 204, 204)" stroke-width="1px"></line><line x1="60" y1="161.5714285714285" x2="55" y2="161.5714285714285" style="visibility: inherit;" fill="rgb(0, 0, 0)" stroke="rgb(204, 204, 204)" stroke-width="1px"></line><line x1="60" y1="134.64285714285697" x2="55" y2="134.64285714285697" style="visibility: inherit;" fill="rgb(0, 0, 0)" stroke="rgb(204, 204, 204)" stroke-width="1px"></line><line x1="60" y1="107.71428571428545" x2="55" y2="107.71428571428545" style="visibility: inherit;" fill="rgb(0, 0, 0)" stroke="rgb(204, 204, 204)" stroke-width="1px"></line><line x1="60" y1="80.78571428571395" x2="55" y2="80.78571428571395" style="visibility: inherit;" fill="rgb(0, 0, 0)" stroke="rgb(204, 204, 204)" stroke-width="1px"></line><line x1="60" y1="53.857142857142414" x2="55" y2="53.857142857142414" style="visibility: inherit;" fill="rgb(0, 0, 0)" stroke="rgb(204, 204, 204)" stroke-width="1px"></line><line x1="60" y1="26.928571428570915" x2="55" y2="26.928571428570915" style="visibility: inherit;" fill="rgb(0, 0, 0)" stroke="rgb(204, 204, 204)" stroke-width="1px"></line></g><g transform="translate(50, 0)"><text x="0" y="377" dx="0em" dy="0.3em" style="text-anchor: end; visibility: hidden; font-family: Roboto, sans-serif; font-size: 12px; font-weight: 200;" fill="rgb(255, 255, 255)" stroke="none" stroke-width="1px">0.935</text><text x="0" y="350.07142857142907" dx="0em" dy="0.3em" style="text-anchor: end; visibility: inherit; font-family: Roboto, sans-serif; font-size: 12px; font-weight: 200;" fill="rgb(255, 255, 255)" stroke="none" stroke-width="1px">0.94</text><text x="0" y="323.14285714285757" dx="0em" dy="0.3em" style="text-anchor: end; visibility: inherit; font-family: Roboto, sans-serif; font-size: 12px; font-weight: 200;" fill="rgb(255, 255, 255)" stroke="none" stroke-width="1px">0.945</text><text x="0" y="296.21428571428606" dx="0em" dy="0.3em" style="text-anchor: end; visibility: inherit; font-family: Roboto, sans-serif; font-size: 12px; font-weight: 200;" fill="rgb(255, 255, 255)" stroke="none" stroke-width="1px">0.95</text><text x="0" y="269.28571428571456" dx="0em" dy="0.3em" style="text-anchor: end; visibility: inherit; font-family: Roboto, sans-serif; font-size: 12px; font-weight: 200;" fill="rgb(255, 255, 255)" stroke="none" stroke-width="1px">0.955</text><text x="0" y="242.357142857143" dx="0em" dy="0.3em" style="text-anchor: end; visibility: inherit; font-family: Roboto, sans-serif; font-size: 12px; font-weight: 200;" fill="rgb(255, 255, 255)" stroke="none" stroke-width="1px">0.96</text><text x="0" y="215.4285714285715" dx="0em" dy="0.3em" style="text-anchor: end; visibility: inherit; font-family: Roboto, sans-serif; font-size: 12px; font-weight: 200;" fill="rgb(255, 255, 255)" stroke="none" stroke-width="1px">0.965</text><text x="0" y="188.5" dx="0em" dy="0.3em" style="text-anchor: end; visibility: inherit; font-family: Roboto, sans-serif; font-size: 12px; font-weight: 200;" fill="rgb(255, 255, 255)" stroke="none" stroke-width="1px">0.97</text><text x="0" y="161.5714285714285" dx="0em" dy="0.3em" style="text-anchor: end; visibility: inherit; font-family: Roboto, sans-serif; font-size: 12px; font-weight: 200;" fill="rgb(255, 255, 255)" stroke="none" stroke-width="1px">0.975</text><text x="0" y="134.64285714285697" dx="0em" dy="0.3em" style="text-anchor: end; visibility: inherit; font-family: Roboto, sans-serif; font-size: 12px; font-weight: 200;" fill="rgb(255, 255, 255)" stroke="none" stroke-width="1px">0.98</text><text x="0" y="107.71428571428545" dx="0em" dy="0.3em" style="text-anchor: end; visibility: inherit; font-family: Roboto, sans-serif; font-size: 12px; font-weight: 200;" fill="rgb(255, 255, 255)" stroke="none" stroke-width="1px">0.985</text><text x="0" y="80.78571428571395" dx="0em" dy="0.3em" style="text-anchor: end; visibility: inherit; font-family: Roboto, sans-serif; font-size: 12px; font-weight: 200;" fill="rgb(255, 255, 255)" stroke="none" stroke-width="1px">0.99</text><text x="0" y="53.857142857142414" dx="0em" dy="0.3em" style="text-anchor: end; visibility: inherit; font-family: Roboto, sans-serif; font-size: 12px; font-weight: 200;" fill="rgb(255, 255, 255)" stroke="none" stroke-width="1px">0.995</text><text x="0" y="26.928571428570915" dx="0em" dy="0.3em" style="text-anchor: end; visibility: inherit; font-family: Roboto, sans-serif; font-size: 12px; font-weight: 200;" fill="rgb(255, 255, 255)" stroke="none" stroke-width="1px">1</text></g><line x1="60" y1="0" x2="60" y2="377" fill="rgb(0, 0, 0)" stroke="rgb(204, 204, 204)" stroke-width="1px"></line></g></g><g transform="translate(60, 0)" clip-path="url(#clip_0)"><clipPath id="clip_0"><rect width="1436" height="377"></rect></clipPath><g><g><g><line x1="0" y1="0" x2="0" y2="377" fill="rgb(0, 0, 0)" stroke="rgb(189, 189, 189)" stroke-width="1px" opacity="0.25"></line><line x1="119.66666666666666" y1="0" x2="119.66666666666666" y2="377" fill="rgb(0, 0, 0)" stroke="rgb(189, 189, 189)" stroke-width="1px" opacity="0.25"></line><line x1="239.33333333333331" y1="0" x2="239.33333333333331" y2="377" fill="rgb(0, 0, 0)" stroke="rgb(189, 189, 189)" stroke-width="1px" opacity="0.25"></line><line x1="359" y1="0" x2="359" y2="377" fill="rgb(0, 0, 0)" stroke="rgb(189, 189, 189)" stroke-width="1px" opacity="0.25"></line><line x1="478.66666666666663" y1="0" x2="478.66666666666663" y2="377" fill="rgb(0, 0, 0)" stroke="rgb(189, 189, 189)" stroke-width="1px" opacity="0.25"></line><line x1="598.3333333333334" y1="0" x2="598.3333333333334" y2="377" fill="rgb(0, 0, 0)" stroke="rgb(189, 189, 189)" stroke-width="1px" opacity="0.25"></line><line x1="718" y1="0" x2="718" y2="377" fill="rgb(0, 0, 0)" stroke="rgb(189, 189, 189)" stroke-width="1px" opacity="0.25"></line><line x1="837.6666666666667" y1="0" x2="837.6666666666667" y2="377" fill="rgb(0, 0, 0)" stroke="rgb(189, 189, 189)" stroke-width="1px" opacity="0.25"></line><line x1="957.3333333333333" y1="0" x2="957.3333333333333" y2="377" fill="rgb(0, 0, 0)" stroke="rgb(189, 189, 189)" stroke-width="1px" opacity="0.25"></line><line x1="1077" y1="0" x2="1077" y2="377" fill="rgb(0, 0, 0)" stroke="rgb(189, 189, 189)" stroke-width="1px" opacity="0.25"></line><line x1="1196.6666666666667" y1="0" x2="1196.6666666666667" y2="377" fill="rgb(0, 0, 0)" stroke="rgb(189, 189, 189)" stroke-width="1px" opacity="0.25"></line><line x1="1316.3333333333333" y1="0" x2="1316.3333333333333" y2="377" fill="rgb(0, 0, 0)" stroke="rgb(189, 189, 189)" stroke-width="1px" opacity="0.25"></line><line x1="1436" y1="0" x2="1436" y2="377" fill="rgb(0, 0, 0)" stroke="rgb(189, 189, 189)" stroke-width="1px" opacity="0.25"></line></g><g><line x1="0" y1="377" x2="1436" y2="377" fill="rgb(0, 0, 0)" stroke="rgb(189, 189, 189)" stroke-width="1px" opacity="0.25"></line><line x1="0" y1="350.07142857142907" x2="1436" y2="350.07142857142907" fill="rgb(0, 0, 0)" stroke="rgb(189, 189, 189)" stroke-width="1px" opacity="0.25"></line><line x1="0" y1="323.14285714285757" x2="1436" y2="323.14285714285757" fill="rgb(0, 0, 0)" stroke="rgb(189, 189, 189)" stroke-width="1px" opacity="0.25"></line><line x1="0" y1="296.21428571428606" x2="1436" y2="296.21428571428606" fill="rgb(0, 0, 0)" stroke="rgb(189, 189, 189)" stroke-width="1px" opacity="0.25"></line><line x1="0" y1="269.28571428571456" x2="1436" y2="269.28571428571456" fill="rgb(0, 0, 0)" stroke="rgb(189, 189, 189)" stroke-width="1px" opacity="0.25"></line><line x1="0" y1="242.357142857143" x2="1436" y2="242.357142857143" fill="rgb(0, 0, 0)" stroke="rgb(189, 189, 189)" stroke-width="1px" opacity="0.25"></line><line x1="0" y1="215.4285714285715" x2="1436" y2="215.4285714285715" fill="rgb(0, 0, 0)" stroke="rgb(189, 189, 189)" stroke-width="1px" opacity="0.25"></line><line x1="0" y1="188.5" x2="1436" y2="188.5" fill="rgb(0, 0, 0)" stroke="rgb(189, 189, 189)" stroke-width="1px" opacity="0.25"></line><line x1="0" y1="161.5714285714285" x2="1436" y2="161.5714285714285" fill="rgb(0, 0, 0)" stroke="rgb(189, 189, 189)" stroke-width="1px" opacity="0.25"></line><line x1="0" y1="134.64285714285697" x2="1436" y2="134.64285714285697" fill="rgb(0, 0, 0)" stroke="rgb(189, 189, 189)" stroke-width="1px" opacity="0.25"></line><line x1="0" y1="107.71428571428545" x2="1436" y2="107.71428571428545" fill="rgb(0, 0, 0)" stroke="rgb(189, 189, 189)" stroke-width="1px" opacity="0.25"></line><line x1="0" y1="80.78571428571395" x2="1436" y2="80.78571428571395" fill="rgb(0, 0, 0)" stroke="rgb(189, 189, 189)" stroke-width="1px" opacity="0.25"></line><line x1="0" y1="53.857142857142414" x2="1436" y2="53.857142857142414" fill="rgb(0, 0, 0)" stroke="rgb(189, 189, 189)" stroke-width="1px" opacity="0.25"></line><line x1="0" y1="26.928571428570915" x2="1436" y2="26.928571428570915" fill="rgb(0, 0, 0)" stroke="rgb(189, 189, 189)" stroke-width="1px" opacity="0.25"></line></g></g></g><g><g><line x1="0" y1="5412.642857142869" x2="1436" y2="5412.642857142869" fill="rgb(0, 0, 0)" stroke="rgb(153, 153, 153)" stroke-width="1.5px"></line></g></g><g><g><line x1="119.66666666666666" y1="0" x2="119.66666666666666" y2="377" fill="rgb(0, 0, 0)" stroke="rgb(153, 153, 153)" stroke-width="1.5px"></line></g></g><g><g><g><g><g><path stroke="rgb(204, 51, 17)" stroke-width="2px" d="M143.6,382.89066673176654L167.53333333333333,301.80144726778326L191.46666666666667,258.1892507996639L215.4,226.60057806926218L239.33333333333331,206.8482477156383L263.26666666666665,194.1261916989493L287.2,182.7076843932657L311.1333333333333,175.61789676555972L335.06666666666666,166.89470032503021L359,162.95581371358472L382.93333333333334,160.60164740374307L406.8666666666667,156.6758652072156L430.8,154.50333154323087L454.7333333333333,153.02130620885345L478.66666666666663,147.82280532262624L502.59999999999997,149.19343010131115L526.5333333333333,146.06576095971403L550.4666666666667,144.36888451765216L574.4,142.6327553865098L598.3333333333334,142.1296627404577L622.2666666666667,142.72538001894182L646.2,140.56950594525324L670.1333333333333,139.6350156942042L694.0666666666667,138.7153017612254L718,137.08628004532605L741.9333333333334,137.36557407030014L765.8666666666667,135.91742372473698L789.8000000000001,134.8690232226369L813.7333333333333,133.70145065622745L837.6666666666667,133.1804181031623L861.6,132.14962696187138L885.5333333333334,133.14687799214659L909.4666666666666,133.386206974003L933.4,132.81176115529175L957.3333333333333,132.64660447001006L981.2666666666667,132.00897806327848L1005.1999999999999,131.8059130202056L1029.1333333333334,131.3249239930634L1053.0666666666666,130.49779818342355L1077,131.61724828503648L1100.9333333333334,131.03221435497775L1124.8666666666666,130.68119399712313L1148.8,130.829731783519L1172.7333333333333,130.38019365652931L1196.6666666666667,130.4694923759349L1220.6,130.52307160757408L1244.5333333333333,130.55521914655648L1268.4666666666667,129.1384212877411L1292.4,128.4678533702384" style="fill: none;" fill="none"></path></g><g><path stroke="rgb(187, 187, 187)" stroke-width="2px" d="M119.66666666666666,405.7239618982591L143.6,320.1696276962759L167.53333333333333,280.69840714535314L191.46666666666667,266.58461173893045L215.4,236.02644254526132L239.33333333333331,213.07256669088196L263.26666666666665,193.54102757286523L287.2,183.0910246690368L311.1333333333333,175.665001655244L335.06666666666666,168.18706847399253L359,163.7293523045995L382.93333333333334,160.16558352820394L406.8666666666667,154.9763619547615L430.8,151.68751842169604L454.7333333333333,152.58964331741743L478.66666666666663,149.53916074827953L502.59999999999997,147.88896325592003L526.5333333333333,148.51491324066058L550.4666666666667,153.737786271649L574.4,147.53576156216172L598.3333333333334,145.96899710099797L622.2666666666667,143.23370040872675L646.2,141.95169827242873L670.1333333333333,141.18250347026935L694.0666666666667,139.28477005078136L718,140.83892841754093L741.9333333333334,139.61716155730767L765.8666666666667,138.34556951743753L789.8000000000001,137.58261479327786L813.7333333333333,137.1248421386956L837.6666666666667,137.38871107546817L861.6,135.751795889089L885.5333333333334,136.38537252318423L909.4666666666666,135.8678360642598L933.4,135.19829259667634L957.3333333333333,136.591802925175L981.2666666666667,136.5303551186551L1005.1999999999999,135.41629323891303L1029.1333333333334,134.20932371919722L1053.0666666666666,136.8961039822067L1077,136.53342495519058L1100.9333333333334,136.31581753916674L1124.8666666666666,134.9285490994105L1148.8,135.3528920258774L1172.7333333333333,134.70981538731712L1196.6666666666667,135.04214100079625L1220.6,137.9343267410014L1244.5333333333333,136.07916541864344L1268.4666666666667,134.96606862525536L1292.4,134.65723214478078" style="fill: none;" fill="none"></path></g><g><path stroke="rgb(51, 187, 238)" stroke-width="2px" d="M119.66666666666666,370.7167882238118L143.6,315.7375937359675L167.53333333333333,276.237772676063L191.46666666666667,254.06743162357074L215.4,227.5756313320293L239.33333333333331,210.42719660278817L263.26666666666665,204.17412923794643L287.2,197.06700024129873L311.1333333333333,186.89534694654031L335.06666666666666,177.06544055028039L359,170.48488875282993L382.93333333333334,164.21301043212185L406.8666666666667,162.43596218623927L430.8,165.50346316820273L454.7333333333333,161.59499148613696L478.66666666666663,156.91665759570066L502.59999999999997,154.1105020824605L526.5333333333333,154.4020605545086L550.4666666666667,152.96115263855194L574.4,150.3013620627814L598.3333333333334,149.2440941635626L622.2666666666667,149.32792931724367L646.2,147.94200357330706L670.1333333333333,149.62374661501735L694.0666666666667,148.4785232366881L718,147.61188018948673L741.9333333333334,144.9376351237248L765.8666666666667,145.30783822960942L789.8000000000001,145.88898167547342L813.7333333333333,145.5196242561175L837.6666666666667,145.83654232151613L861.6,144.94949985604813L885.5333333333334,143.87874200291347L909.4666666666666,144.85201295544167L933.4,145.43597550911178L957.3333333333333,142.73441263039868L981.2666666666667,143.4473721173667L1005.1999999999999,142.7979546106511L1029.1333333333334,141.86977171364617L1053.0666666666666,142.03090516881895L1077,142.48660683761915L1100.9333333333334,140.60576985891632L1124.8666666666666,141.27250405595774L1148.8,141.67254457405951L1172.7333333333333,140.47635409710716L1196.6666666666667,141.91289778986186L1220.6,141.87727001655824L1244.5333333333333,142.03540415035332L1268.4666666666667,142.1302846306293L1292.4,142.36672371656772" style="fill: none;" fill="none"></path></g><g><path stroke="rgb(255, 112, 67)" stroke-width="2px" d="M119.66666666666666,399.8892189434599L143.6,351.3617956510614L167.53333333333333,308.57025459347943L191.46666666666667,270.7162784788785L215.4,241.67536474694785L239.33333333333331,221.05900596355374L263.26666666666665,209.32252106526704L287.2,195.9213138329416L311.1333333333333,185.66845594759397L335.06666666666666,182.65377817059172L359,174.37037422631397L382.93333333333334,172.47807665303876L406.8666666666667,169.18826252472354L430.8,165.24083022003754L454.7333333333333,166.64610851441256L478.66666666666663,161.74250064356633L502.59999999999997,160.59676173057454L526.5333333333333,170.68195486887566L550.4666666666667,164.70355991191855L574.4,159.32145407558102L598.3333333333334,161.65765854856755L622.2666666666667,162.7003221113264L646.2,155.96539700709187L670.1333333333333,152.46301092996842L694.0666666666667,151.43878615950823L718,152.26047039839565L741.9333333333334,149.52202556652688L765.8666666666667,148.59700409322L789.8000000000001,149.6577177535057L813.7333333333333,150.47365653700646L837.6666666666667,150.96321969166146L861.6,150.89793591877523L885.5333333333334,149.9610832212023L909.4666666666666,149.5786108396447L933.4,149.1694882114279L957.3333333333333,149.28316464368302L981.2666666666667,149.35137050228627L1005.1999999999999,147.95607922422553L1029.1333333333334,151.0683988313826L1053.0666666666666,152.2177473991857L1077,150.03492696134276L1100.9333333333334,151.0590034773641L1124.8666666666666,152.0325993877468L1148.8,150.2828597514719L1172.7333333333333,149.23301596990154L1196.6666666666667,149.8598136909538L1220.6,148.62016673810757L1244.5333333333333,149.49210415185772L1268.4666666666667,149.11758420578374L1292.4,148.8928722381416" style="fill: none;" fill="none"></path></g><g><path stroke="rgb(238, 51, 119)" stroke-width="2px" d="M119.66666666666666,456.43929341861224L143.6,366.9579598818509L167.53333333333333,314.835385050092L191.46666666666667,289.9838290749227L215.4,258.6205260612996L239.33333333333331,243.5111592588698L263.26666666666665,238.6035735705529L287.2,227.71452014087885L311.1333333333333,214.58929722086395L335.06666666666666,209.68923625574124L359,202.4438982356483L382.93333333333334,191.81658481012013L406.8666666666667,185.81451257560175L430.8,184.55388925734195L454.7333333333333,179.84679557666513L478.66666666666663,179.17882210908297L502.59999999999997,175.72570160022943L526.5333333333333,172.03844213499718L550.4666666666667,167.13324325323168L574.4,170.11477337952493L598.3333333333334,171.00604800881877L622.2666666666667,169.56602709980777L646.2,168.34300225405892L670.1333333333333,168.14772847324357L694.0666666666667,168.7486100294518L718,168.03207124593146L741.9333333333334,165.26824918743776L765.8666666666667,164.86666252432153L789.8000000000001,165.52339340934097L813.7333333333333,167.17400764769465L837.6666666666667,170.31863422162803L861.6,169.51261931269204L885.5333333333334,165.79755908329165L909.4666666666666,167.33850673130777L933.4,165.57028487353895L957.3333333333333,165.5864165760804L981.2666666666667,164.51903080419376L1005.1999999999999,165.31481413824164L1029.1333333333334,163.99704774961444L1053.0666666666666,164.82198510043432L1077,165.1374367123046L1100.9333333333334,164.07013209424704L1124.8666666666666,163.60926012156645L1148.8,164.23029092706452L1172.7333333333333,163.34633382575242L1196.6666666666667,162.81595956502386L1220.6,162.85675660416743L1244.5333333333333,162.88123482765204L1268.4666666666667,166.12737293257166L1292.4,166.10018020910547" style="fill: none;" fill="none"></path></g><g><path stroke="rgb(0, 119, 187)" stroke-width="2px" d="M167.53333333333333,393.68831740941005L191.46666666666667,346.21188797595187L215.4,306.2284625459147L239.33333333333331,311.2539581345899L263.26666666666665,280.86997396950545L287.2,275.9745712849841L311.1333333333333,258.4009214720672L335.06666666666666,240.56553338278303L359,238.7622732440958L382.93333333333334,236.7850012559753L406.8666666666667,224.9956369246027L430.8,231.4066486605785L454.7333333333333,226.0900392628977L478.66666666666663,219.48974943133553L502.59999999999997,213.01706236274617L526.5333333333333,210.57051204736513L550.4666666666667,206.050614532311L574.4,204.95463696235234L598.3333333333334,203.93804659461503L622.2666666666667,203.68713296784236L646.2,202.10036077550888L670.1333333333333,206.17501685255309L694.0666666666667,209.158332066475L718,210.5892935585905L741.9333333333334,209.65263067106974L765.8666666666667,204.42296472731024L789.8000000000001,205.41430230291303L813.7333333333333,207.983852232008L837.6666666666667,212.39788337670515L861.6,210.0197421402436L885.5333333333334,212.72186287631607L909.4666666666666,211.82972718367466L933.4,210.39689178015402L957.3333333333333,214.56387815960443L981.2666666666667,211.67836077693914L1005.1999999999999,214.43507713063107L1029.1333333333334,209.26718298398015L1053.0666666666666,207.60266129289724L1077,209.29686705929745L1100.9333333333334,211.74960530657876L1124.8666666666666,211.78503346615756L1148.8,211.98580115970324L1172.7333333333333,210.84955778583102L1196.6666666666667,212.3220697404292L1220.6,214.82130249858275L1244.5333333333333,210.5761114082427L1268.4666666666667,215.0304314890836L1292.4,218.0620451330982" style="fill: none;" fill="none"></path></g></g></g></g><g opacity="0.2"><g><g><g><path stroke="rgb(204, 51, 17)" stroke-width="2px" d="M119.66666666666666,527.3511947563723L143.6,296.2143499170032L167.53333333333333,223.95579658235818L191.46666666666667,206.9013077531541L215.4,185.35840695244912L239.33333333333331,179.52366399764998L263.26666666666665,175.9334480421882L287.2,166.0593911239077L311.1333333333333,165.16183713504228L335.06666666666666,153.94177024705047L359,157.08320920807952L382.93333333333334,157.08320920807952L406.8666666666667,150.80001027243455L430.8,151.24878726686728L454.7333333333333,150.80001027243455L478.66666666666663,140.02872037887548L502.59999999999997,151.24878726686728L526.5333333333333,141.37505136217365L550.4666666666667,141.82382835660638L574.4,140.02872037887548L598.3333333333334,141.37505136217365L622.2666666666667,143.61893633433726L646.2,137.33573739869226L670.1333333333333,138.23329138755773L694.0666666666667,137.33573739869226L718,134.6427544185091L741.9333333333334,137.784514393125L765.8666666666667,133.74520042964363L789.8000000000001,133.29642343521093L813.7333333333333,131.95009245191272L837.6666666666667,132.39886944634546L861.6,130.6034404550277L885.5333333333334,134.6427544185091L909.4666666666666,133.74520042964363L933.4,131.95009245191272L957.3333333333333,132.39886944634546L981.2666666666667,131.0525384630473L1005.1999999999999,131.50131545748005L1029.1333333333334,130.6034404550277L1053.0666666666666,129.25710947172956L1077,133.29642343521093L1100.9333333333334,130.15466346059497L1124.8666666666666,130.15466346059497L1148.8,131.0525384630473L1172.7333333333333,129.7058864661623L1196.6666666666667,130.6034404550277L1220.6,130.6034404550277L1244.5333333333333,130.6034404550277L1268.4666666666667,127.01322449956592L1292.4,127.46200149399866" style="fill: none;" fill="none"></path></g><g><path stroke="rgb(187, 187, 187)" stroke-width="2px" d="M119.66666666666666,405.7239618982591L143.6,268.8370271750859L167.53333333333333,242.8060354164668L191.46666666666667,249.98678834097728L215.4,196.1296968460082L239.33333333333331,181.31909298896772L263.26666666666665,165.610614129475L287.2,167.8548201152255L311.1333333333333,164.71306014060954L335.06666666666666,157.08320920807952L359,157.08320920807952L382.93333333333334,154.83932423591594L406.8666666666667,147.20947330338592L430.8,146.7606963089532L454.7333333333333,153.94177024705047L478.66666666666663,144.96558833122228L502.59999999999997,145.414365325655L526.5333333333333,149.4536792891364L550.4666666666667,161.57130016599362L574.4,138.23329138755773L598.3333333333334,143.61893633433726L622.2666666666667,139.13084537642317L646.2,140.02872037887548L670.1333333333333,140.02872037887548L694.0666666666667,136.43818340982685L718,143.17015933990453L741.9333333333334,137.784514393125L765.8666666666667,136.43818340982685L789.8000000000001,136.43818340982685L813.7333333333333,136.43818340982685L837.6666666666667,137.784514393125L861.6,133.29642343521093L885.5333333333334,137.33573739869226L909.4666666666666,135.09153141294183L933.4,134.19397742407637L957.3333333333333,138.68206838199046L981.2666666666667,136.43818340982685L1005.1999999999999,133.74520042964363L1029.1333333333334,132.39886944634546L1053.0666666666666,140.92627436774092L1077,135.98940641539411L1100.9333333333334,135.98940641539411L1124.8666666666666,132.8476464407782L1148.8,135.98940641539411L1172.7333333333333,133.74520042964363L1196.6666666666667,135.54062942096138L1220.6,142.27260535103912L1244.5333333333333,133.29642343521093L1268.4666666666667,133.29642343521093L1292.4,134.19397742407637" style="fill: none;" fill="none"></path></g><g><path stroke="rgb(51, 187, 238)" stroke-width="2px" d="M119.66666666666666,370.7167882238118L143.6,282.75007704326094L167.53333333333333,238.31794445855274L191.46666666666667,227.9951105458395L215.4,192.98793687139226L239.33333333333331,186.70473793574726L263.26666666666665,195.23214285714275L287.2,186.70473793574726L311.1333333333333,171.89413407870683L335.06666666666666,162.46917516844596L359,160.67374617712815L382.93333333333334,154.83932423591594L406.8666666666667,159.77619218826274L430.8,170.09870508738908L454.7333333333333,155.73687822478135L478.66666666666663,149.90245628356908L502.59999999999997,149.90245628356908L526.5333333333333,154.83932423591594L550.4666666666667,150.80001027243455L574.4,146.31191931452045L598.3333333333334,147.65825029781865L622.2666666666667,149.4536792891364L646.2,145.86314232008775L670.1333333333333,152.14634125573272L694.0666666666667,146.7606963089532L718,146.31191931452045L741.9333333333334,140.92627436774092L765.8666666666667,145.86314232008775L789.8000000000001,146.7606963089532L813.7333333333333,144.96558833122228L837.6666666666667,146.31191931452045L861.6,143.61893633433726L885.5333333333334,142.27260535103912L909.4666666666666,146.31191931452045L933.4,146.31191931452045L957.3333333333333,138.68206838199046L981.2666666666667,144.51681133678954L1005.1999999999999,141.82382835660638L1029.1333333333334,140.4774973733082L1053.0666666666666,142.27260535103912L1077,143.17015933990453L1100.9333333333334,137.784514393125L1124.8666666666666,142.27260535103912L1148.8,142.27260535103912L1172.7333333333333,138.68206838199046L1196.6666666666667,144.06771332877L1220.6,141.82382835660638L1244.5333333333333,142.27260535103912L1268.4666666666667,142.27260535103912L1292.4,142.7213823454718" style="fill: none;" fill="none"></path></g><g><path stroke="rgb(255, 112, 67)" stroke-width="2px" d="M119.66666666666666,399.8892189434599L143.6,322.2453416756223L167.53333333333333,267.4903751782009L191.46666666666667,226.20000256810866L215.4,203.7595477785382L239.33333333333331,192.53915987695953L263.26666666666665,192.53915987695953L287.2,176.38222503662092L311.1333333333333,170.5474820818218L335.06666666666666,178.17733301435183L359,162.02039817401322L382.93333333333334,169.64992809295637L406.8666666666667,164.26428314617684L430.8,159.32741519383L454.7333333333333,168.7523741040909L478.66666666666663,154.3905472414832L502.59999999999997,158.8786381993973L526.5333333333333,185.80718394688185L550.4666666666667,155.73687822478135L574.4,151.24878726686728L598.3333333333334,165.16183713504228L622.2666666666667,164.26428314617684L646.2,145.86314232008775L670.1333333333333,147.20947330338592L694.0666666666667,149.90245628356908L718,153.49299325261777L741.9333333333334,145.414365325655L765.8666666666667,147.20947330338592L789.8000000000001,151.24878726686728L813.7333333333333,151.6975642613L837.6666666666667,151.6975642613L861.6,150.80001027243455L885.5333333333334,148.55580428668407L909.4666666666666,149.00490229470367L933.4,148.55580428668407L957.3333333333333,149.4536792891364L981.2666666666667,149.4536792891364L1005.1999999999999,145.86314232008775L1029.1333333333334,155.73687822478135L1053.0666666666666,153.94177024705047L1077,146.7606963089532L1100.9333333333334,152.59511825016546L1124.8666666666666,153.49299325261777L1148.8,147.65825029781865L1172.7333333333333,147.65825029781865L1196.6666666666667,150.80001027243455L1220.6,146.7606963089532L1244.5333333333333,150.80001027243455L1268.4666666666667,148.55580428668407L1292.4,148.55580428668407" style="fill: none;" fill="none"></path></g><g><path stroke="rgb(238, 51, 119)" stroke-width="2px" d="M119.66666666666666,456.43929341861224L143.6,313.2691597597941L167.53333333333333,264.79771321160456L191.46666666666667,260.75839924812317L215.4,217.67259764671317L239.33333333333331,222.60946559905997L263.26666666666665,231.5856475148882L287.2,211.8381757055009L311.1333333333333,195.23214285714275L335.06666666666666,202.41321679524003L359,191.64160588809406L382.93333333333334,175.9334480421882L406.8666666666667,176.83100203105366L430.8,182.6654239722659L454.7333333333333,172.7916880675723L478.66666666666663,178.17733301435183L502.59999999999997,170.5474820818218L526.5333333333333,166.5084891319273L550.4666666666667,159.77619218826274L574.4,174.58679604530317L598.3333333333334,172.34291107313956L622.2666666666667,167.40604312079276L646.2,166.5084891319273L670.1333333333333,167.8548201152255L694.0666666666667,169.64992809295637L718,166.95726612636003L741.9333333333334,161.12252317156089L765.8666666666667,164.26428314617684L789.8000000000001,166.5084891319273L813.7333333333333,169.64992809295637L837.6666666666667,175.0355730397359L861.6,168.30359710965817L885.5333333333334,160.22496918269547L909.4666666666666,169.64992809295637L933.4,162.91795216287863L957.3333333333333,165.610614129475L981.2666666666667,162.91795216287863L1005.1999999999999,166.5084891319273L1029.1333333333334,162.02039817401322L1053.0666666666666,166.0593911239077L1077,165.610614129475L1100.9333333333334,162.46917516844596L1124.8666666666666,162.91795216287863L1148.8,165.16183713504228L1172.7333333333333,162.02039817401322L1196.6666666666667,162.02039817401322L1220.6,162.91795216287863L1244.5333333333333,162.91795216287863L1268.4666666666667,170.9965800898414L1292.4,166.0593911239077" style="fill: none;" fill="none"></path></g><g><path stroke="rgb(0, 119, 187)" stroke-width="2px" d="M143.6,403.92853290694137L167.53333333333333,347.8272354262218L191.46666666666667,290.37960696220404L215.4,254.02610230445862L239.33333333333331,318.2060277121409L263.26666666666665,237.42039046968728L287.2,268.8370271750859L311.1333333333333,232.48320150375363L335.06666666666666,214.08206067766454L359,236.07373847280226L382.93333333333334,233.82985350063868L406.8666666666667,207.35008474758683L430.8,241.01060642514906L454.7333333333333,218.1213746411459L478.66666666666663,209.59396971975042L502.59999999999997,203.31077078410547L526.5333333333333,206.9013077531541L550.4666666666667,199.27145682062408L574.4,203.31077078410547L598.3333333333334,202.41321679524003L622.2666666666667,203.31077078410547L646.2,199.72023381505682L670.1333333333333,212.28695269993364L694.0666666666667,213.63328368323184L718,212.73572969436637L741.9333333333334,208.2476387364523L765.8666666666667,196.57847384044086L789.8000000000001,206.9013077531541L813.7333333333333,211.8381757055009L837.6666666666667,219.01892863001137L861.6,206.45253075872137L885.5333333333334,216.7750436578477L909.4666666666666,210.4915237086159L933.4,208.2476387364523L957.3333333333333,220.81435762132912L981.2666666666667,207.35008474758683L1005.1999999999999,218.57015163557864L1029.1333333333334,201.51534179278772L1053.0666666666666,205.10587876183635L1077,211.8381757055009L1100.9333333333334,215.4287126745496L1124.8666666666666,211.8381757055009L1148.8,212.28695269993364L1172.7333333333333,209.14519272531774L1196.6666666666667,214.53083767209728L1220.6,218.57015163557864L1244.5333333333333,204.20832477297088L1268.4666666666667,221.71191161019456L1292.4,222.60946559905997" style="fill: none;" fill="none"></path></g></g></g></g></g></g><g transform="translate(60, 377)" clip-path="url(#clip_1)"><clipPath id="clip_1"><rect width="1436" height="23"></rect></clipPath><g><g><line x1="0" y1="0" x2="0" y2="5" style="visibility: inherit;" fill="rgb(0, 0, 0)" stroke="rgb(204, 204, 204)" stroke-width="1px"></line><line x1="119.66666666666666" y1="0" x2="119.66666666666666" y2="5" style="visibility: inherit;" fill="rgb(0, 0, 0)" stroke="rgb(204, 204, 204)" stroke-width="1px"></line><line x1="239.33333333333331" y1="0" x2="239.33333333333331" y2="5" style="visibility: inherit;" fill="rgb(0, 0, 0)" stroke="rgb(204, 204, 204)" stroke-width="1px"></line><line x1="359" y1="0" x2="359" y2="5" style="visibility: inherit;" fill="rgb(0, 0, 0)" stroke="rgb(204, 204, 204)" stroke-width="1px"></line><line x1="478.66666666666663" y1="0" x2="478.66666666666663" y2="5" style="visibility: inherit;" fill="rgb(0, 0, 0)" stroke="rgb(204, 204, 204)" stroke-width="1px"></line><line x1="598.3333333333334" y1="0" x2="598.3333333333334" y2="5" style="visibility: inherit;" fill="rgb(0, 0, 0)" stroke="rgb(204, 204, 204)" stroke-width="1px"></line><line x1="718" y1="0" x2="718" y2="5" style="visibility: inherit;" fill="rgb(0, 0, 0)" stroke="rgb(204, 204, 204)" stroke-width="1px"></line><line x1="837.6666666666667" y1="0" x2="837.6666666666667" y2="5" style="visibility: inherit;" fill="rgb(0, 0, 0)" stroke="rgb(204, 204, 204)" stroke-width="1px"></line><line x1="957.3333333333333" y1="0" x2="957.3333333333333" y2="5" style="visibility: inherit;" fill="rgb(0, 0, 0)" stroke="rgb(204, 204, 204)" stroke-width="1px"></line><line x1="1077" y1="0" x2="1077" y2="5" style="visibility: inherit;" fill="rgb(0, 0, 0)" stroke="rgb(204, 204, 204)" stroke-width="1px"></line><line x1="1196.6666666666667" y1="0" x2="1196.6666666666667" y2="5" style="visibility: inherit;" fill="rgb(0, 0, 0)" stroke="rgb(204, 204, 204)" stroke-width="1px"></line><line x1="1316.3333333333333" y1="0" x2="1316.3333333333333" y2="5" style="visibility: inherit;" fill="rgb(0, 0, 0)" stroke="rgb(204, 204, 204)" stroke-width="1px"></line><line x1="1436" y1="0" x2="1436" y2="5" style="visibility: inherit;" fill="rgb(0, 0, 0)" stroke="rgb(204, 204, 204)" stroke-width="1px"></line></g><g transform="translate(0, 8)"><text x="0" y="0" dx="0em" dy="0.95em" style="text-anchor: middle; visibility: hidden; font-family: Roboto, sans-serif; font-size: 12px; font-weight: 200;" fill="rgb(255, 255, 255)" stroke="none" stroke-width="1px">-5</text><text x="119.66666666666666" y="0" dx="0em" dy="0.95em" style="text-anchor: middle; visibility: inherit; font-family: Roboto, sans-serif; font-size: 12px; font-weight: 200;" fill="rgb(255, 255, 255)" stroke="none" stroke-width="1px">0</text><text x="239.33333333333331" y="0" dx="0em" dy="0.95em" style="text-anchor: middle; visibility: inherit; font-family: Roboto, sans-serif; font-size: 12px; font-weight: 200;" fill="rgb(255, 255, 255)" stroke="none" stroke-width="1px">5</text><text x="359" y="0" dx="0em" dy="0.95em" style="text-anchor: middle; visibility: inherit; font-family: Roboto, sans-serif; font-size: 12px; font-weight: 200;" fill="rgb(255, 255, 255)" stroke="none" stroke-width="1px">10</text><text x="478.66666666666663" y="0" dx="0em" dy="0.95em" style="text-anchor: middle; visibility: inherit; font-family: Roboto, sans-serif; font-size: 12px; font-weight: 200;" fill="rgb(255, 255, 255)" stroke="none" stroke-width="1px">15</text><text x="598.3333333333334" y="0" dx="0em" dy="0.95em" style="text-anchor: middle; visibility: inherit; font-family: Roboto, sans-serif; font-size: 12px; font-weight: 200;" fill="rgb(255, 255, 255)" stroke="none" stroke-width="1px">20</text><text x="718" y="0" dx="0em" dy="0.95em" style="text-anchor: middle; visibility: inherit; font-family: Roboto, sans-serif; font-size: 12px; font-weight: 200;" fill="rgb(255, 255, 255)" stroke="none" stroke-width="1px">25</text><text x="837.6666666666667" y="0" dx="0em" dy="0.95em" style="text-anchor: middle; visibility: inherit; font-family: Roboto, sans-serif; font-size: 12px; font-weight: 200;" fill="rgb(255, 255, 255)" stroke="none" stroke-width="1px">30</text><text x="957.3333333333333" y="0" dx="0em" dy="0.95em" style="text-anchor: middle; visibility: inherit; font-family: Roboto, sans-serif; font-size: 12px; font-weight: 200;" fill="rgb(255, 255, 255)" stroke="none" stroke-width="1px">35</text><text x="1077" y="0" dx="0em" dy="0.95em" style="text-anchor: middle; visibility: inherit; font-family: Roboto, sans-serif; font-size: 12px; font-weight: 200;" fill="rgb(255, 255, 255)" stroke="none" stroke-width="1px">40</text><text x="1196.6666666666667" y="0" dx="0em" dy="0.95em" style="text-anchor: middle; visibility: inherit; font-family: Roboto, sans-serif; font-size: 12px; font-weight: 200;" fill="rgb(255, 255, 255)" stroke="none" stroke-width="1px">45</text><text x="1316.3333333333333" y="0" dx="0em" dy="0.95em" style="text-anchor: middle; visibility: inherit; font-family: Roboto, sans-serif; font-size: 12px; font-weight: 200;" fill="rgb(255, 255, 255)" stroke="none" stroke-width="1px">50</text><text x="1436" y="0" dx="0em" dy="0.95em" style="text-anchor: middle; visibility: hidden; font-family: Roboto, sans-serif; font-size: 12px; font-weight: 200;" fill="rgb(255, 255, 255)" stroke="none" stroke-width="1px">55</text></g><line x1="0" y1="0" x2="1436" y2="0" fill="rgb(0, 0, 0)" stroke="rgb(204, 204, 204)" stroke-width="1px"></line></g></g></g></g></svg>